<svg width="349" height="63" viewBox="0 0 349 63" fill="none" xmlns="http://www.w3.org/2000/svg">
<path d="M79.3344 28.208C79.3984 27.9392 79.488 27.7344 79.6032 27.5936C79.7312 27.44 79.9168 27.3632 80.16 27.3632C80.4416 27.3632 80.7488 27.4208 81.0816 27.536C81.4144 27.6384 81.5808 27.76 81.5808 27.9008L80.7936 30.8384C80.0128 33.8208 79.584 35.4848 79.5072 35.8304C79.4816 35.9328 79.4688 36.0544 79.4688 36.1952C79.4688 36.3232 79.488 36.4064 79.5264 36.4448C79.5648 36.4704 79.6096 36.4832 79.6608 36.4832C79.8272 36.4832 80.0064 36.4 80.1984 36.2336C80.3904 36.0672 80.5376 35.8816 80.64 35.6768C80.9856 35.792 81.216 35.952 81.3312 36.1568C81.4464 36.3616 81.504 36.592 81.504 36.848C81.504 37.296 81.2288 37.6608 80.6784 37.9424C80.128 38.2112 79.5008 38.3456 78.7968 38.3456C78.4128 38.3456 78.0672 38.1664 77.76 37.808C77.4656 37.4368 77.3184 36.9952 77.3184 36.4832C77.3184 36.1504 77.8304 34.0192 78.8544 30.0896L79.3344 28.208ZM88.7181 32.9504C88.2829 33.5136 87.7901 34.3456 87.2397 35.4464C86.8813 36.1504 86.5741 36.6944 86.3181 37.0784C86.0749 37.4624 85.8061 37.7504 85.5117 37.9424C85.2685 38.096 84.9037 38.1728 84.4173 38.1728C83.6621 38.1728 83.1565 37.9424 82.9005 37.4816C82.6445 37.008 82.5165 36.3232 82.5165 35.4272C82.5165 34.6208 82.6829 33.5904 83.0157 32.336C83.3613 31.0816 84.0525 29.9168 85.0893 28.8416C86.1261 27.7664 87.5917 27.2288 89.4861 27.2288C90.2285 27.2288 90.9389 27.3824 91.6173 27.6896C92.3085 27.9968 92.8653 28.4512 93.2877 29.0528C93.7101 29.6416 93.9213 30.3392 93.9213 31.1456C93.9213 31.184 93.8765 31.4592 93.7869 31.9712L93.7293 32.3552L92.3469 37.7888C92.1805 38.1088 91.9949 38.3456 91.7901 38.4992C91.5853 38.6656 91.2397 38.7488 90.7533 38.7488C90.5357 38.7488 90.3629 38.6912 90.2349 38.576C90.1197 38.4608 90.0621 38.32 90.0621 38.1536C90.0621 38.0768 90.0749 37.9616 90.1005 37.808L90.2349 37.232C90.3373 36.7328 90.5549 35.9072 90.8877 34.7552C90.9389 34.5504 91.0733 34.0384 91.2909 33.2192C91.5213 32.3872 91.6813 31.728 91.7709 31.2416C91.7965 31.0624 91.8093 30.9472 91.8093 30.896C91.8093 30.5248 91.6877 30.1856 91.4445 29.8784C91.2141 29.5712 90.9069 29.328 90.5229 29.1488C90.1517 28.9696 89.7549 28.88 89.3325 28.88C88.1549 28.88 87.2141 29.3024 86.5101 30.1472C85.8061 30.9792 85.3133 31.9264 85.0317 32.9888C84.7629 34.0512 84.6285 34.9664 84.6285 35.7344C84.6285 35.824 84.6477 35.9072 84.6861 35.984C84.7245 36.048 84.7757 36.08 84.8397 36.08C84.9549 36.08 85.0509 35.9968 85.1277 35.8304C85.5757 34.8576 85.9661 34.0448 86.2989 33.392C86.6445 32.7392 87.0285 32.1696 87.4509 31.6832C87.8861 31.184 88.3213 30.9344 88.7565 30.9344C89.1149 30.9344 89.4605 31.0752 89.7933 31.3568C90.1261 31.6256 90.2989 31.9136 90.3117 32.2208C90.2861 32.3104 90.1965 32.3936 90.0429 32.4704C89.9021 32.5344 89.6845 32.6112 89.3901 32.7008C89.0573 32.8032 88.8333 32.8864 88.7181 32.9504ZM102.707 30.9152L103.34 28.3616C103.43 28.0288 103.577 27.76 103.782 27.5552C103.987 27.3504 104.192 27.248 104.396 27.248C104.742 27.248 105.024 27.3184 105.241 27.4592C105.472 27.6 105.6 27.8112 105.625 28.0928C105.574 28.2976 105.312 29.36 104.838 31.28C104.352 33.2256 104.012 34.5504 103.82 35.2544C103.667 35.8176 103.353 36.3296 102.88 36.7904C102.419 37.2512 101.843 37.616 101.152 37.8848C100.46 38.1536 99.718 38.288 98.9244 38.288C98.0796 38.288 97.35 38.1408 96.7356 37.8464C96.1212 37.5392 95.6476 37.136 95.3148 36.6368C94.9948 36.1248 94.8348 35.568 94.8348 34.9664C94.8348 34.3008 95.0908 33.7056 95.6028 33.1808C96.1148 32.656 96.8572 32.2336 97.83 31.9136C97.3948 31.7088 97.0044 31.4144 96.6588 31.0304C96.326 30.6336 96.1596 30.2112 96.1596 29.7632C96.1596 29.0464 96.3772 28.4384 96.8124 27.9392C97.2476 27.4272 97.798 27.1712 98.4636 27.1712C98.8732 27.1712 99.2572 27.2608 99.6156 27.44C99.974 27.6064 100.153 27.8304 100.153 28.112C100.153 28.304 100.057 28.4768 99.8652 28.6304C99.686 28.7712 99.4172 28.9376 99.0588 29.1296C98.7516 29.3088 98.5212 29.456 98.3676 29.5712C98.214 29.6864 98.1372 29.8144 98.1372 29.9552C98.1372 30.2112 98.2268 30.4224 98.406 30.5888C98.5852 30.7424 98.8604 30.9152 99.2316 31.1072C99.5388 31.2736 99.7692 31.4208 99.9228 31.5488C100.089 31.6768 100.172 31.8304 100.172 32.0096C100.172 32.1248 100.102 32.2336 99.9612 32.336C99.8204 32.4256 99.5708 32.5664 99.2124 32.7584C98.5468 33.1168 98.022 33.4688 97.638 33.8144C97.254 34.1472 97.062 34.576 97.062 35.1008C97.062 35.5488 97.254 35.92 97.638 36.2144C98.022 36.5088 98.5596 36.656 99.2508 36.656C99.7884 36.656 100.3 36.4896 100.787 36.1568C101.286 35.824 101.612 35.3312 101.766 34.6784L102.707 30.9152ZM115.132 29.2256C115.119 29.0848 115.08 28.976 115.016 28.8992C114.952 28.8096 114.837 28.7648 114.671 28.7648C114.12 28.9952 113.557 29.4688 112.981 30.1856C112.418 30.9024 111.9 31.6768 111.426 32.5088C110.965 33.3408 110.396 34.416 109.717 35.7344C109.218 36.7584 108.821 37.5136 108.527 38C108.501 38.0896 108.412 38.1856 108.258 38.288C108.117 38.4032 108.002 38.4608 107.912 38.4608C107.554 38.4608 107.208 38.3712 106.876 38.192C106.543 38.0128 106.364 37.7248 106.338 37.328C107.324 34.8448 107.925 32.4064 108.143 30.0128C107.861 29.8336 107.631 29.5968 107.452 29.3024C107.272 28.9952 107.138 28.6944 107.048 28.4C107.061 28.1184 107.24 27.8944 107.586 27.728C107.944 27.5488 108.328 27.4592 108.738 27.4592C109.314 27.4592 109.704 27.6704 109.909 28.0928C110.114 28.5024 110.216 29.1552 110.216 30.0512C110.216 30.4992 110.101 31.2224 109.871 32.2208C110.127 31.632 110.511 30.9536 111.023 30.1856C111.535 29.4176 112.156 28.7264 112.885 28.112C113.615 27.4976 114.376 27.1904 115.17 27.1904C115.656 27.1904 116.034 27.2992 116.303 27.5168C116.584 27.7216 116.783 27.9776 116.898 28.2848C117.026 28.592 117.148 29.008 117.263 29.5328C117.148 29.648 116.936 30.1472 116.629 31.0304C116.335 31.9008 116.066 32.8544 115.823 33.8912C115.58 34.928 115.458 35.7792 115.458 36.4448C115.458 36.7776 115.496 37.0528 115.573 37.2704C115.445 37.6288 115.24 37.8976 114.959 38.0768C114.677 38.2688 114.357 38.3648 113.999 38.3648C113.781 38.3648 113.589 38.2624 113.423 38.0576C113.256 37.8528 113.141 37.6288 113.077 37.3856C113.09 36.592 113.282 35.5104 113.653 34.1408C114.024 32.7712 114.517 31.1328 115.132 29.2256ZM115.903 26.3264C115.327 26.3264 114.872 26.1472 114.54 25.7888C114.194 25.4176 114.021 24.9568 114.021 24.4064C114.021 23.7152 114.29 23.1584 114.828 22.736C115.352 22.3008 116.024 22.0832 116.844 22.0832C117.343 22.0832 117.778 22.2752 118.149 22.6592C118.533 23.0432 118.725 23.5296 118.725 24.1184C118.725 24.5152 118.591 24.8864 118.322 25.232C118.066 25.5648 117.72 25.8336 117.285 26.0384C116.85 26.2304 116.389 26.3264 115.903 26.3264ZM116.152 25.2704C116.472 25.2704 116.748 25.1616 116.978 24.944C117.208 24.7264 117.324 24.4192 117.324 24.0224C117.324 23.792 117.253 23.6064 117.112 23.4656C116.972 23.3248 116.799 23.2544 116.594 23.2544C116.197 23.2544 115.89 23.3568 115.672 23.5616C115.455 23.7664 115.346 24.08 115.346 24.5024C115.346 24.7328 115.436 24.9184 115.615 25.0592C115.781 25.2 115.96 25.2704 116.152 25.2704ZM126.04 30.4928C125.912 31.3248 125.612 32.6752 125.138 34.544C125.087 34.736 124.972 35.1712 124.792 35.8496C124.626 36.528 124.504 37.104 124.428 37.5776C124.274 37.8848 124.076 38.1216 123.832 38.288C123.589 38.4544 123.205 38.5376 122.68 38.5376C122.271 38.5376 122.066 38.3392 122.066 37.9424C122.066 37.8656 122.079 37.7504 122.104 37.5968L122.45 36.1184C122.578 35.5808 122.693 35.1008 122.796 34.6784C122.911 34.2432 123.007 33.8656 123.084 33.5456C123.48 31.9456 123.743 30.8448 123.871 30.2432C123.884 30.192 123.89 30.128 123.89 30.0512C123.89 29.6928 123.717 29.4048 123.372 29.1872C123.039 28.9568 122.687 28.8416 122.316 28.8416C121.535 28.8416 120.952 29.072 120.568 29.5328C120.197 29.9808 119.992 30.576 119.954 31.3184C119.455 31.2672 119.039 31.152 118.706 30.9728C118.386 30.7936 118.226 30.5568 118.226 30.2624C118.226 29.3536 118.591 28.6176 119.32 28.0544C120.063 27.4784 121.112 27.1904 122.469 27.1904C123.301 27.1904 123.986 27.3568 124.524 27.6896C125.061 28.0096 125.452 28.4064 125.695 28.88C125.938 29.3408 126.06 29.7888 126.06 30.224C126.06 30.352 126.053 30.4416 126.04 30.4928ZM131.846 38.3264C131.116 38.3264 130.406 37.6672 129.715 36.3488C129.036 35.0176 128.454 33.5456 127.968 31.9328C127.494 30.32 127.257 29.3344 127.257 28.976C127.257 28.6944 127.372 28.4064 127.603 28.112C127.833 27.8176 128.038 27.6704 128.217 27.6704C128.32 27.6704 128.39 27.7344 128.428 27.8624C128.864 29.4624 129.388 31.1264 130.003 32.8544C130.617 34.5696 131.2 35.6512 131.75 36.0992C131.891 35.7664 132.134 34.8832 132.48 33.4496C132.838 32.016 133.062 31.0048 133.152 30.416C132.896 30.1856 132.672 29.9104 132.48 29.5904C132.3 29.2576 132.211 28.9376 132.211 28.6304C132.211 28.272 132.294 27.9776 132.46 27.7472C132.64 27.5168 132.934 27.4016 133.344 27.4016C134.022 27.4016 134.553 27.568 134.937 27.9008C135.334 28.2208 135.532 28.6432 135.532 29.168C135.532 29.8592 135.225 31.3568 134.611 33.6608C134.342 34.6592 134.105 35.4656 133.9 36.08C133.696 36.6816 133.42 37.2064 133.075 37.6544C132.742 38.0896 132.332 38.3136 131.846 38.3264ZM144.228 30.4928C144.1 31.3248 143.799 32.6752 143.325 34.544C143.274 34.736 143.159 35.1712 142.98 35.8496C142.813 36.528 142.692 37.104 142.615 37.5776C142.461 37.8848 142.263 38.1216 142.02 38.288C141.777 38.4544 141.393 38.5376 140.868 38.5376C140.458 38.5376 140.253 38.3392 140.253 37.9424C140.253 37.8656 140.266 37.7504 140.292 37.5968L140.637 36.1184C140.765 35.5808 140.881 35.1008 140.983 34.6784C141.098 34.2432 141.194 33.8656 141.271 33.5456C141.668 31.9456 141.93 30.8448 142.058 30.2432C142.071 30.192 142.077 30.128 142.077 30.0512C142.077 29.6928 141.905 29.4048 141.559 29.1872C141.226 28.9568 140.874 28.8416 140.503 28.8416C139.722 28.8416 139.14 29.072 138.756 29.5328C138.385 29.9808 138.18 30.576 138.141 31.3184C137.642 31.2672 137.226 31.152 136.893 30.9728C136.573 30.7936 136.413 30.5568 136.413 30.2624C136.413 29.3536 136.778 28.6176 137.508 28.0544C138.25 27.4784 139.3 27.1904 140.657 27.1904C141.489 27.1904 142.173 27.3568 142.711 27.6896C143.249 28.0096 143.639 28.4064 143.882 28.88C144.125 29.3408 144.247 29.7888 144.247 30.224C144.247 30.352 144.241 30.4416 144.228 30.4928ZM151.665 35.8688C151.205 36.0224 150.392 36.4128 149.227 37.04C148.51 37.4368 147.921 37.744 147.461 37.9616C147 38.1792 146.635 38.288 146.366 38.288C145.662 38.288 145.31 37.9232 145.31 37.1936C145.31 37.0656 145.349 36.8992 145.425 36.6944C145.502 36.4768 145.573 36.2912 145.637 36.1376C145.713 35.984 145.765 35.8752 145.79 35.8112C146.2 34.9408 146.539 34.064 146.808 33.1808C147.089 32.2976 147.275 31.2416 147.365 30.0128C147.083 29.8336 146.853 29.5968 146.673 29.3024C146.494 28.9952 146.36 28.6944 146.27 28.4C146.283 28.1184 146.462 27.8944 146.808 27.728C147.166 27.5488 147.55 27.4592 147.96 27.4592C148.561 27.4592 148.984 27.6576 149.227 28.0544C149.483 28.4512 149.611 29.072 149.611 29.9168C149.611 30.6336 149.464 31.5808 149.169 32.7584C148.875 33.936 148.517 34.928 148.094 35.7344C148.632 35.4272 149.31 35.1072 150.129 34.7744C150.961 34.4416 151.755 34.1984 152.51 34.0448C152.83 32.624 153.112 31.4656 153.355 30.5696C153.598 29.6608 153.88 28.88 154.2 28.2272C154.52 27.5744 154.872 27.248 155.256 27.248C155.921 27.248 156.28 27.5296 156.331 28.0928C156.216 28.208 156.037 28.688 155.793 29.5328C155.563 30.3648 155.339 31.2672 155.121 32.24C154.904 33.2128 154.776 33.8592 154.737 34.1792C155.032 34.2688 155.249 34.4544 155.39 34.736C155.544 35.0048 155.621 35.3248 155.621 35.696C155.621 36.0672 155.537 36.4512 155.371 36.848C155.205 37.2448 154.949 37.5776 154.603 37.8464C154.27 38.1152 153.848 38.2496 153.336 38.2496C152.901 38.2496 152.51 38.0768 152.165 37.7312C151.819 37.3856 151.646 36.9312 151.646 36.368C151.646 36.1632 151.653 35.9968 151.665 35.8688ZM157.614 37.0784C157.614 36.8992 157.71 36.6304 157.902 36.272C158.299 35.4912 158.644 34.6528 158.939 33.7568C159.246 32.848 159.489 31.6 159.668 30.0128C159.387 29.8336 159.15 29.5968 158.958 29.3024C158.779 28.9952 158.644 28.6944 158.555 28.4C158.567 28.1184 158.747 27.8944 159.092 27.728C159.451 27.5488 159.835 27.4592 160.244 27.4592C160.833 27.4592 161.243 27.6576 161.473 28.0544C161.716 28.4384 161.838 29.0592 161.838 29.9168C161.838 30.3776 161.742 31.0368 161.55 31.8944C161.358 32.752 161.115 33.6032 160.82 34.448C160.526 35.2928 160.219 35.9456 159.899 36.4064C160.654 36.1632 161.575 36.0416 162.663 36.0416L163.547 36.0608C163.931 36.0864 164.238 36.0992 164.468 36.0992C164.558 36.0992 164.635 36.048 164.699 35.9456C164.775 35.8432 164.827 35.728 164.852 35.6C164.993 34.7296 165.268 33.5264 165.678 31.9904C166.087 30.4544 166.523 29.008 166.983 27.6512C167.457 26.2816 167.854 25.3664 168.174 24.9056C168.494 24.4448 168.814 24.2144 169.134 24.2144C169.428 24.2144 169.684 24.2784 169.902 24.4064C170.132 24.5216 170.273 24.6944 170.324 24.9248C169.799 25.7056 169.332 26.7488 168.923 28.0544C168.526 29.36 168.097 30.9856 167.636 32.9312C167.572 33.2 167.444 33.7184 167.252 34.4864C167.06 35.2416 166.887 35.8624 166.734 36.3488C166.555 36.9504 166.363 37.3856 166.158 37.6544C165.953 37.9104 165.633 38.0384 165.198 38.0384C164.916 38.0384 164.654 38.0192 164.411 37.9808C164.18 37.9424 164.033 37.9168 163.969 37.904C163.483 37.7888 162.964 37.7312 162.414 37.7312C162.081 37.7312 161.607 37.8016 160.993 37.9424C160.251 38.096 159.687 38.1728 159.303 38.1728C158.715 38.1728 158.286 38.0832 158.017 37.904C157.748 37.7248 157.614 37.4496 157.614 37.0784ZM171.917 36.5408C172.249 36.5408 172.525 36.3616 172.742 36.0032C172.973 35.6448 173.139 35.2288 173.241 34.7552C173.357 34.2688 173.414 33.8656 173.414 33.5456C173.414 32.8928 173.229 32.3616 172.857 31.952C172.499 31.5296 172.013 31.1136 171.398 30.704C171.091 30.512 170.867 30.3584 170.726 30.2432C170.598 30.1152 170.534 29.9872 170.534 29.8592C170.534 29.5264 170.675 29.2448 170.957 29.0144C171.251 28.7712 171.629 28.5472 172.089 28.3424C172.589 28.1376 173.325 27.9008 174.297 27.632C175.27 27.3632 176.102 27.2288 176.793 27.2288C177.267 27.2288 177.645 27.3056 177.926 27.4592C178.208 27.6128 178.349 27.8176 178.349 28.0736C178.349 28.2656 178.291 28.4064 178.176 28.496C178.061 28.5856 177.881 28.6624 177.638 28.7264L177.177 28.8416C176.435 29.008 175.763 29.1808 175.161 29.36C174.573 29.5392 174.016 29.7696 173.491 30.0512C174.233 30.576 174.771 31.1456 175.104 31.76C175.437 32.3744 175.603 32.9824 175.603 33.584C175.603 34.1856 175.437 34.8576 175.104 35.6C174.784 36.3424 174.323 36.976 173.721 37.5008C173.133 38.0256 172.448 38.288 171.667 38.288C171.129 38.288 170.656 38.1152 170.246 37.7696C169.849 37.424 169.651 36.9184 169.651 36.2528C169.651 35.7664 169.779 35.3824 170.035 35.1008C170.304 34.8064 170.624 34.6592 170.995 34.6592C171.264 34.6592 171.488 34.7232 171.667 34.8512C171.859 34.9792 171.955 35.1264 171.955 35.2928C171.929 35.3056 171.885 35.344 171.821 35.408C171.757 35.472 171.693 35.5552 171.629 35.6576C171.577 35.76 171.552 35.8752 171.552 36.0032C171.552 36.1696 171.59 36.304 171.667 36.4064C171.744 36.496 171.827 36.5408 171.917 36.5408ZM178.719 31.0112C178.719 30.6912 178.776 30.3328 178.892 29.936C179.02 29.5264 179.18 29.1808 179.372 28.8992C179.576 28.6176 179.788 28.4768 180.005 28.4768C180.453 28.4768 180.786 28.5408 181.004 28.6688C181.234 28.7968 181.349 29.0208 181.349 29.3408C181.349 29.456 181.24 29.6608 181.023 29.9552C180.818 30.2112 180.671 30.4352 180.581 30.6272C181.132 30.2304 181.836 29.8592 182.693 29.5136C183.564 29.1552 184.255 28.976 184.767 28.976C185.1 28.976 185.375 29.0528 185.592 29.2064C185.823 29.36 185.938 29.6096 185.938 29.9552C185.938 30.0704 185.887 30.1856 185.784 30.3008C185.682 30.416 185.58 30.4736 185.477 30.4736C185.08 30.4736 184.639 30.5696 184.152 30.7616C183.679 30.9536 183.096 31.2288 182.405 31.5872C181.816 31.8944 181.336 32.1248 180.965 32.2784C180.607 32.432 180.293 32.5088 180.024 32.5088C179.896 32.5088 179.724 32.4192 179.506 32.24C179.301 32.048 179.116 31.8368 178.949 31.6064C178.796 31.3632 178.719 31.1648 178.719 31.0112ZM177.663 36.2912C177.663 35.9712 177.746 35.5872 177.912 35.1392C178.066 34.6784 178.258 34.2816 178.488 33.9488C178.719 33.616 178.943 33.4496 179.16 33.4496C179.608 33.4496 179.941 33.52 180.159 33.6608C180.389 33.7888 180.504 34.0128 180.504 34.3328C180.504 34.4096 180.46 34.5184 180.37 34.6592C180.28 34.8 180.178 34.9408 180.063 35.0816C179.794 35.4272 179.615 35.696 179.525 35.888C180.114 35.4656 180.837 35.0624 181.695 34.6784C182.552 34.2944 183.224 34.1024 183.711 34.1024C184.044 34.1024 184.319 34.1792 184.536 34.3328C184.767 34.4864 184.882 34.7424 184.882 35.1008C184.882 35.216 184.831 35.3312 184.728 35.4464C184.626 35.5488 184.524 35.6 184.421 35.6C184.024 35.6 183.589 35.7024 183.116 35.9072C182.655 36.112 182.066 36.4128 181.349 36.8096C180.722 37.1552 180.236 37.4048 179.89 37.5584C179.544 37.712 179.237 37.7888 178.968 37.7888C178.84 37.7888 178.668 37.6992 178.45 37.52C178.245 37.328 178.066 37.1168 177.912 36.8864C177.746 36.6432 177.663 36.4448 177.663 36.2912ZM188.566 36.4448C188.924 36.4448 189.328 36.2784 189.776 35.9456C190.236 35.6128 190.627 35.2032 190.947 34.7168C191.28 34.2176 191.465 33.744 191.504 33.296C191.132 33.0912 190.876 32.7392 190.736 32.24C190.748 31.9456 190.889 31.7152 191.158 31.5488C191.427 31.3824 191.753 31.2992 192.137 31.2992C192.137 31.2736 192.259 31.2928 192.502 31.3568C192.745 31.4208 192.963 31.536 193.155 31.7024C193.36 31.856 193.462 32.0864 193.462 32.3936C193.462 33.2512 193.232 34.1344 192.771 35.0432C192.323 35.9392 191.702 36.688 190.908 37.2896C190.115 37.8784 189.244 38.1728 188.297 38.1728C187.452 38.1728 186.902 37.9168 186.646 37.4048C186.403 36.8928 186.281 36.2336 186.281 35.4272C186.281 34.6464 186.448 33.6224 186.78 32.3552C187.113 31.0752 187.76 29.8976 188.72 28.8224C189.692 27.7344 191.049 27.1904 192.79 27.1904C193.481 27.1904 194.166 27.3376 194.844 27.632C195.523 27.9136 196.08 28.3424 196.515 28.9184C196.963 29.4816 197.187 30.1664 197.187 30.9728C197.187 31.152 197.18 31.2928 197.168 31.3952C197.078 32.2656 196.931 33.1872 196.726 34.16C196.534 35.1328 196.265 36.3424 195.92 37.7888C195.753 38.1088 195.561 38.3456 195.344 38.4992C195.139 38.6656 194.774 38.7488 194.249 38.7488C193.84 38.7488 193.635 38.5504 193.635 38.1536C193.635 38.0768 193.648 37.9616 193.673 37.808L193.808 37.232L194.192 35.6192C194.742 33.5712 195.043 32.144 195.094 31.3376V31.184C195.094 30.5312 194.883 29.9808 194.46 29.5328C194.038 29.072 193.475 28.8416 192.771 28.8416C191.593 28.8416 190.672 29.2768 190.006 30.1472C189.34 31.0176 188.892 31.9968 188.662 33.0848C188.432 34.16 188.316 35.1136 188.316 35.9456C188.316 36.2784 188.4 36.4448 188.566 36.4448ZM197.865 24.3488C197.942 24.3872 197.993 24.4704 198.018 24.5984C198.057 24.7136 198.076 24.8224 198.076 24.9248C198.076 25.1552 197.967 25.3216 197.75 25.424C197.532 25.5264 197.289 25.5776 197.02 25.5776C196.802 25.5776 196.585 25.5072 196.367 25.3664C196.15 25.2128 195.855 24.9696 195.484 24.6368C194.972 24.176 194.518 23.824 194.121 23.5808C193.711 23.3376 193.25 23.216 192.738 23.216C192.329 23.216 191.913 23.2928 191.49 23.4464C191.055 23.5872 190.838 23.792 190.838 24.0608C190.838 24.2656 190.991 24.4448 191.298 24.5984C191.606 24.7392 191.964 24.848 192.374 24.9248C192.77 24.9888 193.103 25.0208 193.372 25.0208L194.294 25.0016C194.46 24.9888 194.671 24.9824 194.927 24.9824C195.209 24.9824 195.35 25.0592 195.35 25.2128C195.35 25.4432 195.234 25.6416 195.004 25.808C194.761 25.9744 194.479 26.1024 194.159 26.192C193.826 26.2816 193.538 26.3264 193.295 26.3264C192.553 26.3264 191.83 26.2432 191.126 26.0768C190.409 25.9104 189.826 25.6672 189.378 25.3472C188.918 25.0272 188.687 24.6432 188.687 24.1952C188.687 23.7088 188.924 23.2736 189.398 22.8896C189.858 22.5056 190.422 22.2112 191.087 22.0064C191.74 21.7888 192.322 21.68 192.834 21.68C193.654 21.68 194.351 21.8208 194.927 22.1024C195.503 22.3712 196.066 22.8192 196.617 23.4464C196.822 23.6768 197.039 23.8688 197.27 24.0224C197.5 24.176 197.698 24.2848 197.865 24.3488ZM210.498 30.7808C210.498 31.2672 210.313 31.7024 209.942 32.0864C209.57 32.4704 209.084 32.7968 208.482 33.0656C208.418 33.3472 208.354 33.7056 208.29 34.1408C208.137 35.0496 207.99 35.76 207.849 36.272C207.708 36.784 207.497 37.2064 207.215 37.5392C206.934 37.872 206.55 38.0384 206.063 38.0384C205.833 38.0384 205.628 38.0192 205.449 37.9808C205.27 37.9296 205.033 37.8464 204.738 37.7312C204.444 37.616 204.169 37.5328 203.913 37.4816C203.67 37.4176 203.388 37.3856 203.068 37.3856C202.748 37.3856 202.249 37.5072 201.57 37.7504C201.186 37.8912 200.854 37.9936 200.572 38.0576C200.303 38.1344 200.041 38.1728 199.785 38.1728C199.196 38.1728 198.767 38.0832 198.498 37.904C198.23 37.7248 198.095 37.4496 198.095 37.0784C198.095 36.8992 198.191 36.6304 198.383 36.272C198.78 35.4912 199.126 34.6528 199.42 33.7568C199.727 32.848 199.97 31.6 200.15 30.0128C199.868 29.8336 199.631 29.5968 199.439 29.3024C199.26 28.9952 199.126 28.6944 199.036 28.4C199.049 28.1184 199.228 27.8944 199.574 27.728C199.932 27.5488 200.316 27.4592 200.726 27.4592C201.314 27.4592 201.724 27.6576 201.954 28.0544C202.198 28.4384 202.319 29.0592 202.319 29.9168C202.319 30.3776 202.223 31.0368 202.031 31.8944C201.852 32.752 201.615 33.6032 201.321 34.448C201.039 35.28 200.738 35.9264 200.418 36.3872C200.866 36.144 201.372 35.9776 201.935 35.888C202.511 35.7856 203.004 35.7344 203.414 35.7344C203.58 35.7344 203.772 35.7536 203.99 35.792C204.207 35.8304 204.361 35.856 204.45 35.8688C204.937 35.9712 205.295 36.0224 205.526 36.0224C205.615 36.0224 205.692 35.9712 205.756 35.8688C205.833 35.7664 205.884 35.6512 205.91 35.5232L206.217 33.7568C205.961 33.7952 205.762 33.8144 205.622 33.8144C204.93 33.8144 204.284 33.6608 203.682 33.3536C203.081 33.0464 202.78 32.592 202.78 31.9904C202.78 31.7728 202.882 31.5232 203.087 31.2416C203.292 30.9472 203.484 30.8 203.663 30.8C203.868 30.8 204.041 30.8512 204.182 30.9536C204.322 31.056 204.502 31.216 204.719 31.4336C204.886 31.6128 205.026 31.7472 205.142 31.8368C205.27 31.9264 205.41 31.9712 205.564 31.9712C205.961 31.9712 206.319 31.952 206.639 31.9136C206.985 30.5312 207.362 29.4112 207.772 28.5536C208.182 27.6832 208.617 27.248 209.078 27.248C209.666 27.248 210.018 27.4848 210.134 27.9584C209.673 28.816 209.276 29.872 208.943 31.1264C209.289 30.9088 209.673 30.6272 210.095 30.2816C210.185 30.2048 210.274 30.1664 210.364 30.1664C210.402 30.1664 210.434 30.2496 210.46 30.416C210.486 30.5696 210.498 30.6912 210.498 30.7808ZM215.897 36.2528C216.205 35.8944 216.537 35.3312 216.896 34.5632C217.267 33.7824 217.581 32.9952 217.837 32.2016C218.105 31.3952 218.24 30.7744 218.24 30.3392C218.24 30.1472 218.208 30 218.144 29.8976C218.08 29.7952 217.977 29.7056 217.837 29.6288C217.043 30.0256 216.217 30.3392 215.36 30.5696C214.502 30.8 213.741 30.9152 213.075 30.9152C212.563 30.9152 212.147 30.7936 211.827 30.5504C211.52 30.2944 211.366 29.9616 211.366 29.552C211.366 29.1936 211.584 28.8544 212.019 28.5344C212.454 28.2016 213.03 27.9392 213.747 27.7472C214.464 27.5552 215.219 27.4592 216.013 27.4592C216.307 27.4592 216.665 27.472 217.088 27.4976C217.51 27.5232 217.805 27.5552 217.971 27.5936C218.227 27.504 218.56 27.3568 218.969 27.152C219.456 26.9344 219.859 26.768 220.179 26.6528C220.499 26.5376 220.819 26.48 221.139 26.48C221.613 26.48 222.022 26.576 222.368 26.768C222.713 26.9472 222.886 27.1648 222.886 27.4208C222.886 27.5616 222.777 27.664 222.56 27.728C222.342 27.792 222.035 27.8496 221.638 27.9008C221.395 27.9264 221.229 27.952 221.139 27.9776C221.011 28.0032 220.793 28.0928 220.486 28.2464C220.192 28.3872 219.949 28.5216 219.757 28.6496C219.974 28.8416 220.147 29.072 220.275 29.3408C220.403 29.5968 220.467 29.8592 220.467 30.128C220.467 30.6528 220.23 31.6064 219.757 32.9888C219.296 34.3584 218.701 35.5936 217.971 36.6944C217.241 37.7952 216.467 38.3456 215.648 38.3456C215.277 38.3456 214.982 38.2496 214.765 38.0576C214.56 37.8656 214.4 37.6224 214.285 37.328C214.182 37.0208 214.054 36.5728 213.901 35.984C213.747 35.3568 213.606 34.8384 213.478 34.4288C213.35 34.0192 213.177 33.5968 212.96 33.1616C212.691 33.1488 212.505 33.0464 212.403 32.8544C212.313 32.6496 212.269 32.4896 212.269 32.3744C212.269 32.2208 212.397 32.0608 212.653 31.8944C212.921 31.728 213.286 31.6448 213.747 31.6448C214.144 31.6448 214.496 31.9008 214.803 32.4128C215.11 32.912 215.36 33.5264 215.552 34.256C215.744 34.9728 215.859 35.6384 215.897 36.2528ZM216.224 41.0528C216.224 41.0144 216.147 40.8928 215.993 40.688C215.801 40.4192 215.705 40.2464 215.705 40.1696C215.705 39.9776 215.757 39.8304 215.859 39.728C215.961 39.6384 216.205 39.5936 216.589 39.5936C216.998 39.5936 217.357 39.7344 217.664 40.016C217.971 40.2976 218.125 40.6752 218.125 41.1488C218.125 41.5712 217.997 42.0064 217.741 42.4544C217.485 42.9152 217.152 43.2928 216.742 43.5872C216.333 43.8816 215.91 44.0288 215.475 44.0288C215.155 44.0288 214.854 43.9328 214.573 43.7408C214.291 43.5488 213.945 43.2544 213.536 42.8576C213.037 42.3712 212.589 42 212.192 41.744C211.795 41.488 211.341 41.36 210.829 41.36C210.393 41.36 209.907 41.4304 209.369 41.5712C208.832 41.712 208.461 41.8848 208.256 42.0896C208.192 42.1536 208.121 42.1856 208.045 42.1856C207.891 42.1856 207.769 42.1024 207.68 41.936C207.577 41.7824 207.526 41.6032 207.526 41.3984C207.526 41.0016 207.744 40.6688 208.179 40.4C208.614 40.1312 209.126 39.9328 209.715 39.8048C210.291 39.6896 210.797 39.632 211.232 39.632C211.833 39.632 212.384 39.7792 212.883 40.0736C213.382 40.3808 213.933 40.7904 214.534 41.3024C214.79 41.5456 214.995 41.7184 215.149 41.8208C215.302 41.936 215.43 41.9936 215.533 41.9936C215.635 41.9936 215.763 41.8784 215.917 41.648C216.083 41.4176 216.185 41.2192 216.224 41.0528ZM218.153 24.2336C218.153 24.2464 218.223 24.3296 218.364 24.4832C218.505 24.6368 218.575 24.848 218.575 25.1168C218.575 25.3344 218.415 25.5392 218.095 25.7312C217.763 25.9232 217.417 26.0192 217.059 26.0192C216.662 26.0192 216.342 25.8848 216.099 25.616C215.843 25.3344 215.715 25.0016 215.715 24.6176C215.715 23.9776 216.105 23.4272 216.886 22.9664C217.667 22.4928 218.607 22.1344 219.708 21.8912C220.796 21.648 221.775 21.5264 222.646 21.5264C223.183 21.5264 223.587 21.5712 223.855 21.6608C224.124 21.7504 224.259 21.9616 224.259 22.2944C224.259 22.3968 224.233 22.4928 224.182 22.5824C224.131 22.6592 224.054 22.6976 223.951 22.6976C223.58 22.6976 222.908 22.7744 221.935 22.928C220.963 23.0688 220.092 23.2608 219.324 23.504C218.543 23.7344 218.153 23.9776 218.153 24.2336ZM226.14 29.9168C226.14 30.4416 226.057 31.1136 225.891 31.9328C225.737 32.752 225.526 33.5456 225.257 34.3136C226.255 34.6336 227.407 35.2544 228.713 36.176C229.289 33.5776 229.827 31.44 230.326 29.7632C230.838 28.0864 231.35 27.248 231.862 27.248C232.527 27.248 232.886 27.5296 232.937 28.0928C232.822 28.208 232.591 28.9312 232.246 30.2624C231.913 31.5808 231.58 32.9952 231.247 34.5056C230.927 36.016 230.748 36.9376 230.71 37.2704C230.441 38 229.961 38.3648 229.27 38.3648C229.001 38.3648 228.681 38.2624 228.31 38.0576C227.951 37.8528 227.471 37.5456 226.87 37.136C225.974 36.5088 225.295 36.112 224.835 35.9456C224.809 36.0992 224.758 36.2656 224.681 36.4448C224.476 37.008 224.137 37.4624 223.663 37.808C223.19 38.1536 222.735 38.3264 222.3 38.3264C221.763 38.3264 221.379 38.1792 221.148 37.8848C220.905 37.5904 220.783 37.2192 220.783 36.7712C220.783 36.3488 220.886 35.9456 221.091 35.5616C221.283 35.1648 221.551 34.8384 221.897 34.5824C222.255 34.3136 222.659 34.1664 223.107 34.1408C223.388 33.2192 223.587 32.4896 223.702 31.952C223.83 31.4144 223.919 30.768 223.971 30.0128C223.689 29.8336 223.459 29.5968 223.279 29.3024C223.1 28.9952 222.966 28.6944 222.876 28.4C222.889 28.1184 223.068 27.8944 223.414 27.728C223.772 27.5488 224.156 27.4592 224.566 27.4592C225.155 27.4592 225.564 27.6576 225.795 28.0544C226.025 28.4384 226.14 29.0592 226.14 29.9168ZM241.39 30.4928C241.262 31.3248 240.962 32.6752 240.488 34.544C240.437 34.736 240.322 35.1712 240.142 35.8496C239.976 36.528 239.854 37.104 239.778 37.5776C239.624 37.8848 239.426 38.1216 239.182 38.288C238.939 38.4544 238.555 38.5376 238.03 38.5376C237.621 38.5376 237.416 38.3392 237.416 37.9424C237.416 37.8656 237.429 37.7504 237.454 37.5968L237.8 36.1184C237.928 35.5808 238.043 35.1008 238.146 34.6784C238.261 34.2432 238.357 33.8656 238.434 33.5456C238.83 31.9456 239.093 30.8448 239.221 30.2432C239.234 30.192 239.24 30.128 239.24 30.0512C239.24 29.6928 239.067 29.4048 238.722 29.1872C238.389 28.9568 238.037 28.8416 237.666 28.8416C236.885 28.8416 236.302 29.072 235.918 29.5328C235.547 29.9808 235.342 30.576 235.304 31.3184C234.805 31.2672 234.389 31.152 234.056 30.9728C233.736 30.7936 233.576 30.5568 233.576 30.2624C233.576 29.3536 233.941 28.6176 234.67 28.0544C235.413 27.4784 236.462 27.1904 237.819 27.1904C238.651 27.1904 239.336 27.3568 239.874 27.6896C240.411 28.0096 240.802 28.4064 241.045 28.88C241.288 29.3408 241.41 29.7888 241.41 30.224C241.41 30.352 241.403 30.4416 241.39 30.4928ZM242.626 37.0784C242.626 36.8992 242.722 36.6304 242.914 36.272C243.311 35.4912 243.657 34.6528 243.951 33.7568C244.258 32.848 244.502 31.6 244.681 30.0128C244.399 29.8336 244.162 29.5968 243.97 29.3024C243.791 28.9952 243.657 28.6944 243.567 28.4C243.58 28.1184 243.759 27.8944 244.105 27.728C244.463 27.5488 244.847 27.4592 245.257 27.4592C245.846 27.4592 246.249 27.6512 246.466 28.0352C246.697 28.4192 246.812 29.0464 246.812 29.9168C246.812 30.3776 246.722 31.0368 246.543 31.8944C246.364 32.752 246.127 33.6032 245.833 34.448C245.551 35.28 245.257 35.9264 244.95 36.3872C245.679 36.0288 246.556 35.8496 247.58 35.8496C247.746 35.8496 247.926 35.8624 248.118 35.888C248.31 35.9136 248.444 35.9328 248.521 35.9456C248.93 36.0224 249.25 36.0608 249.481 36.0608C249.57 36.0608 249.647 36.0096 249.711 35.9072C249.788 35.8048 249.839 35.6896 249.865 35.5616C250.057 34.2816 250.313 33.008 250.633 31.7408C250.953 30.4608 251.305 29.424 251.689 28.6304C252.124 27.7088 252.572 27.248 253.033 27.248C253.327 27.248 253.577 27.312 253.782 27.44C253.999 27.5552 254.134 27.728 254.185 27.9584C253.506 29.2 252.969 30.672 252.572 32.3744C252.495 32.7328 252.386 33.3216 252.246 34.1408C252.092 35.0496 251.945 35.76 251.804 36.272C251.663 36.784 251.452 37.2064 251.17 37.5392C250.889 37.872 250.505 38.0384 250.018 38.0384C249.788 38.0384 249.583 38.0192 249.404 37.9808C249.238 37.9424 249.039 37.8848 248.809 37.808C248.553 37.7184 248.31 37.6544 248.079 37.616C247.849 37.5648 247.574 37.5392 247.254 37.5392C246.998 37.5392 246.722 37.584 246.428 37.6736C246.146 37.7632 245.974 37.8144 245.91 37.8272C245.59 37.9424 245.308 38.0256 245.065 38.0768C244.822 38.1408 244.572 38.1728 244.316 38.1728C243.727 38.1728 243.298 38.0832 243.03 37.904C242.761 37.7248 242.626 37.4496 242.626 37.0784ZM249.616 23.0816C249.616 22.9408 249.545 22.8704 249.404 22.8704C249.289 22.8704 249.161 22.9216 249.02 23.024C248.867 23.1136 248.777 23.1648 248.752 23.1776C248.572 23.3056 248.457 23.3696 248.406 23.3696C248.278 23.3696 248.156 23.2608 248.041 23.0432C247.913 22.8128 247.849 22.6016 247.849 22.4096C247.849 22.2432 247.964 22.064 248.195 21.872C248.425 21.68 248.707 21.52 249.04 21.392C249.36 21.264 249.654 21.2 249.923 21.2C250.409 21.2 250.793 21.2768 251.075 21.4304C251.344 21.5712 251.478 21.8592 251.478 22.2944C251.478 22.4224 251.452 22.6208 251.401 22.8896C251.35 23.1456 251.28 23.3632 251.19 23.5424C251.907 23.1328 252.675 22.7488 253.494 22.3904C254.313 22.032 254.947 21.8528 255.395 21.8528C255.74 21.8528 256.028 21.9232 256.259 22.064C256.489 22.192 256.604 22.4096 256.604 22.7168C256.604 22.8192 256.547 22.9216 256.432 23.024C256.329 23.1264 256.22 23.1776 256.105 23.1776C255.811 23.1776 255.235 23.3376 254.377 23.6576C253.52 23.9776 252.668 24.3552 251.824 24.7904C250.979 25.2128 250.409 25.5648 250.115 25.8464C249.987 25.9744 249.878 26.0384 249.788 26.0384C249.584 26.0384 249.385 25.9296 249.193 25.712C248.988 25.4944 248.886 25.2832 248.886 25.0784C248.886 24.912 248.924 24.7456 249.001 24.5792C249.065 24.4 249.168 24.1696 249.308 23.888C249.334 23.8368 249.392 23.7216 249.481 23.5424C249.571 23.3504 249.616 23.1968 249.616 23.0816ZM262.672 30.4928C262.544 31.3248 262.243 32.6752 261.769 34.544C261.718 34.736 261.603 35.1712 261.424 35.8496C261.257 36.528 261.136 37.104 261.059 37.5776C260.905 37.8848 260.707 38.1216 260.464 38.288C260.22 38.4544 259.836 38.5376 259.312 38.5376C258.902 38.5376 258.697 38.3392 258.697 37.9424C258.697 37.8656 258.71 37.7504 258.736 37.5968L259.081 36.1184C259.209 35.5808 259.324 35.1008 259.427 34.6784C259.542 34.2432 259.638 33.8656 259.715 33.5456C260.112 31.9456 260.374 30.8448 260.502 30.2432C260.515 30.192 260.521 30.128 260.521 30.0512C260.521 29.6928 260.348 29.4048 260.003 29.1872C259.67 28.9568 259.318 28.8416 258.947 28.8416C258.166 28.8416 257.584 29.072 257.2 29.5328C256.828 29.9808 256.624 30.576 256.585 31.3184C256.086 31.2672 255.67 31.152 255.337 30.9728C255.017 30.7936 254.857 30.5568 254.857 30.2624C254.857 29.3536 255.222 28.6176 255.952 28.0544C256.694 27.4784 257.744 27.1904 259.1 27.1904C259.932 27.1904 260.617 27.3568 261.155 27.6896C261.692 28.0096 262.083 28.4064 262.326 28.88C262.569 29.3408 262.691 29.7888 262.691 30.224C262.691 30.352 262.684 30.4416 262.672 30.4928ZM268.477 38.3264C267.748 38.3264 267.037 37.6672 266.346 36.3488C265.668 35.0176 265.085 33.5456 264.599 31.9328C264.125 30.32 263.888 29.3344 263.888 28.976C263.888 28.6944 264.004 28.4064 264.234 28.112C264.464 27.8176 264.669 27.6704 264.848 27.6704C264.951 27.6704 265.021 27.7344 265.06 27.8624C265.495 29.4624 266.02 31.1264 266.634 32.8544C267.248 34.5696 267.831 35.6512 268.381 36.0992C268.522 35.7664 268.765 34.8832 269.111 33.4496C269.469 32.016 269.693 31.0048 269.783 30.416C269.527 30.1856 269.303 29.9104 269.111 29.5904C268.932 29.2576 268.842 28.9376 268.842 28.6304C268.842 28.272 268.925 27.9776 269.092 27.7472C269.271 27.5168 269.565 27.4016 269.975 27.4016C270.653 27.4016 271.184 27.568 271.568 27.9008C271.965 28.2208 272.164 28.6432 272.164 29.168C272.164 29.8592 271.856 31.3568 271.242 33.6608C270.973 34.6592 270.736 35.4656 270.532 36.08C270.327 36.6816 270.052 37.2064 269.706 37.6544C269.373 38.0896 268.964 38.3136 268.477 38.3264Z" fill="black"/>
<rect x="0.5" y="0.5" width="348" height="62" stroke="black"/>
</svg>
