<svg width="349" height="63" viewBox="0 0 349 63" fill="none" xmlns="http://www.w3.org/2000/svg">
<path d="M106.441 29.2256C106.428 29.0848 106.39 28.976 106.326 28.8992C106.262 28.8096 106.147 28.7648 105.98 28.7648C105.43 28.9952 104.867 29.4688 104.291 30.1856C103.727 30.9024 103.209 31.6768 102.735 32.5088C102.275 33.3408 101.705 34.416 101.027 35.7344C100.527 36.7584 100.131 37.5136 99.8362 38C99.8106 38.0896 99.721 38.1856 99.5674 38.288C99.4266 38.4032 99.3114 38.4608 99.2218 38.4608C98.8634 38.4608 98.5178 38.3712 98.185 38.192C97.8522 38.0128 97.673 37.7248 97.6474 37.328C98.633 34.8448 99.2346 32.4064 99.4522 30.0128C99.1706 29.8336 98.9402 29.5968 98.761 29.3024C98.5818 28.9952 98.4474 28.6944 98.3578 28.4C98.3706 28.1184 98.5498 27.8944 98.8954 27.728C99.2538 27.5488 99.6378 27.4592 100.047 27.4592C100.623 27.4592 101.014 27.6704 101.219 28.0928C101.423 28.5024 101.526 29.1552 101.526 30.0512C101.526 30.4992 101.411 31.2224 101.18 32.2208C101.436 31.632 101.82 30.9536 102.332 30.1856C102.844 29.4176 103.465 28.7264 104.195 28.112C104.924 27.4976 105.686 27.1904 106.479 27.1904C106.966 27.1904 107.343 27.2992 107.612 27.5168C107.894 27.7216 108.092 27.9776 108.207 28.2848C108.335 28.592 108.457 29.008 108.572 29.5328C108.457 29.648 108.246 30.1472 107.939 31.0304C107.644 31.9008 107.375 32.8544 107.132 33.8912C106.889 34.928 106.767 35.7792 106.767 36.4448C106.767 36.7776 106.806 37.0528 106.883 37.2704C106.755 37.6288 106.55 37.8976 106.268 38.0768C105.987 38.2688 105.667 38.3648 105.308 38.3648C105.091 38.3648 104.899 38.2624 104.732 38.0576C104.566 37.8528 104.451 37.6288 104.387 37.3856C104.399 36.592 104.591 35.5104 104.963 34.1408C105.334 32.7712 105.827 31.1328 106.441 29.2256ZM107.212 26.3264C106.636 26.3264 106.182 26.1472 105.849 25.7888C105.503 25.4176 105.331 24.9568 105.331 24.4064C105.331 23.7152 105.599 23.1584 106.137 22.736C106.662 22.3008 107.334 22.0832 108.153 22.0832C108.652 22.0832 109.087 22.2752 109.459 22.6592C109.843 23.0432 110.035 23.5296 110.035 24.1184C110.035 24.5152 109.9 24.8864 109.631 25.232C109.375 25.5648 109.03 25.8336 108.595 26.0384C108.159 26.2304 107.699 26.3264 107.212 26.3264ZM107.462 25.2704C107.782 25.2704 108.057 25.1616 108.287 24.944C108.518 24.7264 108.633 24.4192 108.633 24.0224C108.633 23.792 108.563 23.6064 108.422 23.4656C108.281 23.3248 108.108 23.2544 107.903 23.2544C107.507 23.2544 107.199 23.3568 106.982 23.5616C106.764 23.7664 106.655 24.08 106.655 24.5024C106.655 24.7328 106.745 24.9184 106.924 25.0592C107.091 25.2 107.27 25.2704 107.462 25.2704ZM117.35 30.4928C117.222 31.3248 116.921 32.6752 116.447 34.544C116.396 34.736 116.281 35.1712 116.102 35.8496C115.935 36.528 115.814 37.104 115.737 37.5776C115.583 37.8848 115.385 38.1216 115.142 38.288C114.899 38.4544 114.515 38.5376 113.99 38.5376C113.58 38.5376 113.375 38.3392 113.375 37.9424C113.375 37.8656 113.388 37.7504 113.414 37.5968L113.759 36.1184C113.887 35.5808 114.003 35.1008 114.105 34.6784C114.22 34.2432 114.316 33.8656 114.393 33.5456C114.79 31.9456 115.052 30.8448 115.18 30.2432C115.193 30.192 115.199 30.128 115.199 30.0512C115.199 29.6928 115.027 29.4048 114.681 29.1872C114.348 28.9568 113.996 28.8416 113.625 28.8416C112.844 28.8416 112.262 29.072 111.878 29.5328C111.507 29.9808 111.302 30.576 111.263 31.3184C110.764 31.2672 110.348 31.152 110.015 30.9728C109.695 30.7936 109.535 30.5568 109.535 30.2624C109.535 29.3536 109.9 28.6176 110.63 28.0544C111.372 27.4784 112.422 27.1904 113.779 27.1904C114.611 27.1904 115.295 27.3568 115.833 27.6896C116.371 28.0096 116.761 28.4064 117.004 28.88C117.247 29.3408 117.369 29.7888 117.369 30.224C117.369 30.352 117.363 30.4416 117.35 30.4928ZM121.063 28.208C121.127 27.9392 121.216 27.7344 121.331 27.5936C121.459 27.44 121.645 27.3632 121.888 27.3632C122.17 27.3632 122.477 27.4208 122.81 27.536C123.143 27.6384 123.309 27.76 123.309 27.9008L122.522 30.8384C121.741 33.8208 121.312 35.4848 121.235 35.8304C121.21 35.9328 121.197 36.0544 121.197 36.1952C121.197 36.3232 121.216 36.4064 121.255 36.4448C121.293 36.4704 121.338 36.4832 121.389 36.4832C121.555 36.4832 121.735 36.4 121.927 36.2336C122.119 36.0672 122.266 35.8816 122.368 35.6768C122.714 35.792 122.944 35.952 123.059 36.1568C123.175 36.3616 123.232 36.592 123.232 36.848C123.232 37.296 122.957 37.6608 122.407 37.9424C121.856 38.2112 121.229 38.3456 120.525 38.3456C120.141 38.3456 119.795 38.1664 119.488 37.808C119.194 37.4368 119.047 36.9952 119.047 36.4832C119.047 36.1504 119.559 34.0192 120.583 30.0896L121.063 28.208ZM124.398 37.0784C124.398 36.8992 124.494 36.6304 124.686 36.272C125.083 35.4912 125.429 34.6528 125.723 33.7568C126.03 32.848 126.273 31.6 126.453 30.0128C126.171 29.8336 125.934 29.5968 125.742 29.3024C125.563 28.9952 125.429 28.6944 125.339 28.4C125.352 28.1184 125.531 27.8944 125.877 27.728C126.235 27.5488 126.619 27.4592 127.029 27.4592C127.617 27.4592 128.027 27.6576 128.257 28.0544C128.501 28.4384 128.622 29.0592 128.622 29.9168C128.622 30.3776 128.526 31.0368 128.334 31.8944C128.142 32.752 127.899 33.6032 127.605 34.448C127.31 35.2928 127.003 35.9456 126.683 36.4064C127.438 36.1632 128.36 36.0416 129.448 36.0416L130.331 36.0608C130.715 36.0864 131.022 36.0992 131.253 36.0992C131.342 36.0992 131.419 36.048 131.483 35.9456C131.56 35.8432 131.611 35.728 131.637 35.6C131.777 34.7296 132.053 33.5264 132.462 31.9904C132.872 30.4544 133.307 29.008 133.768 27.6512C134.241 26.2816 134.638 25.3664 134.958 24.9056C135.278 24.4448 135.598 24.2144 135.918 24.2144C136.213 24.2144 136.469 24.2784 136.686 24.4064C136.917 24.5216 137.057 24.6944 137.109 24.9248C136.584 25.7056 136.117 26.7488 135.707 28.0544C135.31 29.36 134.881 30.9856 134.421 32.9312C134.357 33.2 134.229 33.7184 134.037 34.4864C133.845 35.2416 133.672 35.8624 133.518 36.3488C133.339 36.9504 133.147 37.3856 132.942 37.6544C132.737 37.9104 132.417 38.0384 131.982 38.0384C131.701 38.0384 131.438 38.0192 131.195 37.9808C130.965 37.9424 130.817 37.9168 130.753 37.904C130.267 37.7888 129.749 37.7312 129.198 37.7312C128.865 37.7312 128.392 37.8016 127.777 37.9424C127.035 38.096 126.472 38.1728 126.088 38.1728C125.499 38.1728 125.07 38.0832 124.801 37.904C124.533 37.7248 124.398 37.4496 124.398 37.0784ZM132.842 24.3872C132.842 24.7072 132.727 24.944 132.496 25.0976L131.133 26.2112C131.005 26.288 130.896 26.3264 130.807 26.3264C130.615 26.3264 130.276 26.16 129.789 25.8272C129.61 25.712 129.437 25.6096 129.271 25.52C129.092 25.4176 128.944 25.3664 128.829 25.3664C128.65 25.3664 128.477 25.4112 128.311 25.5008C128.144 25.5776 127.946 25.6928 127.716 25.8464C127.472 26 127.274 26.1152 127.12 26.192C126.954 26.2688 126.788 26.3072 126.621 26.3072C126.327 26.3072 126.071 26.2432 125.853 26.1152C125.623 25.9744 125.444 25.808 125.316 25.616C125.188 25.4112 125.124 25.2256 125.124 25.0592C125.124 24.24 125.655 23.5168 126.717 22.8896C127.767 22.2496 129.028 21.7632 130.5 21.4304C131.972 21.0848 133.277 20.9056 134.416 20.8928C134.711 20.8928 134.973 20.9568 135.204 21.0848C135.447 21.2128 135.568 21.3536 135.568 21.5072C135.568 21.7504 135.472 21.936 135.28 22.064C135.088 22.192 134.871 22.256 134.628 22.256C133.808 22.2688 132.823 22.4032 131.671 22.6592C130.519 22.9024 129.508 23.216 128.637 23.6C127.754 23.984 127.261 24.368 127.159 24.752C127.581 24.4576 127.933 24.272 128.215 24.1952C128.484 24.1056 128.74 24.0608 128.983 24.0608C129.29 24.0608 129.591 24.1312 129.885 24.272C130.167 24.4 130.416 24.5984 130.634 24.8672L131.479 24.1184C131.556 24.0544 131.671 24.0096 131.824 23.984C131.965 23.9584 132.093 23.9456 132.208 23.9456C132.349 23.9456 132.49 23.9904 132.631 24.08C132.759 24.1568 132.829 24.2592 132.842 24.3872ZM142.656 35.8688C142.195 36.0224 141.383 36.4128 140.218 37.04C139.501 37.4368 138.912 37.744 138.451 37.9616C137.991 38.1792 137.626 38.288 137.357 38.288C136.653 38.288 136.301 37.9232 136.301 37.1936C136.301 37.0656 136.339 36.8992 136.416 36.6944C136.493 36.4768 136.563 36.2912 136.627 36.1376C136.704 35.984 136.755 35.8752 136.781 35.8112C137.191 34.9408 137.53 34.064 137.799 33.1808C138.08 32.2976 138.266 31.2416 138.355 30.0128C138.074 29.8336 137.843 29.5968 137.664 29.3024C137.485 28.9952 137.351 28.6944 137.261 28.4C137.274 28.1184 137.453 27.8944 137.799 27.728C138.157 27.5488 138.541 27.4592 138.951 27.4592C139.552 27.4592 139.975 27.6576 140.218 28.0544C140.474 28.4512 140.602 29.072 140.602 29.9168C140.602 30.6336 140.455 31.5808 140.16 32.7584C139.866 33.936 139.507 34.928 139.085 35.7344C139.623 35.4272 140.301 35.1072 141.12 34.7744C141.952 34.4416 142.746 34.1984 143.501 34.0448C143.821 32.624 144.103 31.4656 144.346 30.5696C144.589 29.6608 144.871 28.88 145.191 28.2272C145.511 27.5744 145.863 27.248 146.247 27.248C146.912 27.248 147.271 27.5296 147.322 28.0928C147.207 28.208 147.027 28.688 146.784 29.5328C146.554 30.3648 146.33 31.2672 146.112 32.24C145.895 33.2128 145.767 33.8592 145.728 34.1792C146.023 34.2688 146.24 34.4544 146.381 34.736C146.535 35.0048 146.611 35.3248 146.611 35.696C146.611 36.0672 146.528 36.4512 146.362 36.848C146.195 37.2448 145.939 37.5776 145.594 37.8464C145.261 38.1152 144.839 38.2496 144.327 38.2496C143.891 38.2496 143.501 38.0768 143.155 37.7312C142.81 37.3856 142.637 36.9312 142.637 36.368C142.637 36.1632 142.643 35.9968 142.656 35.8688ZM148.605 37.0784C148.605 36.8992 148.701 36.6304 148.893 36.272C149.289 35.4912 149.635 34.6528 149.929 33.7568C150.237 32.848 150.48 31.6 150.659 30.0128C150.377 29.8336 150.141 29.5968 149.949 29.3024C149.769 28.9952 149.635 28.6944 149.545 28.4C149.558 28.1184 149.737 27.8944 150.083 27.728C150.441 27.5488 150.825 27.4592 151.235 27.4592C151.824 27.4592 152.233 27.6576 152.464 28.0544C152.707 28.4384 152.829 29.0592 152.829 29.9168C152.829 30.3776 152.733 31.0368 152.541 31.8944C152.349 32.752 152.105 33.6032 151.811 34.448C151.517 35.2928 151.209 35.9456 150.889 36.4064C151.645 36.1632 152.566 36.0416 153.654 36.0416L154.537 36.0608C154.921 36.0864 155.229 36.0992 155.459 36.0992C155.549 36.0992 155.625 36.048 155.689 35.9456C155.766 35.8432 155.817 35.728 155.843 35.6C155.984 34.7296 156.259 33.5264 156.669 31.9904C157.078 30.4544 157.513 29.008 157.974 27.6512C158.448 26.2816 158.845 25.3664 159.165 24.9056C159.485 24.4448 159.805 24.2144 160.125 24.2144C160.419 24.2144 160.675 24.2784 160.893 24.4064C161.123 24.5216 161.264 24.6944 161.315 24.9248C160.79 25.7056 160.323 26.7488 159.913 28.0544C159.517 29.36 159.088 30.9856 158.627 32.9312C158.563 33.2 158.435 33.7184 158.243 34.4864C158.051 35.2416 157.878 35.8624 157.725 36.3488C157.545 36.9504 157.353 37.3856 157.149 37.6544C156.944 37.9104 156.624 38.0384 156.189 38.0384C155.907 38.0384 155.645 38.0192 155.401 37.9808C155.171 37.9424 155.024 37.9168 154.96 37.904C154.473 37.7888 153.955 37.7312 153.405 37.7312C153.072 37.7312 152.598 37.8016 151.984 37.9424C151.241 38.096 150.678 38.1728 150.294 38.1728C149.705 38.1728 149.277 38.0832 149.008 37.904C148.739 37.7248 148.605 37.4496 148.605 37.0784ZM162.907 36.5408C163.24 36.5408 163.515 36.3616 163.733 36.0032C163.963 35.6448 164.13 35.2288 164.232 34.7552C164.347 34.2688 164.405 33.8656 164.405 33.5456C164.405 32.8928 164.219 32.3616 163.848 31.952C163.49 31.5296 163.003 31.1136 162.389 30.704C162.082 30.512 161.858 30.3584 161.717 30.2432C161.589 30.1152 161.525 29.9872 161.525 29.8592C161.525 29.5264 161.666 29.2448 161.947 29.0144C162.242 28.7712 162.619 28.5472 163.08 28.3424C163.579 28.1376 164.315 27.9008 165.288 27.632C166.261 27.3632 167.093 27.2288 167.784 27.2288C168.258 27.2288 168.635 27.3056 168.917 27.4592C169.198 27.6128 169.339 27.8176 169.339 28.0736C169.339 28.2656 169.282 28.4064 169.166 28.496C169.051 28.5856 168.872 28.6624 168.629 28.7264L168.168 28.8416C167.426 29.008 166.754 29.1808 166.152 29.36C165.563 29.5392 165.006 29.7696 164.482 30.0512C165.224 30.576 165.762 31.1456 166.094 31.76C166.427 32.3744 166.594 32.9824 166.594 33.584C166.594 34.1856 166.427 34.8576 166.094 35.6C165.774 36.3424 165.314 36.976 164.712 37.5008C164.123 38.0256 163.438 38.288 162.658 38.288C162.12 38.288 161.646 38.1152 161.237 37.7696C160.84 37.424 160.642 36.9184 160.642 36.2528C160.642 35.7664 160.77 35.3824 161.026 35.1008C161.294 34.8064 161.614 34.6592 161.986 34.6592C162.254 34.6592 162.478 34.7232 162.658 34.8512C162.85 34.9792 162.946 35.1264 162.946 35.2928C162.92 35.3056 162.875 35.344 162.811 35.408C162.747 35.472 162.683 35.5552 162.619 35.6576C162.568 35.76 162.542 35.8752 162.542 36.0032C162.542 36.1696 162.581 36.304 162.658 36.4064C162.734 36.496 162.818 36.5408 162.907 36.5408ZM169.71 31.0112C169.71 30.6912 169.767 30.3328 169.882 29.936C170.01 29.5264 170.17 29.1808 170.362 28.8992C170.567 28.6176 170.778 28.4768 170.996 28.4768C171.444 28.4768 171.777 28.5408 171.994 28.6688C172.225 28.7968 172.34 29.0208 172.34 29.3408C172.34 29.456 172.231 29.6608 172.014 29.9552C171.809 30.2112 171.662 30.4352 171.572 30.6272C172.122 30.2304 172.826 29.8592 173.684 29.5136C174.554 29.1552 175.246 28.976 175.758 28.976C176.09 28.976 176.366 29.0528 176.583 29.2064C176.814 29.36 176.929 29.6096 176.929 29.9552C176.929 30.0704 176.878 30.1856 176.775 30.3008C176.673 30.416 176.57 30.4736 176.468 30.4736C176.071 30.4736 175.63 30.5696 175.143 30.7616C174.67 30.9536 174.087 31.2288 173.396 31.5872C172.807 31.8944 172.327 32.1248 171.956 32.2784C171.598 32.432 171.284 32.5088 171.015 32.5088C170.887 32.5088 170.714 32.4192 170.497 32.24C170.292 32.048 170.106 31.8368 169.94 31.6064C169.786 31.3632 169.71 31.1648 169.71 31.0112ZM168.654 36.2912C168.654 35.9712 168.737 35.5872 168.903 35.1392C169.057 34.6784 169.249 34.2816 169.479 33.9488C169.71 33.616 169.934 33.4496 170.151 33.4496C170.599 33.4496 170.932 33.52 171.15 33.6608C171.38 33.7888 171.495 34.0128 171.495 34.3328C171.495 34.4096 171.45 34.5184 171.361 34.6592C171.271 34.8 171.169 34.9408 171.054 35.0816C170.785 35.4272 170.606 35.696 170.516 35.888C171.105 35.4656 171.828 35.0624 172.686 34.6784C173.543 34.2944 174.215 34.1024 174.702 34.1024C175.034 34.1024 175.31 34.1792 175.527 34.3328C175.758 34.4864 175.873 34.7424 175.873 35.1008C175.873 35.216 175.822 35.3312 175.719 35.4464C175.617 35.5488 175.514 35.6 175.412 35.6C175.015 35.6 174.58 35.7024 174.106 35.9072C173.646 36.112 173.057 36.4128 172.34 36.8096C171.713 37.1552 171.226 37.4048 170.881 37.5584C170.535 37.712 170.228 37.7888 169.959 37.7888C169.831 37.7888 169.658 37.6992 169.441 37.52C169.236 37.328 169.057 37.1168 168.903 36.8864C168.737 36.6432 168.654 36.4448 168.654 36.2912ZM187.314 30.4928C187.314 31.1968 187.032 32.1888 186.469 33.4688C185.918 34.7488 185.266 35.8816 184.51 36.8672C183.755 37.8528 183.083 38.3456 182.494 38.3456C182.11 38.3456 181.816 38.256 181.611 38.0768C181.406 37.8976 181.259 37.6672 181.17 37.3856C181.093 37.104 181.003 36.6816 180.901 36.1184C180.811 35.568 180.702 35.0624 180.574 34.6016C180.459 34.128 180.286 33.648 180.056 33.1616C179.864 33.1616 179.71 33.104 179.595 32.9888C179.493 32.8736 179.416 32.752 179.365 32.624C179.326 32.496 179.307 32.4128 179.307 32.3744C179.307 32.2848 179.384 32.176 179.538 32.048C179.691 31.9072 179.896 31.792 180.152 31.7024C180.421 31.6 180.715 31.5488 181.035 31.5488C181.611 31.5488 182.014 31.9968 182.245 32.8928C182.475 33.7888 182.635 34.8704 182.725 36.1376C183.39 35.2288 183.966 34.2368 184.453 33.1616C184.939 32.0864 185.182 31.1136 185.182 30.2432C185.182 29.7568 185.035 29.4048 184.741 29.1872C184.459 28.9568 183.992 28.8416 183.339 28.8416C182.661 28.8416 182.014 28.944 181.4 29.1488C180.786 29.3536 180.28 29.648 179.883 30.032C179.486 30.416 179.275 30.864 179.25 31.376C178.75 31.3248 178.334 31.2096 178.002 31.0304C177.682 30.8512 177.522 30.6144 177.522 30.32C177.522 29.7568 177.79 29.2384 178.328 28.7648C178.878 28.2784 179.608 27.8944 180.517 27.6128C181.426 27.3312 182.392 27.1904 183.416 27.1904C184.094 27.1904 184.728 27.3184 185.317 27.5744C185.918 27.8176 186.398 28.1888 186.757 28.688C187.128 29.1744 187.314 29.776 187.314 30.4928ZM186.3 26.3264C185.724 26.3264 185.269 26.1472 184.936 25.7888C184.591 25.4176 184.418 24.9568 184.418 24.4064C184.418 23.7152 184.687 23.1584 185.224 22.736C185.749 22.3008 186.421 22.0832 187.24 22.0832C187.74 22.0832 188.175 22.2752 188.546 22.6592C188.93 23.0432 189.122 23.5296 189.122 24.1184C189.122 24.5152 188.988 24.8864 188.719 25.232C188.463 25.5648 188.117 25.8336 187.682 26.0384C187.247 26.2304 186.786 26.3264 186.3 26.3264ZM186.549 25.2704C186.869 25.2704 187.144 25.1616 187.375 24.944C187.605 24.7264 187.72 24.4192 187.72 24.0224C187.72 23.792 187.65 23.6064 187.509 23.4656C187.368 23.3248 187.196 23.2544 186.991 23.2544C186.594 23.2544 186.287 23.3568 186.069 23.5616C185.852 23.7664 185.743 24.08 185.743 24.5024C185.743 24.7328 185.832 24.9184 186.012 25.0592C186.178 25.2 186.357 25.2704 186.549 25.2704ZM196.437 30.4928C196.309 31.3248 196.008 32.6752 195.535 34.544C195.484 34.736 195.368 35.1712 195.189 35.8496C195.023 36.528 194.901 37.104 194.824 37.5776C194.671 37.8848 194.472 38.1216 194.229 38.288C193.986 38.4544 193.602 38.5376 193.077 38.5376C192.668 38.5376 192.463 38.3392 192.463 37.9424C192.463 37.8656 192.476 37.7504 192.501 37.5968L192.847 36.1184C192.975 35.5808 193.09 35.1008 193.192 34.6784C193.308 34.2432 193.404 33.8656 193.48 33.5456C193.877 31.9456 194.14 30.8448 194.268 30.2432C194.28 30.192 194.287 30.128 194.287 30.0512C194.287 29.6928 194.114 29.4048 193.768 29.1872C193.436 28.9568 193.084 28.8416 192.712 28.8416C191.932 28.8416 191.349 29.072 190.965 29.5328C190.594 29.9808 190.389 30.576 190.351 31.3184C189.852 31.2672 189.436 31.152 189.103 30.9728C188.783 30.7936 188.623 30.5568 188.623 30.2624C188.623 29.3536 188.988 28.6176 189.717 28.0544C190.46 27.4784 191.509 27.1904 192.866 27.1904C193.698 27.1904 194.383 27.3568 194.92 27.6896C195.458 28.0096 195.848 28.4064 196.092 28.88C196.335 29.3408 196.456 29.7888 196.456 30.224C196.456 30.352 196.45 30.4416 196.437 30.4928ZM198.844 32.8544C197.756 32.8544 197.212 32.5088 197.212 31.8176C197.212 30.9216 197.532 30.1216 198.172 29.4176C198.825 28.7136 199.715 28.1696 200.841 27.7856C201.968 27.3888 203.222 27.1904 204.604 27.1904C205.347 27.1904 206.025 27.3632 206.64 27.7088C207.267 28.0544 207.76 28.5152 208.118 29.0912C208.489 29.6672 208.675 30.2816 208.675 30.9344C208.675 31.9456 208.425 33.0272 207.926 34.1792C207.44 35.3312 206.761 36.304 205.891 37.0976C205.02 37.8784 204.035 38.2688 202.934 38.2688C202.179 38.2688 201.545 38.096 201.033 37.7504C200.534 37.4048 200.163 36.9504 199.92 36.3872C199.676 35.824 199.555 35.2224 199.555 34.5824C199.555 33.9296 199.683 33.3024 199.939 32.7008C200.195 32.0864 200.566 31.5872 201.052 31.2032C201.552 30.8192 202.14 30.6272 202.819 30.6272C202.985 30.6272 203.177 30.6784 203.395 30.7808C203.612 30.8832 203.798 31.0176 203.952 31.184C204.105 31.3504 204.182 31.5232 204.182 31.7024C204.182 31.8944 204.092 32.0928 203.913 32.2976C203.734 32.4896 203.504 32.6496 203.222 32.7776C202.953 32.9056 202.684 32.9696 202.416 32.9696C202.236 32.9696 202.051 33.136 201.859 33.4688C201.68 33.8016 201.59 34.1536 201.59 34.5248C201.59 34.9728 201.699 35.4144 201.916 35.8496C202.134 36.272 202.39 36.4832 202.684 36.4832C203.516 36.4832 204.208 36.1248 204.758 35.408C205.321 34.6912 205.737 33.8912 206.006 33.008C206.288 32.1248 206.428 31.4784 206.428 31.0688C206.428 30.5312 206.288 30.0256 206.006 29.552C205.737 29.0784 205.2 28.8416 204.393 28.8416C203.472 28.8416 202.608 28.9952 201.801 29.3024C201.008 29.5968 200.342 30.0448 199.804 30.6464C199.28 31.248 198.96 31.984 198.844 32.8544ZM217.091 30.9152L217.725 28.3616C217.814 28.0288 217.962 27.76 218.166 27.5552C218.371 27.3504 218.576 27.248 218.781 27.248C219.126 27.248 219.408 27.3184 219.626 27.4592C219.856 27.6 219.984 27.8112 220.01 28.0928C219.958 28.2976 219.696 29.36 219.222 31.28C218.736 33.2256 218.397 34.5504 218.205 35.2544C218.051 35.8176 217.738 36.3296 217.264 36.7904C216.803 37.2512 216.227 37.616 215.536 37.8848C214.845 38.1536 214.102 38.288 213.309 38.288C212.464 38.288 211.734 38.1408 211.12 37.8464C210.506 37.5392 210.032 37.136 209.699 36.6368C209.379 36.1248 209.219 35.568 209.219 34.9664C209.219 34.3008 209.475 33.7056 209.987 33.1808C210.499 32.656 211.242 32.2336 212.214 31.9136C211.779 31.7088 211.389 31.4144 211.043 31.0304C210.71 30.6336 210.544 30.2112 210.544 29.7632C210.544 29.0464 210.762 28.4384 211.197 27.9392C211.632 27.4272 212.182 27.1712 212.848 27.1712C213.258 27.1712 213.642 27.2608 214 27.44C214.358 27.6064 214.538 27.8304 214.538 28.112C214.538 28.304 214.442 28.4768 214.25 28.6304C214.07 28.7712 213.802 28.9376 213.443 29.1296C213.136 29.3088 212.906 29.456 212.752 29.5712C212.598 29.6864 212.522 29.8144 212.522 29.9552C212.522 30.2112 212.611 30.4224 212.79 30.5888C212.97 30.7424 213.245 30.9152 213.616 31.1072C213.923 31.2736 214.154 31.4208 214.307 31.5488C214.474 31.6768 214.557 31.8304 214.557 32.0096C214.557 32.1248 214.486 32.2336 214.346 32.336C214.205 32.4256 213.955 32.5664 213.597 32.7584C212.931 33.1168 212.406 33.4688 212.022 33.8144C211.638 34.1472 211.446 34.576 211.446 35.1008C211.446 35.5488 211.638 35.92 212.022 36.2144C212.406 36.5088 212.944 36.656 213.635 36.656C214.173 36.656 214.685 36.4896 215.171 36.1568C215.67 35.824 215.997 35.3312 216.15 34.6784L217.091 30.9152ZM211.046 41.4752C210.687 41.232 210.412 40.8352 210.22 40.2848C210.233 40.0416 210.38 39.8304 210.662 39.6512C210.93 39.472 211.218 39.3824 211.526 39.3824C211.974 39.3824 212.274 39.4912 212.428 39.7088C212.582 39.9264 212.671 40.2976 212.697 40.8224L212.812 43.472C213.119 42.896 213.51 42.288 213.983 41.648C214.457 41.0208 214.905 40.4896 215.327 40.0544C215.75 39.632 216.044 39.4208 216.21 39.4208C216.518 39.4208 216.78 39.4848 216.998 39.6128C217.215 39.7536 217.324 39.9136 217.324 40.0928L217.305 40.1504L214.31 44.2784C214.066 44.6112 213.798 44.8288 213.503 44.9312C213.209 45.0336 212.876 45.0848 212.505 45.0848C212.121 45.0848 211.826 44.9568 211.622 44.7008C211.417 44.4448 211.302 44.1888 211.276 43.9328L211.046 41.4752ZM221.068 21.8528C220.991 22.1344 220.889 22.4352 220.761 22.7552C220.646 23.0624 220.562 23.2736 220.511 23.3888C220.268 23.952 220.076 24.4768 219.935 24.9632C219.922 25.0016 219.897 25.1104 219.858 25.2896C219.82 25.456 219.724 25.6032 219.57 25.7312C219.417 25.8464 219.199 25.904 218.918 25.904C218.559 25.904 218.38 25.52 218.38 24.752C218.38 24.4448 218.444 23.9584 218.572 23.2928C218.7 22.6272 218.879 22.032 219.11 21.5072C219.34 20.9696 219.615 20.7008 219.935 20.7008C220.217 20.7008 220.486 20.784 220.742 20.9504C220.998 21.104 221.138 21.296 221.164 21.5264C221.164 21.5776 221.151 21.6352 221.126 21.6992C221.1 21.7504 221.081 21.8016 221.068 21.8528ZM222.969 28.208C223.033 27.9392 223.122 27.7344 223.238 27.5936C223.366 27.44 223.551 27.3632 223.794 27.3632C224.076 27.3632 224.383 27.4208 224.716 27.536C225.049 27.6384 225.215 27.76 225.215 27.9008L224.428 30.8384C223.647 33.8208 223.218 35.4848 223.142 35.8304C223.116 35.9328 223.103 36.0544 223.103 36.1952C223.103 36.3232 223.122 36.4064 223.161 36.4448C223.199 36.4704 223.244 36.4832 223.295 36.4832C223.462 36.4832 223.641 36.4 223.833 36.2336C224.025 36.0672 224.172 35.8816 224.274 35.6768C224.62 35.792 224.85 35.952 224.966 36.1568C225.081 36.3616 225.138 36.592 225.138 36.848C225.138 37.296 224.863 37.6608 224.313 37.9424C223.762 38.2112 223.135 38.3456 222.431 38.3456C222.047 38.3456 221.702 38.1664 221.394 37.808C221.1 37.4368 220.953 36.9952 220.953 36.4832C220.953 36.1504 221.465 34.0192 222.489 30.0896L222.969 28.208ZM227.826 29.0912C227.916 28.7584 228.044 28.4448 228.21 28.1504C228.377 27.8432 228.575 27.6896 228.806 27.6896C229.087 27.6896 229.388 27.7472 229.708 27.8624C230.028 27.9648 230.188 28.0864 230.188 28.2272L229.401 31.088C228.646 33.8272 228.198 35.5296 228.057 36.1952C228.031 36.2976 228.018 36.4192 228.018 36.56C228.018 36.688 228.038 36.7712 228.076 36.8096C228.114 36.8352 228.159 36.848 228.21 36.848C228.377 36.848 228.556 36.7648 228.748 36.5984C228.94 36.432 229.087 36.2464 229.19 36.0416C229.535 36.1568 229.753 36.3168 229.842 36.5216C229.945 36.7136 229.996 36.944 229.996 37.2128C229.996 37.6608 229.721 38.0192 229.17 38.288C228.62 38.5696 227.993 38.7104 227.289 38.7104C226.93 38.7104 226.591 38.576 226.271 38.3072C225.951 38.0512 225.791 37.7312 225.791 37.3472C225.791 37.2832 225.804 37.1744 225.83 37.0208L227.826 29.0912ZM240.027 37.4624C239.912 37.7056 239.733 37.8976 239.49 38.0384C239.259 38.1792 238.99 38.2496 238.683 38.2496C238.235 38.2496 237.954 38.1408 237.838 37.9232C237.723 37.7056 237.666 37.392 237.666 36.9824C237.96 36.5344 238.107 36.048 238.107 35.5232C238.107 34.832 237.966 34.2432 237.685 33.7568C237.403 33.2576 236.949 33.008 236.322 33.008C235.874 33.008 235.432 33.2256 234.997 33.6608C234.562 34.0832 234.203 34.5952 233.922 35.1968C233.64 35.7856 233.499 36.304 233.499 36.752C233.499 37.0208 233.557 37.2448 233.672 37.424C233.557 37.7184 233.371 37.936 233.115 38.0768C232.859 38.2176 232.61 38.288 232.366 38.288C232.034 38.288 231.771 38.1728 231.579 37.9424C231.4 37.712 231.31 37.36 231.31 36.8864C231.31 35.888 231.554 34.96 232.04 34.1024C232.539 33.2448 233.192 32.5664 233.998 32.0672C234.805 31.5552 235.656 31.2992 236.552 31.2992C237.128 31.2992 237.659 31.4592 238.146 31.7792C238.632 32.0992 238.971 32.624 239.163 33.3536C239.278 32.8928 239.381 32.3488 239.47 31.7216C239.573 31.0816 239.624 30.6208 239.624 30.3392C239.624 29.8528 239.477 29.4816 239.182 29.2256C238.901 28.9696 238.434 28.8416 237.781 28.8416C237.102 28.8416 236.456 28.944 235.842 29.1488C235.227 29.3536 234.722 29.648 234.325 30.032C233.928 30.416 233.717 30.864 233.691 31.376C233.192 31.3248 232.776 31.2096 232.443 31.0304C232.123 30.8512 231.963 30.6144 231.963 30.32C231.963 29.7568 232.232 29.2384 232.77 28.7648C233.32 28.2784 234.05 27.8944 234.958 27.6128C235.867 27.3312 236.834 27.1904 237.858 27.1904C238.536 27.1904 239.17 27.3184 239.758 27.5744C240.36 27.8176 240.84 28.1888 241.198 28.688C241.57 29.1744 241.755 29.776 241.755 30.4928C241.755 31.0944 241.544 32.2528 241.122 33.968C240.699 35.6704 240.334 36.8352 240.027 37.4624ZM237.813 23.0816C237.813 22.9408 237.742 22.8704 237.601 22.8704C237.486 22.8704 237.358 22.9216 237.217 23.024C237.064 23.1136 236.974 23.1648 236.949 23.1776C236.769 23.3056 236.654 23.3696 236.603 23.3696C236.475 23.3696 236.353 23.2608 236.238 23.0432C236.11 22.8128 236.046 22.6016 236.046 22.4096C236.046 22.2432 236.161 22.064 236.392 21.872C236.622 21.68 236.904 21.52 237.237 21.392C237.557 21.264 237.851 21.2 238.12 21.2C238.606 21.2 238.99 21.2768 239.272 21.4304C239.541 21.5712 239.675 21.8592 239.675 22.2944C239.675 22.4224 239.649 22.6208 239.598 22.8896C239.547 23.1456 239.477 23.3632 239.387 23.5424C240.104 23.1328 240.872 22.7488 241.691 22.3904C242.51 22.032 243.144 21.8528 243.592 21.8528C243.937 21.8528 244.225 21.9232 244.456 22.064C244.686 22.192 244.801 22.4096 244.801 22.7168C244.801 22.8192 244.744 22.9216 244.629 23.024C244.526 23.1264 244.417 23.1776 244.302 23.1776C244.008 23.1776 243.432 23.3376 242.574 23.6576C241.717 23.9776 240.865 24.3552 240.021 24.7904C239.176 25.2128 238.606 25.5648 238.312 25.8464C238.184 25.9744 238.075 26.0384 237.985 26.0384C237.781 26.0384 237.582 25.9296 237.39 25.712C237.185 25.4944 237.083 25.2832 237.083 25.0784C237.083 24.912 237.121 24.7456 237.198 24.5792C237.262 24.4 237.365 24.1696 237.505 23.888C237.531 23.8368 237.589 23.7216 237.678 23.5424C237.768 23.3504 237.813 23.1968 237.813 23.0816ZM251.329 30.5696C251.329 31.5552 251.144 32.656 250.773 33.872C250.414 35.088 249.857 36.1376 249.102 37.0208C248.36 37.8912 247.451 38.3264 246.376 38.3264C245.723 38.3264 245.205 38.1856 244.821 37.904C244.437 37.6096 244.245 37.2192 244.245 36.7328C244.245 36.3488 244.379 36.0352 244.648 35.792C244.929 35.536 245.269 35.4016 245.665 35.3888C245.678 35.9264 245.774 36.2848 245.953 36.464C246.133 36.6304 246.357 36.7136 246.625 36.7136C246.971 36.7136 247.349 36.3552 247.758 35.6384C248.181 34.9088 248.539 34.0576 248.833 33.0848C249.128 32.0992 249.275 31.2736 249.275 30.608C249.275 30.1088 249.141 29.6928 248.872 29.36C248.603 29.0144 248.065 28.8416 247.259 28.8416C246.529 28.8416 245.921 29.072 245.435 29.5328C244.961 29.9808 244.699 30.5952 244.648 31.376C244.149 31.376 243.745 31.2608 243.438 31.0304C243.131 30.7872 242.977 30.5056 242.977 30.1856C242.977 29.6096 243.163 29.0976 243.534 28.6496C243.918 28.1888 244.456 27.8304 245.147 27.5744C245.851 27.3184 246.651 27.1904 247.547 27.1904C248.789 27.1904 249.729 27.5104 250.369 28.1504C251.009 28.7904 251.329 29.5968 251.329 30.5696Z" fill="black"/>
<rect x="0.5" y="0.5" width="348" height="62" stroke="black"/>
</svg>
