<svg width="349" height="46" viewBox="0 0 349 46" fill="none" xmlns="http://www.w3.org/2000/svg">
<path d="M147.954 28.8472C147.954 28.7064 147.974 28.572 148.012 28.444L150.201 19.9576C149.83 20.2392 149.407 20.5144 148.934 20.7832C148.473 21.0392 148.172 21.1672 148.031 21.1672C147.852 21.1672 147.647 21.1096 147.417 20.9944C147.199 20.8792 147.007 20.7448 146.841 20.5912C146.687 20.4376 146.61 20.3096 146.61 20.2072C146.61 20.1688 146.617 20.1432 146.63 20.1304C146.758 19.964 147.09 19.6888 147.628 19.3048C148.178 18.908 148.889 18.4216 149.759 17.8456C150.604 17.2824 151.103 16.9432 151.257 16.828C151.372 16.7512 151.5 16.7128 151.641 16.7128C151.935 16.7128 152.21 16.8344 152.466 17.0776C152.735 17.3208 152.87 17.6024 152.87 17.9224C152.87 17.9352 152.876 17.9736 152.889 18.0376C152.914 18.0888 152.927 18.1592 152.927 18.2488C152.927 18.2744 152.914 18.364 152.889 18.5176C152.697 19.58 152.351 21.0968 151.852 23.068C151.366 25.0264 151.09 26.1464 151.026 26.428C150.745 27.5032 150.585 28.1368 150.546 28.3288C150.444 28.7768 150.284 29.1224 150.066 29.3656C149.862 29.6088 149.522 29.7304 149.049 29.7304C148.665 29.7304 148.383 29.6664 148.204 29.5384C148.038 29.4104 147.954 29.18 147.954 28.8472ZM157.895 28.0792C158.56 28.0792 159.162 27.9384 159.699 27.6568C160.237 27.3752 160.659 26.972 160.967 26.4472C161.287 25.9096 161.447 25.2888 161.447 24.5848C161.447 23.5096 160.787 22.972 159.469 22.972C158.855 22.972 158.355 23.0936 157.971 23.3368C157.587 23.5672 157.203 23.8744 156.819 24.2584C156.589 24.5144 156.423 24.6424 156.32 24.6424C155.949 24.6424 155.623 24.5528 155.341 24.3736C155.072 24.1944 154.938 23.9256 154.938 23.5672C154.938 23.4648 154.963 23.3304 155.015 23.164C155.872 20.604 156.301 19.1192 156.301 18.7096C156.301 18.3 156.333 17.9864 156.397 17.7688C156.461 17.5384 156.589 17.3656 156.781 17.2504C156.973 17.1352 157.267 17.0776 157.664 17.0776C157.767 17.0776 157.863 17.084 157.952 17.0968C158.055 17.1096 158.157 17.116 158.259 17.116L162.81 16.732L163.693 16.6552C163.987 16.6552 164.231 16.7384 164.423 16.9048C164.627 17.0712 164.73 17.2888 164.73 17.5576C164.73 17.8648 164.653 18.1208 164.499 18.3256C164.346 18.5304 163.975 18.6648 163.386 18.7288L158.451 19.228C158.464 19.1896 158.375 19.4968 158.183 20.1496C157.901 21.0584 157.735 21.5896 157.683 21.7432C158.515 21.244 159.418 20.9944 160.391 20.9944C161.005 20.9944 161.575 21.1224 162.099 21.3784C162.624 21.6344 163.047 22.0184 163.367 22.5304C163.687 23.0424 163.847 23.6632 163.847 24.3928C163.847 25.5704 163.584 26.5816 163.059 27.4264C162.547 28.2712 161.831 28.9176 160.909 29.3656C159.987 29.8008 158.931 30.0184 157.741 30.0184C157.191 30.0184 156.627 29.916 156.051 29.7112C155.488 29.5064 155.021 29.2248 154.65 28.8664C154.279 28.508 154.093 28.1176 154.093 27.6952C154.093 27.452 154.183 27.2536 154.362 27.1C154.554 26.9464 154.797 26.8696 155.091 26.8696C155.207 26.8696 155.347 26.9144 155.514 27.004C155.693 27.0808 155.936 27.2088 156.243 27.388C156.602 27.6056 156.909 27.7784 157.165 27.9064C157.434 28.0216 157.677 28.0792 157.895 28.0792ZM176.847 27.3688C176.386 27.5224 175.573 27.9128 174.408 28.54C173.692 28.9368 173.103 29.244 172.642 29.4616C172.181 29.6792 171.816 29.788 171.548 29.788C170.844 29.788 170.492 29.4232 170.492 28.6936C170.492 28.5656 170.53 28.3992 170.607 28.1944C170.684 27.9768 170.754 27.7912 170.818 27.6376C170.895 27.484 170.946 27.3752 170.972 27.3112C171.381 26.4408 171.72 25.564 171.989 24.6808C172.271 23.7976 172.456 22.7416 172.546 21.5128C172.264 21.3336 172.034 21.0968 171.855 20.8024C171.676 20.4952 171.541 20.1944 171.452 19.9C171.464 19.6184 171.644 19.3944 171.989 19.228C172.348 19.0488 172.732 18.9592 173.141 18.9592C173.743 18.9592 174.165 19.1576 174.408 19.5544C174.664 19.9512 174.792 20.572 174.792 21.4168C174.792 22.1336 174.645 23.0808 174.351 24.2584C174.056 25.436 173.698 26.428 173.276 27.2344C173.813 26.9272 174.492 26.6072 175.311 26.2744C176.143 25.9416 176.936 25.6984 177.692 25.5448C178.012 24.124 178.293 22.9656 178.536 22.0696C178.78 21.1608 179.061 20.38 179.381 19.7272C179.701 19.0744 180.053 18.748 180.437 18.748C181.103 18.748 181.461 19.0296 181.512 19.5928C181.397 19.708 181.218 20.188 180.975 21.0328C180.744 21.8648 180.52 22.7672 180.303 23.74C180.085 24.7128 179.957 25.3592 179.919 25.6792C180.213 25.7688 180.431 25.9544 180.572 26.236C180.725 26.5048 180.802 26.8248 180.802 27.196C180.802 27.5672 180.719 27.9512 180.552 28.348C180.386 28.7448 180.13 29.0776 179.784 29.3464C179.452 29.6152 179.029 29.7496 178.517 29.7496C178.082 29.7496 177.692 29.5768 177.346 29.2312C177 28.8856 176.828 28.4312 176.828 27.868C176.828 27.6632 176.834 27.4968 176.847 27.3688ZM190.859 21.9928C190.731 22.8248 190.43 24.1752 189.957 26.044C189.906 26.236 189.79 26.6712 189.611 27.3496C189.445 28.028 189.323 28.604 189.246 29.0776C189.093 29.3848 188.894 29.6216 188.651 29.788C188.408 29.9544 188.024 30.0376 187.499 30.0376C187.09 30.0376 186.885 29.8392 186.885 29.4424C186.885 29.3656 186.898 29.2504 186.923 29.0968L187.269 27.6184C187.397 27.0808 187.512 26.6008 187.614 26.1784C187.73 25.7432 187.826 25.3656 187.902 25.0456C188.299 23.4456 188.562 22.3448 188.69 21.7432C188.702 21.692 188.709 21.628 188.709 21.5512C188.709 21.1928 188.536 20.9048 188.19 20.6872C187.858 20.4568 187.506 20.3416 187.134 20.3416C186.354 20.3416 185.771 20.572 185.387 21.0328C185.016 21.4808 184.811 22.076 184.773 22.8184C184.274 22.7672 183.858 22.652 183.525 22.4728C183.205 22.2936 183.045 22.0568 183.045 21.7624C183.045 20.8536 183.41 20.1176 184.139 19.5544C184.882 18.9784 185.931 18.6904 187.288 18.6904C188.12 18.6904 188.805 18.8568 189.342 19.1896C189.88 19.5096 190.27 19.9064 190.514 20.38C190.757 20.8408 190.878 21.2888 190.878 21.724C190.878 21.852 190.872 21.9416 190.859 21.9928ZM201.119 20.7256C201.106 20.5848 201.068 20.476 201.004 20.3992C200.94 20.3096 200.825 20.2648 200.658 20.2648C200.108 20.4952 199.545 20.9688 198.969 21.6856C198.406 22.4024 197.887 23.1768 197.414 24.0088C196.953 24.8408 196.383 25.916 195.705 27.2344C195.206 28.2584 194.809 29.0136 194.514 29.5C194.489 29.5896 194.399 29.6856 194.246 29.788C194.105 29.9032 193.99 29.9608 193.9 29.9608C193.542 29.9608 193.196 29.8712 192.863 29.692C192.53 29.5128 192.351 29.2248 192.326 28.828C193.311 26.3448 193.913 23.9064 194.13 21.5128C193.849 21.3336 193.618 21.0968 193.439 20.8024C193.26 20.4952 193.126 20.1944 193.036 19.9C193.049 19.6184 193.228 19.3944 193.574 19.228C193.932 19.0488 194.316 18.9592 194.726 18.9592C195.302 18.9592 195.692 19.1704 195.897 19.5928C196.102 20.0024 196.204 20.6552 196.204 21.5512C196.204 21.9992 196.089 22.7224 195.858 23.7208C196.114 23.132 196.498 22.4536 197.01 21.6856C197.522 20.9176 198.143 20.2264 198.873 19.612C199.602 18.9976 200.364 18.6904 201.158 18.6904C201.644 18.6904 202.022 18.7992 202.29 19.0168C202.572 19.2216 202.77 19.4776 202.886 19.7848C203.014 20.092 203.135 20.508 203.25 21.0328C203.135 21.148 202.924 21.6472 202.617 22.5304C202.322 23.4008 202.054 24.3544 201.81 25.3912C201.567 26.428 201.446 27.2792 201.446 27.9448C201.446 28.2776 201.484 28.5528 201.561 28.7704C201.433 29.1288 201.228 29.3976 200.946 29.5768C200.665 29.7688 200.345 29.8648 199.986 29.8648C199.769 29.8648 199.577 29.7624 199.41 29.5576C199.244 29.3528 199.129 29.1288 199.065 28.8856C199.078 28.092 199.27 27.0104 199.641 25.6408C200.012 24.2712 200.505 22.6328 201.119 20.7256ZM203.926 16.54C203.887 16.732 203.766 16.8728 203.561 16.9624C203.356 17.0392 203.132 17.0776 202.889 17.0776C202.671 17.0776 202.454 17.0072 202.236 16.8664C202.018 16.7128 201.724 16.4696 201.353 16.1368C200.841 15.676 200.386 15.324 199.99 15.0808C199.58 14.8376 199.119 14.716 198.607 14.716C198.198 14.716 197.782 14.7928 197.359 14.9464C196.924 15.0872 196.706 15.292 196.706 15.5608C196.706 15.7656 196.86 15.9448 197.167 16.0984C197.474 16.2392 197.833 16.348 198.242 16.4248C198.639 16.4888 198.972 16.5208 199.241 16.5208L200.162 16.5016C200.329 16.4888 200.54 16.4824 200.796 16.4824C201.078 16.4824 201.218 16.5592 201.218 16.7128C201.218 16.9432 201.103 17.1416 200.873 17.308C200.63 17.4744 200.348 17.6024 200.028 17.692C199.695 17.7816 199.407 17.8264 199.164 17.8264C198.422 17.8264 197.698 17.7432 196.994 17.5768C196.278 17.4104 195.695 17.1672 195.247 16.8472C194.786 16.5272 194.556 16.1432 194.556 15.6952C194.556 15.2088 194.793 14.7736 195.266 14.3896C195.727 14.0056 196.29 13.7112 196.956 13.5064C197.609 13.2888 198.191 13.18 198.703 13.18C199.522 13.18 200.22 13.3208 200.796 13.6024C201.372 13.8712 201.935 14.3192 202.486 14.9464C202.588 15.0616 202.697 15.1704 202.812 15.2728L203.407 12.1624C203.42 12.0344 203.548 11.9256 203.791 11.836C204.034 11.7336 204.258 11.6824 204.463 11.6824C204.706 11.6824 204.905 11.7528 205.058 11.8936C205.212 12.0216 205.372 12.2584 205.538 12.604L203.926 16.54Z" fill="black"/>
<rect x="0.5" y="0.5" width="348" height="45" stroke="black"/>
</svg>
