<svg width="349" height="47" viewBox="0 0 349 47" fill="none" xmlns="http://www.w3.org/2000/svg">
<path d="M147.195 29.3472C147.195 29.2064 147.214 29.072 147.253 28.944L149.442 20.4576C149.07 20.7392 148.648 21.0144 148.174 21.2832C147.714 21.5392 147.413 21.6672 147.272 21.6672C147.093 21.6672 146.888 21.6096 146.658 21.4944C146.44 21.3792 146.248 21.2448 146.082 21.0912C145.928 20.9376 145.851 20.8096 145.851 20.7072C145.851 20.6688 145.858 20.6432 145.87 20.6304C145.998 20.464 146.331 20.1888 146.869 19.8048C147.419 19.408 148.13 18.9216 149 18.3456C149.845 17.7824 150.344 17.4432 150.498 17.328C150.613 17.2512 150.741 17.2128 150.882 17.2128C151.176 17.2128 151.451 17.3344 151.707 17.5776C151.976 17.8208 152.11 18.1024 152.11 18.4224C152.11 18.4352 152.117 18.4736 152.13 18.5376C152.155 18.5888 152.168 18.6592 152.168 18.7488C152.168 18.7744 152.155 18.864 152.13 19.0176C151.938 20.08 151.592 21.5968 151.093 23.568C150.606 25.5264 150.331 26.6464 150.267 26.928C149.986 28.0032 149.826 28.6368 149.787 28.8288C149.685 29.2768 149.525 29.6224 149.307 29.8656C149.102 30.1088 148.763 30.2304 148.29 30.2304C147.906 30.2304 147.624 30.1664 147.445 30.0384C147.278 29.9104 147.195 29.68 147.195 29.3472ZM161.355 30.3072C160.19 30.3072 159.377 29.9872 158.916 29.3472C158.468 28.7072 158.244 27.9072 158.244 26.9472C158.244 26.0256 158.801 24.3808 159.915 22.0128C159.633 21.8336 159.403 21.5968 159.223 21.3024C159.044 20.9952 158.91 20.6944 158.82 20.4C158.833 20.1184 159.012 19.8944 159.358 19.728C159.716 19.5488 160.1 19.4592 160.51 19.4592C161.047 19.4592 161.451 19.6064 161.719 19.9008C161.988 20.1952 162.123 20.5856 162.123 21.072C162.123 21.4816 162.052 21.8976 161.911 22.32C161.771 22.7296 161.559 23.2288 161.278 23.8176C160.971 24.5088 160.74 25.0848 160.587 25.5456C160.433 26.0064 160.356 26.48 160.356 26.9664C160.356 27.5168 160.459 27.9392 160.663 28.2336C160.881 28.5152 161.182 28.656 161.566 28.656C162.052 28.656 162.481 28.4768 162.852 28.1184C163.223 27.7472 163.511 27.2736 163.716 26.6976C163.921 26.1088 164.023 25.5008 164.023 24.8736C164.023 24.272 163.966 23.792 163.851 23.4336C163.748 23.0624 163.601 22.6784 163.409 22.2816C163.383 22.2304 163.332 22.1216 163.255 21.9552C163.179 21.776 163.121 21.6032 163.083 21.4368C163.044 21.2576 163.025 21.0784 163.025 20.8992C163.025 20.5792 163.371 20.3104 164.062 20.0928C164.753 19.8624 165.572 19.696 166.519 19.5936C167.467 19.4784 168.305 19.4208 169.035 19.4208C169.355 19.4208 169.515 19.6 169.515 19.9584C169.515 20.2272 169.425 20.496 169.246 20.7648C169.067 21.0208 168.855 21.1552 168.612 21.168C168.305 21.1424 167.806 21.1296 167.115 21.1296C166.615 21.1296 166.155 21.1744 165.732 21.264C165.31 21.3536 165.015 21.4432 164.849 21.5328C165.233 21.9808 165.527 22.5632 165.732 23.28C165.95 23.9968 166.059 24.5984 166.059 25.0848C166.059 25.7888 165.905 26.544 165.598 27.3504C165.303 28.1568 164.804 28.8544 164.1 29.4432C163.396 30.0192 162.481 30.3072 161.355 30.3072ZM162.57 16.2528C162.57 15.9328 162.628 15.568 162.743 15.1584C162.858 14.736 163.012 14.3776 163.204 14.0832C163.396 13.7888 163.594 13.6416 163.799 13.6416C164.272 13.6416 164.663 13.7056 164.97 13.8336C165.277 13.9488 165.431 14.1536 165.431 14.448C165.431 14.5888 165.271 14.8832 164.951 15.3312L164.624 15.8688L164.74 16.0992C165.072 15.856 165.674 15.5808 166.544 15.2736C167.415 14.9664 168.304 14.704 169.213 14.4864C170.122 14.2688 170.756 14.16 171.114 14.16C171.46 14.16 171.728 14.2112 171.92 14.3136C172.125 14.416 172.228 14.6208 172.228 14.928C172.228 15.0304 172.183 15.1328 172.093 15.2352C172.016 15.3376 171.933 15.3888 171.844 15.3888C171.434 15.3888 170.89 15.4976 170.212 15.7152C169.533 15.9328 168.631 16.2528 167.504 16.6752C166.557 17.0336 165.834 17.296 165.335 17.4624C164.823 17.6288 164.432 17.712 164.164 17.712C163.946 17.712 163.716 17.6288 163.472 17.4624C163.216 17.2832 163.005 17.0784 162.839 16.848C162.66 16.6048 162.57 16.4064 162.57 16.2528ZM171.076 7.4192C171.025 7.6112 170.865 8.0656 170.596 8.7824C170.558 8.8848 170.494 9.0576 170.404 9.3008C170.314 9.5312 170.238 9.7488 170.174 9.9536C170.122 10.1328 170.02 10.3056 169.866 10.472C169.713 10.6256 169.47 10.7024 169.137 10.7024C168.958 10.7024 168.81 10.6 168.695 10.3952C168.593 10.1904 168.542 9.9728 168.542 9.7424C168.542 9.512 168.593 9.128 168.695 8.5904C168.798 8.04 168.945 7.5472 169.137 7.112C169.342 6.6768 169.572 6.4592 169.828 6.4592C170.071 6.4592 170.346 6.5296 170.654 6.6704C170.961 6.7984 171.121 6.952 171.134 7.1312C171.134 7.1696 171.127 7.2144 171.114 7.2656C171.102 7.304 171.089 7.3552 171.076 7.4192ZM176.836 22.5696C176.836 23.5552 176.65 24.656 176.279 25.872C175.92 27.088 175.364 28.1376 174.608 29.0208C173.866 29.8912 172.957 30.3264 171.882 30.3264C171.229 30.3264 170.711 30.1856 170.327 29.904C169.943 29.6096 169.751 29.2192 169.751 28.7328C169.751 28.3488 169.885 28.0352 170.154 27.792C170.436 27.536 170.775 27.4016 171.172 27.3888C171.184 27.9264 171.28 28.2848 171.46 28.464C171.639 28.6304 171.863 28.7136 172.132 28.7136C172.477 28.7136 172.855 28.3552 173.264 27.6384C173.687 26.9088 174.045 26.0576 174.34 25.0848C174.634 24.0992 174.781 23.2736 174.781 22.608C174.781 22.1088 174.647 21.6928 174.378 21.36C174.109 21.0144 173.572 20.8416 172.765 20.8416C172.036 20.8416 171.428 21.072 170.941 21.5328C170.468 21.9808 170.205 22.5952 170.154 23.376C169.655 23.376 169.252 23.2608 168.944 23.0304C168.637 22.7872 168.484 22.5056 168.484 22.1856C168.484 21.6096 168.669 21.0976 169.04 20.6496C169.424 20.1888 169.962 19.8304 170.653 19.5744C171.357 19.3184 172.157 19.1904 173.053 19.1904C174.295 19.1904 175.236 19.5104 175.876 20.1504C176.516 20.7904 176.836 21.5968 176.836 22.5696ZM181.083 18.4992C181.083 17.8464 180.897 17.328 180.526 16.944C180.155 16.5472 179.662 16.176 179.048 15.8304C178.728 15.6384 178.497 15.4912 178.356 15.3888C178.228 15.2864 178.164 15.1712 178.164 15.0432C178.164 14.7104 178.305 14.4288 178.587 14.1984C178.881 13.9552 179.259 13.7312 179.72 13.5264C180.142 13.3472 180.948 13.1104 182.139 12.816C183.329 12.5216 184.276 12.3744 184.98 12.3744C185.454 12.3744 185.832 12.4512 186.113 12.6048C186.395 12.7584 186.536 12.9632 186.536 13.2192C186.536 13.4112 186.478 13.552 186.363 13.6416C186.248 13.7312 186.068 13.808 185.825 13.872C185.544 13.9488 185.057 14.032 184.366 14.1216C183.483 14.2496 182.766 14.3712 182.216 14.4864C181.678 14.6016 181.204 14.768 180.795 14.9856C181.499 15.4208 182.03 15.856 182.388 16.2912C182.747 16.7264 182.977 17.136 183.08 17.52C183.182 17.904 183.233 18.32 183.233 18.768L182.715 20.7264C181.64 24.7968 181.032 27.1648 180.891 27.8304C180.865 27.9328 180.852 28.0544 180.852 28.1952C180.852 28.3232 180.872 28.4064 180.91 28.4448C180.948 28.4704 180.993 28.4832 181.044 28.4832C181.211 28.4832 181.39 28.4 181.582 28.2336C181.774 28.0672 181.921 27.8816 182.024 27.6768C182.369 27.792 182.6 27.952 182.715 28.1568C182.83 28.3616 182.888 28.592 182.888 28.848C182.888 29.296 182.612 29.6608 182.062 29.9424C181.512 30.2112 180.884 30.3456 180.18 30.3456C179.796 30.3456 179.451 30.1664 179.144 29.808C178.849 29.4368 178.702 28.9952 178.702 28.4832C178.702 28.176 179.368 25.36 180.699 20.0352L181.083 18.4992ZM188.65 21.9168C188.65 22.4416 188.566 23.1136 188.4 23.9328C188.246 24.752 188.035 25.5456 187.766 26.3136C188.765 26.6336 189.917 27.2544 191.222 28.176C191.798 25.5776 192.336 23.44 192.835 21.7632C193.347 20.0864 193.859 19.248 194.371 19.248C195.037 19.248 195.395 19.5296 195.446 20.0928C195.331 20.208 195.101 20.9312 194.755 22.2624C194.422 23.5808 194.09 24.9952 193.757 26.5056C193.437 28.016 193.258 28.9376 193.219 29.2704C192.95 30 192.47 30.3648 191.779 30.3648C191.51 30.3648 191.19 30.2624 190.819 30.0576C190.461 29.8528 189.981 29.5456 189.379 29.136C188.483 28.5088 187.805 28.112 187.344 27.9456C187.318 28.0992 187.267 28.2656 187.19 28.4448C186.986 29.008 186.646 29.4624 186.173 29.808C185.699 30.1536 185.245 30.3264 184.81 30.3264C184.272 30.3264 183.888 30.1792 183.658 29.8848C183.414 29.5904 183.293 29.2192 183.293 28.7712C183.293 28.3488 183.395 27.9456 183.6 27.5616C183.792 27.1648 184.061 26.8384 184.406 26.5824C184.765 26.3136 185.168 26.1664 185.616 26.1408C185.898 25.2192 186.096 24.4896 186.211 23.952C186.339 23.4144 186.429 22.768 186.48 22.0128C186.198 21.8336 185.968 21.5968 185.789 21.3024C185.61 20.9952 185.475 20.6944 185.386 20.4C185.398 20.1184 185.578 19.8944 185.923 19.728C186.282 19.5488 186.666 19.4592 187.075 19.4592C187.664 19.4592 188.074 19.6576 188.304 20.0544C188.534 20.4384 188.65 21.0592 188.65 21.9168ZM200.405 30.3264C199.676 30.3264 198.965 29.6672 198.274 28.3488C197.596 27.0176 197.013 25.5456 196.527 23.9328C196.053 22.32 195.817 21.3344 195.817 20.976C195.817 20.6944 195.932 20.4064 196.162 20.112C196.393 19.8176 196.597 19.6704 196.777 19.6704C196.879 19.6704 196.949 19.7344 196.988 19.8624C197.423 21.4624 197.948 23.1264 198.562 24.8544C199.177 26.5696 199.759 27.6512 200.309 28.0992C200.45 27.7664 200.693 26.8832 201.039 25.4496C201.397 24.016 201.621 23.0048 201.711 22.416C201.455 22.1856 201.231 21.9104 201.039 21.5904C200.86 21.2576 200.77 20.9376 200.77 20.6304C200.77 20.272 200.853 19.9776 201.02 19.7472C201.199 19.5168 201.493 19.4016 201.903 19.4016C202.581 19.4016 203.113 19.568 203.497 19.9008C203.893 20.2208 204.092 20.6432 204.092 21.168C204.092 21.8592 203.785 23.3568 203.17 25.6608C202.901 26.6592 202.665 27.4656 202.46 28.08C202.255 28.6816 201.98 29.2064 201.634 29.6544C201.301 30.0896 200.892 30.3136 200.405 30.3264Z" fill="black"/>
<rect x="0.5" y="0.5" width="348" height="46" stroke="black"/>
</svg>

