<svg width="349" height="46" viewBox="0 0 349 46" fill="none" xmlns="http://www.w3.org/2000/svg">
<path d="M123.448 28.8472C123.448 28.7064 123.467 28.572 123.506 28.444L125.695 19.9576C125.323 20.2392 124.901 20.5144 124.427 20.7832C123.967 21.0392 123.666 21.1672 123.525 21.1672C123.346 21.1672 123.141 21.1096 122.911 20.9944C122.693 20.8792 122.501 20.7448 122.335 20.5912C122.181 20.4376 122.104 20.3096 122.104 20.2072C122.104 20.1688 122.111 20.1432 122.123 20.1304C122.251 19.964 122.584 19.6888 123.122 19.3048C123.672 18.908 124.383 18.4216 125.253 17.8456C126.098 17.2824 126.597 16.9432 126.751 16.828C126.866 16.7512 126.994 16.7128 127.135 16.7128C127.429 16.7128 127.704 16.8344 127.96 17.0776C128.229 17.3208 128.363 17.6024 128.363 17.9224C128.363 17.9352 128.37 17.9736 128.383 18.0376C128.408 18.0888 128.421 18.1592 128.421 18.2488C128.421 18.2744 128.408 18.364 128.383 18.5176C128.191 19.58 127.845 21.0968 127.346 23.068C126.859 25.0264 126.584 26.1464 126.52 26.428C126.239 27.5032 126.079 28.1368 126.04 28.3288C125.938 28.7768 125.778 29.1224 125.56 29.3656C125.355 29.6088 125.016 29.7304 124.543 29.7304C124.159 29.7304 123.877 29.6664 123.698 29.5384C123.531 29.4104 123.448 29.18 123.448 28.8472ZM131.142 30.1336C130.783 30.1336 130.47 30.0248 130.201 29.8072C129.945 29.5896 129.817 29.3336 129.817 29.0392C129.817 28.604 130.003 28.2264 130.374 27.9064C130.745 27.5864 131.148 27.4264 131.583 27.4264C131.967 27.4264 132.281 27.548 132.524 27.7912C132.78 28.0344 132.908 28.3224 132.908 28.6552C132.908 29.052 132.729 29.3976 132.371 29.692C132.012 29.9864 131.603 30.1336 131.142 30.1336ZM139.182 28.0792C139.848 28.0792 140.449 27.9384 140.987 27.6568C141.524 27.3752 141.947 26.972 142.254 26.4472C142.574 25.9096 142.734 25.2888 142.734 24.5848C142.734 23.5096 142.075 22.972 140.756 22.972C140.142 22.972 139.643 23.0936 139.259 23.3368C138.875 23.5672 138.491 23.8744 138.107 24.2584C137.876 24.5144 137.71 24.6424 137.608 24.6424C137.236 24.6424 136.91 24.5528 136.628 24.3736C136.36 24.1944 136.225 23.9256 136.225 23.5672C136.225 23.4648 136.251 23.3304 136.302 23.164C137.16 20.604 137.588 19.1192 137.588 18.7096C137.588 18.3 137.62 17.9864 137.684 17.7688C137.748 17.5384 137.876 17.3656 138.068 17.2504C138.26 17.1352 138.555 17.0776 138.952 17.0776C139.054 17.0776 139.15 17.084 139.24 17.0968C139.342 17.1096 139.444 17.116 139.547 17.116L144.097 16.732L144.98 16.6552C145.275 16.6552 145.518 16.7384 145.71 16.9048C145.915 17.0712 146.017 17.2888 146.017 17.5576C146.017 17.8648 145.94 18.1208 145.787 18.3256C145.633 18.5304 145.262 18.6648 144.673 18.7288L139.739 19.228C139.752 19.1896 139.662 19.4968 139.47 20.1496C139.188 21.0584 139.022 21.5896 138.971 21.7432C139.803 21.244 140.705 20.9944 141.678 20.9944C142.292 20.9944 142.862 21.1224 143.387 21.3784C143.912 21.6344 144.334 22.0184 144.654 22.5304C144.974 23.0424 145.134 23.6632 145.134 24.3928C145.134 25.5704 144.872 26.5816 144.347 27.4264C143.835 28.2712 143.118 28.9176 142.196 29.3656C141.275 29.8008 140.219 30.0184 139.028 30.0184C138.478 30.0184 137.915 29.916 137.339 29.7112C136.776 29.5064 136.308 29.2248 135.937 28.8664C135.566 28.508 135.38 28.1176 135.38 27.6952C135.38 27.452 135.47 27.2536 135.649 27.1C135.841 26.9464 136.084 26.8696 136.379 26.8696C136.494 26.8696 136.635 26.9144 136.801 27.004C136.98 27.0808 137.224 27.2088 137.531 27.388C137.889 27.6056 138.196 27.7784 138.452 27.9064C138.721 28.0216 138.964 28.0792 139.182 28.0792ZM158.595 25.5064C157.699 25.66 156.163 25.8392 153.987 26.044H153.872C153.577 26.044 153.334 25.9608 153.142 25.7944C152.963 25.628 152.861 25.4296 152.835 25.1992L152.816 24.9688C152.816 24.636 152.925 24.38 153.142 24.2008C153.36 24.0088 153.737 23.8872 154.275 23.836L156.291 23.644L157.347 23.5096L158.518 23.356H158.633C158.941 23.356 159.19 23.452 159.382 23.644C159.574 23.8232 159.683 24.0472 159.709 24.316V24.412C159.709 24.6808 159.606 24.9112 159.401 25.1032C159.209 25.2952 158.941 25.4296 158.595 25.5064ZM173.506 19.6696C173.506 19.3624 173.372 19.1128 173.103 18.9208C172.847 18.716 172.514 18.6136 172.105 18.6136C171.682 18.6136 171.305 18.6648 170.972 18.7672C170.652 18.8696 170.345 19.0424 170.05 19.2856C169.884 19.4136 169.769 19.5416 169.705 19.6696C169.641 19.7976 169.583 19.9576 169.532 20.1496C169.468 20.3544 169.385 20.5016 169.282 20.5912C169.193 20.6808 169.007 20.7256 168.726 20.7256C168.29 20.7256 167.938 20.6296 167.67 20.4376C167.414 20.2456 167.286 19.9768 167.286 19.6312C167.286 19.2088 167.516 18.7736 167.977 18.3256C168.438 17.8776 169.052 17.5064 169.82 17.212C170.588 16.9176 171.407 16.7704 172.278 16.7704C173.02 16.7704 173.679 16.892 174.255 17.1352C174.844 17.3656 175.298 17.6856 175.618 18.0952C175.951 18.5048 176.118 18.9656 176.118 19.4776C176.118 20.0664 175.887 20.6872 175.426 21.34C174.978 21.98 174.428 22.6008 173.775 23.2024C173.135 23.804 172.322 24.508 171.337 25.3144C171.17 25.4552 170.882 25.6984 170.473 26.044C170.063 26.3896 169.718 26.6968 169.436 26.9656C169.154 27.2216 168.924 27.4584 168.745 27.676C169.334 27.5352 170.178 27.3624 171.279 27.1576C172.38 26.9528 173.263 26.8184 173.929 26.7544C174.018 26.7416 174.14 26.7352 174.294 26.7352C174.537 26.7352 174.742 26.7992 174.908 26.9272C175.074 27.0424 175.158 27.1576 175.158 27.2728C175.158 27.6184 175.036 27.9832 174.793 28.3672C174.55 28.7384 174.134 28.9432 173.545 28.9816C172.7 29.0328 171.599 29.1544 170.242 29.3464C169.59 29.4488 169.065 29.5192 168.668 29.5576C168.271 29.6088 167.862 29.6344 167.439 29.6344C166.927 29.6344 166.53 29.5384 166.249 29.3464C165.967 29.1544 165.826 28.8664 165.826 28.4824C165.826 28.06 165.954 27.6632 166.21 27.292C166.466 26.908 166.831 26.492 167.305 26.044C168.034 25.3656 169.084 24.444 170.454 23.2792C171.593 22.3192 172.386 21.596 172.834 21.1096C173.282 20.6232 173.506 20.1432 173.506 19.6696ZM185.102 29.8072C183.937 29.8072 183.124 29.4872 182.663 28.8472C182.215 28.2072 181.991 27.4072 181.991 26.4472C181.991 25.5256 182.548 23.8808 183.662 21.5128C183.38 21.3336 183.15 21.0968 182.97 20.8024C182.791 20.4952 182.657 20.1944 182.567 19.9C182.58 19.6184 182.759 19.3944 183.105 19.228C183.463 19.0488 183.847 18.9592 184.257 18.9592C184.794 18.9592 185.198 19.1064 185.466 19.4008C185.735 19.6952 185.87 20.0856 185.87 20.572C185.87 20.9816 185.799 21.3976 185.658 21.82C185.518 22.2296 185.306 22.7288 185.025 23.3176C184.718 24.0088 184.487 24.5848 184.334 25.0456C184.18 25.5064 184.103 25.98 184.103 26.4664C184.103 27.0168 184.206 27.4392 184.41 27.7336C184.628 28.0152 184.929 28.156 185.313 28.156C185.799 28.156 186.228 27.9768 186.599 27.6184C186.97 27.2472 187.258 26.7736 187.463 26.1976C187.668 25.6088 187.77 25.0008 187.77 24.3736C187.77 23.772 187.713 23.292 187.598 22.9336C187.495 22.5624 187.348 22.1784 187.156 21.7816C187.13 21.7304 187.079 21.6216 187.002 21.4552C186.926 21.276 186.868 21.1032 186.83 20.9368C186.791 20.7576 186.772 20.5784 186.772 20.3992C186.772 20.0792 187.118 19.8104 187.809 19.5928C188.5 19.3624 189.319 19.196 190.266 19.0936C191.214 18.9784 192.052 18.9208 192.782 18.9208C193.102 18.9208 193.262 19.1 193.262 19.4584C193.262 19.7272 193.172 19.996 192.993 20.2648C192.814 20.5208 192.602 20.6552 192.359 20.668C192.052 20.6424 191.553 20.6296 190.862 20.6296C190.362 20.6296 189.902 20.6744 189.479 20.764C189.057 20.8536 188.762 20.9432 188.596 21.0328C188.98 21.4808 189.274 22.0632 189.479 22.78C189.697 23.4968 189.806 24.0984 189.806 24.5848C189.806 25.2888 189.652 26.044 189.345 26.8504C189.05 27.6568 188.551 28.3544 187.847 28.9432C187.143 29.5192 186.228 29.8072 185.102 29.8072ZM186.317 15.7528C186.317 15.4328 186.374 15.068 186.49 14.6584C186.605 14.236 186.758 13.8776 186.95 13.5832C187.142 13.2888 187.341 13.1416 187.546 13.1416C188.019 13.1416 188.41 13.2056 188.717 13.3336C189.024 13.4488 189.178 13.6536 189.178 13.948C189.178 14.0888 189.018 14.3832 188.698 14.8312L188.371 15.3688L188.486 15.5992C188.819 15.356 189.421 15.0808 190.291 14.7736C191.162 14.4664 192.051 14.204 192.96 13.9864C193.869 13.7688 194.502 13.66 194.861 13.66C195.206 13.66 195.475 13.7112 195.667 13.8136C195.872 13.916 195.974 14.1208 195.974 14.428C195.974 14.5304 195.93 14.6328 195.84 14.7352C195.763 14.8376 195.68 14.8888 195.59 14.8888C195.181 14.8888 194.637 14.9976 193.958 15.2152C193.28 15.4328 192.378 15.7528 191.251 16.1752C190.304 16.5336 189.581 16.796 189.082 16.9624C188.57 17.1288 188.179 17.212 187.91 17.212C187.693 17.212 187.462 17.1288 187.219 16.9624C186.963 16.7832 186.752 16.5784 186.586 16.348C186.406 16.1048 186.317 15.9064 186.317 15.7528ZM194.823 6.9192C194.772 7.1112 194.612 7.5656 194.343 8.2824C194.305 8.3848 194.241 8.5576 194.151 8.8008C194.061 9.0312 193.985 9.2488 193.921 9.4536C193.869 9.6328 193.767 9.8056 193.613 9.972C193.46 10.1256 193.217 10.2024 192.884 10.2024C192.705 10.2024 192.557 10.1 192.442 9.8952C192.34 9.6904 192.289 9.4728 192.289 9.2424C192.289 9.012 192.34 8.628 192.442 8.0904C192.545 7.54 192.692 7.0472 192.884 6.612C193.089 6.1768 193.319 5.9592 193.575 5.9592C193.818 5.9592 194.093 6.0296 194.401 6.1704C194.708 6.2984 194.868 6.452 194.881 6.6312C194.881 6.6696 194.874 6.7144 194.861 6.7656C194.849 6.804 194.836 6.8552 194.823 6.9192ZM200.582 22.0696C200.582 23.0552 200.397 24.156 200.026 25.372C199.667 26.588 199.11 27.6376 198.355 28.5208C197.613 29.3912 196.704 29.8264 195.629 29.8264C194.976 29.8264 194.458 29.6856 194.074 29.404C193.69 29.1096 193.498 28.7192 193.498 28.2328C193.498 27.8488 193.632 27.5352 193.901 27.292C194.182 27.036 194.522 26.9016 194.918 26.8888C194.931 27.4264 195.027 27.7848 195.206 27.964C195.386 28.1304 195.61 28.2136 195.878 28.2136C196.224 28.2136 196.602 27.8552 197.011 27.1384C197.434 26.4088 197.792 25.5576 198.086 24.5848C198.381 23.5992 198.528 22.7736 198.528 22.108C198.528 21.6088 198.394 21.1928 198.125 20.86C197.856 20.5144 197.318 20.3416 196.512 20.3416C195.782 20.3416 195.174 20.572 194.688 21.0328C194.214 21.4808 193.952 22.0952 193.901 22.876C193.402 22.876 192.998 22.7608 192.691 22.5304C192.384 22.2872 192.23 22.0056 192.23 21.6856C192.23 21.1096 192.416 20.5976 192.787 20.1496C193.171 19.6888 193.709 19.3304 194.4 19.0744C195.104 18.8184 195.904 18.6904 196.8 18.6904C198.042 18.6904 198.982 19.0104 199.622 19.6504C200.262 20.2904 200.582 21.0968 200.582 22.0696ZM204.83 17.9992C204.83 17.3464 204.644 16.828 204.273 16.444C203.902 16.0472 203.409 15.676 202.794 15.3304C202.474 15.1384 202.244 14.9912 202.103 14.8888C201.975 14.7864 201.911 14.6712 201.911 14.5432C201.911 14.2104 202.052 13.9288 202.334 13.6984C202.628 13.4552 203.006 13.2312 203.466 13.0264C203.889 12.8472 204.695 12.6104 205.886 12.316C207.076 12.0216 208.023 11.8744 208.727 11.8744C209.201 11.8744 209.578 11.9512 209.86 12.1048C210.142 12.2584 210.282 12.4632 210.282 12.7192C210.282 12.9112 210.225 13.052 210.11 13.1416C209.994 13.2312 209.815 13.308 209.572 13.372C209.29 13.4488 208.804 13.532 208.113 13.6216C207.23 13.7496 206.513 13.8712 205.962 13.9864C205.425 14.1016 204.951 14.268 204.542 14.4856C205.246 14.9208 205.777 15.356 206.135 15.7912C206.494 16.2264 206.724 16.636 206.826 17.02C206.929 17.404 206.98 17.82 206.98 18.268L206.462 20.2264C205.386 24.2968 204.778 26.6648 204.638 27.3304C204.612 27.4328 204.599 27.5544 204.599 27.6952C204.599 27.8232 204.618 27.9064 204.657 27.9448C204.695 27.9704 204.74 27.9832 204.791 27.9832C204.958 27.9832 205.137 27.9 205.329 27.7336C205.521 27.5672 205.668 27.3816 205.77 27.1768C206.116 27.292 206.346 27.452 206.462 27.6568C206.577 27.8616 206.634 28.092 206.634 28.348C206.634 28.796 206.359 29.1608 205.809 29.4424C205.258 29.7112 204.631 29.8456 203.927 29.8456C203.543 29.8456 203.198 29.6664 202.89 29.308C202.596 28.9368 202.449 28.4952 202.449 27.9832C202.449 27.676 203.114 24.86 204.446 19.5352L204.83 17.9992ZM212.396 21.4168C212.396 21.9416 212.313 22.6136 212.147 23.4328C211.993 24.252 211.782 25.0456 211.513 25.8136C212.512 26.1336 213.664 26.7544 214.969 27.676C215.545 25.0776 216.083 22.94 216.582 21.2632C217.094 19.5864 217.606 18.748 218.118 18.748C218.784 18.748 219.142 19.0296 219.193 19.5928C219.078 19.708 218.848 20.4312 218.502 21.7624C218.169 23.0808 217.836 24.4952 217.504 26.0056C217.184 27.516 217.004 28.4376 216.966 28.7704C216.697 29.5 216.217 29.8648 215.526 29.8648C215.257 29.8648 214.937 29.7624 214.566 29.5576C214.208 29.3528 213.728 29.0456 213.126 28.636C212.23 28.0088 211.552 27.612 211.091 27.4456C211.065 27.5992 211.014 27.7656 210.937 27.9448C210.732 28.508 210.393 28.9624 209.92 29.308C209.446 29.6536 208.992 29.8264 208.556 29.8264C208.019 29.8264 207.635 29.6792 207.404 29.3848C207.161 29.0904 207.04 28.7192 207.04 28.2712C207.04 27.8488 207.142 27.4456 207.347 27.0616C207.539 26.6648 207.808 26.3384 208.153 26.0824C208.512 25.8136 208.915 25.6664 209.363 25.6408C209.644 24.7192 209.843 23.9896 209.958 23.452C210.086 22.9144 210.176 22.268 210.227 21.5128C209.945 21.3336 209.715 21.0968 209.536 20.8024C209.356 20.4952 209.222 20.1944 209.132 19.9C209.145 19.6184 209.324 19.3944 209.67 19.228C210.028 19.0488 210.412 18.9592 210.822 18.9592C211.411 18.9592 211.82 19.1576 212.051 19.5544C212.281 19.9384 212.396 20.5592 212.396 21.4168ZM224.152 29.8264C223.423 29.8264 222.712 29.1672 222.021 27.8488C221.343 26.5176 220.76 25.0456 220.274 23.4328C219.8 21.82 219.563 20.8344 219.563 20.476C219.563 20.1944 219.679 19.9064 219.909 19.612C220.139 19.3176 220.344 19.1704 220.523 19.1704C220.626 19.1704 220.696 19.2344 220.735 19.3624C221.17 20.9624 221.695 22.6264 222.309 24.3544C222.923 26.0696 223.506 27.1512 224.056 27.5992C224.197 27.2664 224.44 26.3832 224.786 24.9496C225.144 23.516 225.368 22.5048 225.458 21.916C225.202 21.6856 224.978 21.4104 224.786 21.0904C224.607 20.7576 224.517 20.4376 224.517 20.1304C224.517 19.772 224.6 19.4776 224.767 19.2472C224.946 19.0168 225.24 18.9016 225.65 18.9016C226.328 18.9016 226.859 19.068 227.243 19.4008C227.64 19.7208 227.839 20.1432 227.839 20.668C227.839 21.3592 227.531 22.8568 226.917 25.1608C226.648 26.1592 226.411 26.9656 226.207 27.58C226.002 28.1816 225.727 28.7064 225.381 29.1544C225.048 29.5896 224.639 29.8136 224.152 29.8264Z" fill="black"/>
<rect x="0.5" y="0.5" width="348" height="45" stroke="black"/>
</svg>
