<svg width="349" height="59" viewBox="0 0 349 59" fill="none" xmlns="http://www.w3.org/2000/svg">
<path d="M130.168 34.5216C130.091 34.9824 129.874 35.3728 129.515 35.6928C129.17 36.0128 128.683 36.1728 128.056 36.1728C127.851 36.1728 127.563 36.0832 127.192 35.904C126.834 35.712 126.655 35.5392 126.655 35.3856C126.655 35.2192 126.699 34.848 126.789 34.272C126.891 33.4784 126.943 32.992 126.943 32.8128C126.943 31.9936 126.853 31.1808 126.674 30.3744C126.495 29.568 126.277 28.9024 126.021 28.3776C125.765 27.8528 125.547 27.5968 125.368 27.6096C124.971 27.5968 124.639 27.456 124.37 27.1872C124.114 26.9184 123.986 26.656 123.986 26.4C123.986 26.1184 124.12 25.8944 124.389 25.728C124.671 25.5488 125.003 25.4592 125.387 25.4592C126.667 25.4592 127.538 26.0736 127.999 27.3024C128.472 28.5312 128.709 29.9648 128.709 31.6032L128.69 32.2752C128.907 31.1232 129.234 30.0416 129.669 29.0304C130.117 28.0064 130.603 27.1616 131.128 26.496C131.653 25.8176 132.146 25.4016 132.607 25.248C132.888 25.248 133.221 25.3312 133.605 25.4976C134.002 25.664 134.2 25.8112 134.2 25.9392C134.2 26.0032 134.149 26.0544 134.047 26.0928C133.803 26.1696 133.413 26.6112 132.875 27.4176C132.338 28.224 131.807 29.2608 131.282 30.528C130.77 31.7824 130.399 33.1136 130.168 34.5216ZM142.654 28.5696C142.654 29.5552 142.469 30.656 142.098 31.872C141.739 33.088 141.182 34.1376 140.427 35.0208C139.685 35.8912 138.776 36.3264 137.701 36.3264C137.048 36.3264 136.53 36.1856 136.146 35.904C135.762 35.6096 135.57 35.2192 135.57 34.7328C135.57 34.3488 135.704 34.0352 135.973 33.792C136.254 33.536 136.594 33.4016 136.99 33.3888C137.003 33.9264 137.099 34.2848 137.278 34.464C137.458 34.6304 137.682 34.7136 137.95 34.7136C138.296 34.7136 138.674 34.3552 139.083 33.6384C139.506 32.9088 139.864 32.0576 140.158 31.0848C140.453 30.0992 140.6 29.2736 140.6 28.608C140.6 28.1088 140.466 27.6928 140.197 27.36C139.928 27.0144 139.39 26.8416 138.584 26.8416C137.854 26.8416 137.246 27.072 136.76 27.5328C136.286 27.9808 136.024 28.5952 135.973 29.376C135.474 29.376 135.07 29.2608 134.763 29.0304C134.456 28.7872 134.302 28.5056 134.302 28.1856C134.302 27.6096 134.488 27.0976 134.859 26.6496C135.243 26.1888 135.781 25.8304 136.472 25.5744C137.176 25.3184 137.976 25.1904 138.872 25.1904C140.114 25.1904 141.054 25.5104 141.694 26.1504C142.334 26.7904 142.654 27.5968 142.654 28.5696ZM145.788 34.4448C146.146 34.4448 146.55 34.2784 146.998 33.9456C147.458 33.6128 147.849 33.2032 148.169 32.7168C148.502 32.2176 148.687 31.744 148.726 31.296C148.354 31.0912 148.098 30.7392 147.958 30.24C147.97 29.9456 148.111 29.7152 148.38 29.5488C148.649 29.3824 148.975 29.2992 149.359 29.2992C149.359 29.2736 149.481 29.2928 149.724 29.3568C149.967 29.4208 150.185 29.536 150.377 29.7024C150.582 29.856 150.684 30.0864 150.684 30.3936C150.684 31.2512 150.454 32.1344 149.993 33.0432C149.545 33.9392 148.924 34.688 148.13 35.2896C147.337 35.8784 146.466 36.1728 145.519 36.1728C144.674 36.1728 144.124 35.9168 143.868 35.4048C143.625 34.8928 143.503 34.2336 143.503 33.4272C143.503 32.6464 143.67 31.6224 144.002 30.3552C144.335 29.0752 144.982 27.8976 145.942 26.8224C146.914 25.7344 148.271 25.1904 150.012 25.1904C150.703 25.1904 151.388 25.3376 152.066 25.632C152.745 25.9136 153.302 26.3424 153.737 26.9184C154.185 27.4816 154.409 28.1664 154.409 28.9728C154.409 29.152 154.402 29.2928 154.39 29.3952C154.3 30.2656 154.153 31.1872 153.948 32.16C153.756 33.1328 153.487 34.3424 153.142 35.7888C152.975 36.1088 152.783 36.3456 152.566 36.4992C152.361 36.6656 151.996 36.7488 151.471 36.7488C151.062 36.7488 150.857 36.5504 150.857 36.1536C150.857 36.0768 150.87 35.9616 150.895 35.808L151.03 35.232L151.414 33.6192C151.964 31.5712 152.265 30.144 152.316 29.3376V29.184C152.316 28.5312 152.105 27.9808 151.682 27.5328C151.26 27.072 150.697 26.8416 149.993 26.8416C148.815 26.8416 147.894 27.2768 147.228 28.1472C146.562 29.0176 146.114 29.9968 145.884 31.0848C145.654 32.16 145.538 33.1136 145.538 33.9456C145.538 34.2784 145.622 34.4448 145.788 34.4448ZM157.083 27.6672C156.84 27.5136 156.661 27.328 156.546 27.1104C156.431 26.8928 156.347 26.6944 156.296 26.5152C156.245 26.3232 156.213 26.1952 156.2 26.1312C156.213 25.8496 156.418 25.6256 156.815 25.4592C157.211 25.28 157.621 25.1904 158.043 25.1904C158.581 25.1904 158.984 25.3376 159.253 25.632C159.522 25.9264 159.656 26.3168 159.656 26.8032C159.567 26.8544 159.375 27.2576 159.08 28.0128C158.786 28.7552 158.517 29.5744 158.274 30.4704C158.031 31.3536 157.909 32.1024 157.909 32.7168C157.909 33.088 157.941 33.408 158.005 33.6768C158.082 33.9328 158.203 34.0608 158.37 34.0608C158.715 34.0608 159.125 33.6 159.599 32.6784C160.072 31.7568 160.52 30.656 160.943 29.376C161.378 28.096 161.704 26.9632 161.922 25.9776C161.96 25.7728 162.088 25.6 162.306 25.4592C162.536 25.3056 162.728 25.2288 162.882 25.2288C163.176 25.2288 163.4 25.2992 163.554 25.44C163.72 25.5808 163.803 25.7984 163.803 26.0928L163.784 26.304C163.784 26.3296 163.771 26.3808 163.746 26.4576C163.72 26.5344 163.695 26.6304 163.669 26.7456C162.978 29.3312 162.632 31.232 162.632 32.448V32.832C162.632 33.216 162.677 33.5168 162.767 33.7344C162.856 33.952 162.984 34.0608 163.151 34.0608C163.714 34.0608 164.303 33.1712 164.917 31.392C165.531 29.6128 166.018 27.7952 166.376 25.9392C166.44 25.5552 166.722 25.3632 167.221 25.3632C167.503 25.3632 167.81 25.4208 168.143 25.536C168.475 25.6384 168.642 25.76 168.642 25.9008L168.373 27.0528C168.347 27.232 168.322 27.3536 168.296 27.4176C167.874 29.248 167.471 30.7648 167.087 31.968C166.703 33.1584 166.184 34.1888 165.531 35.0592C164.891 35.9168 164.091 36.3456 163.131 36.3456C162.594 36.3456 162.152 36.1024 161.807 35.616C161.474 35.1296 161.307 34.528 161.307 33.8112C161.307 32.9792 161.41 32.064 161.615 31.0656H161.557C161.211 32.1536 160.802 33.1008 160.328 33.9072C159.855 34.7008 159.362 35.3088 158.85 35.7312C158.351 36.1408 157.877 36.3456 157.429 36.3456C156.866 36.3456 156.437 36.064 156.143 35.5008C155.848 34.9376 155.701 34.176 155.701 33.216C155.701 32.448 155.752 31.7696 155.855 31.1808C155.957 30.592 156.079 30.1056 156.219 29.7216C156.373 29.3248 156.571 28.8384 156.815 28.2624L157.083 27.6672ZM178.058 35.4624C177.943 35.7056 177.764 35.8976 177.521 36.0384C177.29 36.1792 177.022 36.2496 176.714 36.2496C176.266 36.2496 175.985 36.1408 175.87 35.9232C175.754 35.7056 175.697 35.392 175.697 34.9824C175.991 34.5344 176.138 34.048 176.138 33.5232C176.138 32.832 175.998 32.2432 175.716 31.7568C175.434 31.2576 174.98 31.008 174.353 31.008C173.905 31.008 173.463 31.2256 173.028 31.6608C172.593 32.0832 172.234 32.5952 171.953 33.1968C171.671 33.7856 171.53 34.304 171.53 34.752C171.53 35.0208 171.588 35.2448 171.703 35.424C171.588 35.7184 171.402 35.936 171.146 36.0768C170.89 36.2176 170.641 36.288 170.398 36.288C170.065 36.288 169.802 36.1728 169.61 35.9424C169.431 35.712 169.342 35.36 169.342 34.8864C169.342 33.888 169.585 32.96 170.071 32.1024C170.57 31.2448 171.223 30.5664 172.03 30.0672C172.836 29.5552 173.687 29.2992 174.583 29.2992C175.159 29.2992 175.69 29.4592 176.177 29.7792C176.663 30.0992 177.002 30.624 177.194 31.3536C177.31 30.8928 177.412 30.3488 177.502 29.7216C177.604 29.0816 177.655 28.6208 177.655 28.3392C177.655 27.8528 177.508 27.4816 177.214 27.2256C176.932 26.9696 176.465 26.8416 175.812 26.8416C175.134 26.8416 174.487 26.944 173.873 27.1488C173.258 27.3536 172.753 27.648 172.356 28.032C171.959 28.416 171.748 28.864 171.722 29.376C171.223 29.3248 170.807 29.2096 170.474 29.0304C170.154 28.8512 169.994 28.6144 169.994 28.32C169.994 27.7568 170.263 27.2384 170.801 26.7648C171.351 26.2784 172.081 25.8944 172.99 25.6128C173.898 25.3312 174.865 25.1904 175.889 25.1904C176.567 25.1904 177.201 25.3184 177.79 25.5744C178.391 25.8176 178.871 26.1888 179.23 26.688C179.601 27.1744 179.786 27.776 179.786 28.4928C179.786 29.0944 179.575 30.2528 179.153 31.968C178.73 33.6704 178.366 34.8352 178.058 35.4624ZM188.9 28.4928C188.772 29.3248 188.471 30.6752 187.997 32.544C187.946 32.736 187.831 33.1712 187.652 33.8496C187.485 34.528 187.364 35.104 187.287 35.5776C187.133 35.8848 186.935 36.1216 186.692 36.288C186.449 36.4544 186.065 36.5376 185.54 36.5376C185.13 36.5376 184.925 36.3392 184.925 35.9424C184.925 35.8656 184.938 35.7504 184.964 35.5968L185.309 34.1184C185.437 33.5808 185.553 33.1008 185.655 32.6784C185.77 32.2432 185.866 31.8656 185.943 31.5456C186.34 29.9456 186.602 28.8448 186.73 28.2432C186.743 28.192 186.749 28.128 186.749 28.0512C186.749 27.6928 186.577 27.4048 186.231 27.1872C185.898 26.9568 185.546 26.8416 185.175 26.8416C184.394 26.8416 183.812 27.072 183.428 27.5328C183.057 27.9808 182.852 28.576 182.813 29.3184C182.314 29.2672 181.898 29.152 181.565 28.9728C181.245 28.7936 181.085 28.5568 181.085 28.2624C181.085 27.3536 181.45 26.6176 182.18 26.0544C182.922 25.4784 183.972 25.1904 185.329 25.1904C186.161 25.1904 186.845 25.3568 187.383 25.6896C187.921 26.0096 188.311 26.4064 188.554 26.88C188.797 27.3408 188.919 27.7888 188.919 28.224C188.919 28.352 188.913 28.4416 188.9 28.4928ZM197.259 36.2496C196.76 36.1856 196.433 36.0512 196.28 35.8464C196.126 35.6416 196.049 35.3536 196.049 34.9824C196.357 34.5344 196.51 34.048 196.51 33.5232C196.51 32.8832 196.299 32.3328 195.877 31.872C195.467 31.4112 194.859 31.1808 194.053 31.1808C193.477 31.1808 193.035 31.4496 192.728 31.9872C192.421 32.512 192.216 33.088 192.113 33.7152C192.024 34.3296 191.979 34.8416 191.979 35.2512C191.851 35.5328 191.665 35.744 191.422 35.8848C191.192 36.0128 190.955 36.0768 190.712 36.0768C190.353 36.0768 190.085 35.9872 189.905 35.808C189.726 35.616 189.637 35.36 189.637 35.04C189.637 33.9264 189.841 32.9344 190.251 32.064C190.661 31.1936 191.224 30.5152 191.941 30.0288C192.657 29.5424 193.464 29.2992 194.36 29.2992C194.961 29.2992 195.582 29.4848 196.222 29.856C196.862 30.2272 197.31 30.816 197.566 31.6224C197.579 31.5456 197.624 31.3344 197.701 30.9888C197.79 30.6432 197.861 30.3104 197.912 29.9904C197.963 29.6576 197.989 29.3568 197.989 29.088C197.989 28.768 197.95 28.4736 197.873 28.2048C197.195 28.3072 196.03 28.3584 194.379 28.3584C193.675 28.3584 193.093 28.2752 192.632 28.1088C192.171 27.9296 191.941 27.5968 191.941 27.1104C191.941 26.5472 192.344 26.0992 193.15 25.7664C193.957 25.4208 194.891 25.248 195.953 25.248C197.08 25.248 198.021 25.4464 198.776 25.8432C199.621 25.728 200.401 25.568 201.118 25.3632C201.835 25.1584 202.635 24.8448 203.518 24.4224C204.043 24.4224 204.408 24.4864 204.613 24.6144C204.817 24.7296 204.92 24.9216 204.92 25.1904C204.92 25.6896 204.497 26.112 203.653 26.4576C202.821 26.8032 201.643 27.168 200.12 27.552C200.184 27.744 200.216 28.0576 200.216 28.4928C200.216 29.632 200.062 30.7968 199.755 31.9872C199.461 33.1776 199.045 34.336 198.507 35.4624C198.289 35.8464 197.873 36.1088 197.259 36.2496ZM207.3 30.9312C207.3 30.8544 207.274 30.7712 207.223 30.6816C207.184 30.5792 207.159 30.5152 207.146 30.4896C207.018 30.2592 206.954 30.0736 206.954 29.9328C206.954 29.8816 207.044 29.8048 207.223 29.7024C207.415 29.5872 207.645 29.4912 207.914 29.4144C208.183 29.3248 208.432 29.28 208.663 29.28C208.893 29.28 209.079 29.3696 209.22 29.5488C209.36 29.728 209.431 29.9648 209.431 30.2592C209.431 31.104 209.162 31.9872 208.624 32.9088C208.087 33.8304 207.376 34.6048 206.493 35.232C205.623 35.8464 204.714 36.1536 203.767 36.1536C203.191 36.1536 202.781 35.8784 202.538 35.328C202.308 34.7776 202.192 34.144 202.192 33.4272C202.192 32.7872 202.359 31.8016 202.692 30.4704C203.024 29.1264 203.543 27.9104 204.247 26.8224C204.951 25.7216 205.834 25.1712 206.896 25.1712C207.216 25.1712 207.504 25.2672 207.76 25.4592C208.016 25.6384 208.272 25.8688 208.528 26.1504C208.708 26.3296 208.81 26.4256 208.836 26.4384L209.488 25.9776C209.86 25.7088 210.276 25.4912 210.736 25.3248C211.21 25.1584 211.645 25.0752 212.042 25.0752C212.58 25.0752 212.976 25.408 213.232 26.0736C213.488 26.7264 213.616 27.4688 213.616 28.3008C213.616 28.7232 213.584 29.0752 213.52 29.3568L212.004 35.5776C211.927 35.8848 211.741 36.1536 211.447 36.384C211.152 36.6272 210.736 36.7488 210.199 36.7488C209.981 36.7488 209.834 36.6976 209.757 36.5952C209.68 36.4928 209.642 36.3456 209.642 36.1536C209.642 36.0768 209.655 35.9616 209.68 35.808L211.12 30.0672C211.287 29.3504 211.37 28.7168 211.37 28.1664C211.37 27.7824 211.319 27.3856 211.216 26.976C209.885 27.7056 208.944 28.0704 208.394 28.0704C208.151 28.0704 207.914 27.9872 207.684 27.8208C207.466 27.6544 207.242 27.4624 207.012 27.2448C206.794 27.0144 206.647 26.8608 206.57 26.784C206.224 27.2576 205.866 27.9424 205.495 28.8384C205.124 29.7344 204.816 30.6304 204.573 31.5264C204.33 32.4224 204.208 33.1008 204.208 33.5616C204.208 33.8944 204.292 34.0608 204.458 34.0608C204.765 34.0608 205.143 33.8816 205.591 33.5232C206.052 33.1648 206.448 32.7424 206.781 32.256C207.127 31.7568 207.3 31.3152 207.3 30.9312ZM214.13 22.3488C214.207 22.3872 214.258 22.4704 214.284 22.5984C214.322 22.7136 214.342 22.8224 214.342 22.9248C214.342 23.1552 214.233 23.3216 214.015 23.424C213.798 23.5264 213.554 23.5776 213.286 23.5776C213.068 23.5776 212.85 23.5072 212.633 23.3664C212.415 23.2128 212.121 22.9696 211.75 22.6368C211.238 22.176 210.783 21.824 210.386 21.5808C209.977 21.3376 209.516 21.216 209.004 21.216C208.594 21.216 208.178 21.2928 207.756 21.4464C207.321 21.5872 207.103 21.792 207.103 22.0608C207.103 22.2656 207.257 22.4448 207.564 22.5984C207.871 22.7392 208.23 22.848 208.639 22.9248C209.036 22.9888 209.369 23.0208 209.638 23.0208L210.559 23.0016C210.726 22.9888 210.937 22.9824 211.193 22.9824C211.474 22.9824 211.615 23.0592 211.615 23.2128C211.615 23.4432 211.5 23.6416 211.27 23.808C211.026 23.9744 210.745 24.1024 210.425 24.192C210.092 24.2816 209.804 24.3264 209.561 24.3264C208.818 24.3264 208.095 24.2432 207.391 24.0768C206.674 23.9104 206.092 23.6672 205.644 23.3472C205.183 23.0272 204.953 22.6432 204.953 22.1952C204.953 21.7088 205.19 21.2736 205.663 20.8896C206.124 20.5056 206.687 20.2112 207.353 20.0064C208.006 19.7888 208.588 19.68 209.1 19.68C209.919 19.68 210.617 19.8208 211.193 20.1024C211.769 20.3712 212.332 20.8192 212.882 21.4464C213.087 21.6768 213.305 21.8688 213.535 22.0224C213.766 22.176 213.964 22.2848 214.13 22.3488ZM223.212 35.7888C223.058 36.096 222.86 36.3328 222.617 36.4992C222.374 36.6656 221.99 36.7488 221.465 36.7488C221.055 36.7488 220.85 36.5504 220.85 36.1536C220.85 36.0768 220.863 35.9616 220.889 35.808L221.234 34.3296C221.324 33.984 221.407 33.6576 221.484 33.3504C221.561 33.0432 221.631 32.768 221.695 32.5248C221.977 31.488 222.182 30.656 222.31 30.0288C222.45 29.3888 222.521 28.7936 222.521 28.2432C222.521 27.3088 221.906 26.8416 220.678 26.8416C219.91 26.8416 219.161 26.9696 218.431 27.2256C217.714 27.4688 217.183 27.808 216.838 28.2432C217.286 28.2816 217.682 28.4288 218.028 28.6848C218.374 28.928 218.546 29.2416 218.546 29.6256C218.546 29.7408 218.527 29.8688 218.489 30.0096L218.028 31.6608C217.695 32.8 217.439 33.7152 217.26 34.4064C217.081 35.0976 216.985 35.6672 216.972 36.1152C216.754 36.2688 216.486 36.3456 216.166 36.3456C215.807 36.3456 215.532 36.2688 215.34 36.1152C215.161 35.9744 215.071 35.7824 215.071 35.5392C215.071 34.7712 215.193 33.8624 215.436 32.8128C215.679 31.7632 216.012 30.6752 216.434 29.5488C216.306 29.4592 216.089 29.3504 215.782 29.2224C215.462 29.0816 215.225 28.9536 215.071 28.8384C214.93 28.7104 214.86 28.5376 214.86 28.32C214.86 27.7568 215.129 27.2384 215.666 26.7648C216.217 26.2784 216.946 25.8944 217.855 25.6128C218.764 25.3312 219.73 25.1904 220.754 25.1904C221.433 25.1904 222.066 25.3184 222.655 25.5744C223.257 25.8176 223.737 26.1888 224.095 26.688C224.466 27.1744 224.652 27.776 224.652 28.4928C224.652 29.1584 224.569 29.8816 224.402 30.6624C224.249 31.4304 224.031 32.3648 223.75 33.4656C223.494 34.4384 223.314 35.2128 223.212 35.7888Z" fill="black"/>
<rect x="0.5" y="0.5" width="348" height="58" stroke="black"/>
</svg>
