<svg width="62" height="55" viewBox="0 0 62 55" fill="none" xmlns="http://www.w3.org/2000/svg">
<path d="M0.939339 10.9393C0.353554 11.5251 0.353554 12.4749 0.939339 13.0607L10.4853 22.6066C11.0711 23.1924 12.0208 23.1924 12.6066 22.6066C13.1924 22.0208 13.1924 21.0711 12.6066 20.4853L4.12132 12L12.6066 3.51472C13.1924 2.92893 13.1924 1.97919 12.6066 1.3934C12.0208 0.807611 11.0711 0.807611 10.4853 1.3934L0.939339 10.9393ZM46 10.5L2 10.5V13.5L46 13.5V10.5Z" fill="black"/>
<path opacity="0.9" d="M46 12C50.9706 12 55 15.8056 55 20.5C55 25.1944 50.9706 29 46 29" stroke="black" stroke-width="3"/>
<path d="M24 29L46 29" stroke="black" stroke-width="3"/>
<path d="M6.78025 47.16C6.01225 47.16 5.32958 47.0693 4.73225 46.888C4.13492 46.7067 3.66025 46.4187 3.30825 46.024C2.96692 45.6293 2.79625 45.1067 2.79625 44.456C2.79625 44.0187 2.89758 43.6347 3.10025 43.304C3.30292 42.9627 3.60158 42.696 3.99625 42.504C3.66558 42.376 3.38825 42.1573 3.16425 41.848C2.95092 41.5387 2.84425 41.1547 2.84425 40.696C2.84425 39.8747 3.09492 39.256 3.59625 38.84C4.10825 38.4133 4.75892 38.2 5.54825 38.2C5.85758 38.2 6.12425 38.2213 6.34825 38.264C6.57225 38.296 6.77492 38.344 6.95625 38.408V39.736C6.64692 39.6507 6.28425 39.608 5.86825 39.608C5.44158 39.608 5.11092 39.6933 4.87625 39.864C4.64158 40.0347 4.52425 40.312 4.52425 40.696C4.52425 41.1013 4.65758 41.3947 4.92425 41.576C5.19092 41.7467 5.55892 41.832 6.02825 41.832H6.94025L7.02025 43.128H5.99625C4.98292 43.128 4.47625 43.5707 4.47625 44.456C4.47625 44.8933 4.65758 45.224 5.02025 45.448C5.38292 45.6613 5.94292 45.768 6.70025 45.768C8.20425 45.768 8.95625 45.1547 8.95625 43.928V38.36H10.6843V43.72C10.6843 44.8827 10.3589 45.7467 9.70825 46.312C9.05758 46.8773 8.08158 47.16 6.78025 47.16ZM7.01512 37.048V35.576H5.75112V34.376H8.21512V35.832H11.6711L11.6071 37.048H7.01512ZM15.9431 47.16C15.2605 47.16 14.6151 47.096 14.0071 46.968C13.4098 46.84 12.9085 46.6907 12.5031 46.52V42.072H15.9271L16.0071 43.4H14.1831V45.496C14.4285 45.5813 14.7058 45.6507 15.0151 45.704C15.3351 45.7467 15.6445 45.768 15.9431 45.768C16.8925 45.768 17.5591 45.544 17.9431 45.096C18.3378 44.6373 18.5351 43.8427 18.5351 42.712C18.5351 41.9227 18.4391 41.304 18.2471 40.856C18.0551 40.3973 17.7351 40.0773 17.2871 39.896C16.8498 39.704 16.2525 39.608 15.4951 39.608C15.0365 39.608 14.5565 39.64 14.0551 39.704C13.5538 39.768 13.0791 39.8747 12.6311 40.024V38.68C13.0791 38.5307 13.5911 38.4133 14.1671 38.328C14.7538 38.2427 15.3405 38.2 15.9271 38.2C17.4418 38.2 18.5351 38.584 19.2071 39.352C19.8791 40.1093 20.2151 41.2293 20.2151 42.712C20.2151 44.1627 19.8791 45.2667 19.2071 46.024C18.5351 46.7813 17.4471 47.16 15.9431 47.16ZM24.8583 47.16C23.9303 47.16 23.2049 46.888 22.6823 46.344C22.1703 45.8 21.9143 45.0267 21.9143 44.024V38.36H23.6583V43.944C23.6583 44.5947 23.8023 45.064 24.0903 45.352C24.3783 45.6293 24.8263 45.768 25.4343 45.768C25.9036 45.768 26.3516 45.672 26.7783 45.48C27.2049 45.2773 27.5569 45.0267 27.8343 44.728V38.36H29.5623V47H27.9783L27.8983 46.056C27.5036 46.3867 27.0556 46.6533 26.5543 46.856C26.0636 47.0587 25.4983 47.16 24.8583 47.16ZM31.7458 47V43.88C31.7458 43.4107 31.8364 43 32.0178 42.648C32.1991 42.2853 32.5298 42.0347 33.0098 41.896L31.2818 41.464V39.672C31.7084 39.2987 32.2684 38.9627 32.9618 38.664C33.6658 38.3547 34.4871 38.2 35.4258 38.2C36.6951 38.2 37.6711 38.4667 38.3538 39C39.0364 39.5227 39.3778 40.4027 39.3778 41.64V47H37.6338V41.592C37.6338 40.856 37.4578 40.344 37.1058 40.056C36.7644 39.7573 36.1831 39.608 35.3618 39.608C34.8284 39.608 34.3324 39.6827 33.8738 39.832C33.4151 39.9813 33.0524 40.1787 32.7858 40.424V40.712L34.6098 41.176V42.328C34.1938 42.4347 33.9004 42.6053 33.7298 42.84C33.5591 43.0747 33.4738 43.4267 33.4738 43.896V47H31.7458ZM44.0863 47.16C43.5423 47.16 43.0463 47.0747 42.5983 46.904C42.1609 46.7227 41.8089 46.44 41.5423 46.056C41.2756 45.6613 41.1423 45.1493 41.1423 44.52C41.1423 43.6773 41.4249 43.0213 41.9903 42.552C42.5663 42.0827 43.4036 41.848 44.5023 41.848H47.1423V41.304C47.1423 40.6747 46.9823 40.2373 46.6623 39.992C46.3529 39.736 45.7716 39.608 44.9183 39.608C44.4169 39.608 43.9316 39.64 43.4623 39.704C43.0036 39.768 42.5503 39.8747 42.1023 40.024V38.68C42.5183 38.5413 42.9983 38.4293 43.5423 38.344C44.0969 38.248 44.6516 38.2 45.2063 38.2C46.4649 38.2 47.3929 38.4667 47.9903 39C48.5876 39.5227 48.8863 40.344 48.8863 41.464V47H47.1423V43.192H44.6143C44.0169 43.192 43.5636 43.2933 43.2543 43.496C42.9556 43.688 42.8063 44.0293 42.8063 44.52C42.8063 44.9893 42.9396 45.3147 43.2063 45.496C43.4836 45.6773 43.9316 45.768 44.5503 45.768C44.9769 45.768 45.3449 45.7253 45.6543 45.64V46.968C45.4516 47.0213 45.2169 47.064 44.9503 47.096C44.6836 47.1387 44.3956 47.16 44.0863 47.16ZM45.0902 37.048V34.712H46.5302V35.832H50.6743L50.5943 37.048H45.0902ZM54.8663 47.16C53.6289 47.16 52.6583 46.8667 51.9543 46.28C51.2609 45.6933 50.9143 44.8133 50.9143 43.64V38.36H52.6583V43.704C52.6583 44.4187 52.8449 44.9413 53.2183 45.272C53.6023 45.6027 54.1516 45.768 54.8663 45.768C55.5916 45.768 56.1409 45.6027 56.5143 45.272C56.8983 44.9413 57.0903 44.4187 57.0903 43.704V38.36H58.8183V43.64C58.8183 44.8133 58.4716 45.6933 57.7783 46.28C57.0849 46.8667 56.1143 47.16 54.8663 47.16Z" fill="black"/>
</svg>
