<svg width="473" height="311" viewBox="0 0 473 311" fill="none" xmlns="http://www.w3.org/2000/svg">
<circle cx="155.5" cy="155.5" r="155.5" fill="#FF6C4E" fill-opacity="0.5"/>
<circle cx="317.5" cy="155.5" r="155.5" fill="#FF6C4E" fill-opacity="0.5"/>
<path d="M39.2401 143.659C39.4429 142.848 39.6549 142.313 39.8761 142.055C40.1157 141.779 40.5397 141.64 41.148 141.64C41.6457 141.64 42.0696 141.696 42.4199 141.806C42.7885 141.917 42.9821 142.083 43.0005 142.304C43.0927 142.359 43.1388 142.507 43.1388 142.746C43.1388 143.133 43.0374 143.723 42.8346 144.516C42.6318 145.309 42.3369 146.341 41.9498 147.613C41.5074 149.143 41.148 150.442 40.8715 151.511C40.595 152.581 40.4198 153.493 40.3461 154.249L40.3185 154.636C40.3185 155.373 40.5028 155.982 40.8715 156.461C41.2401 156.922 41.6917 157.263 42.2263 157.484C42.7609 157.687 43.2862 157.788 43.8024 157.788C44.9821 157.788 45.913 157.521 46.595 156.986C47.277 156.433 47.7932 155.687 48.1434 154.746C48.5121 153.788 48.8531 152.488 49.1665 150.848C49.3324 150.018 49.5904 148.82 49.9407 147.253C50.2909 145.687 50.5213 144.737 50.6319 144.405C50.7978 143.926 50.8992 143.557 50.9361 143.299C51.0467 142.875 51.1573 142.553 51.2679 142.332C51.3969 142.11 51.5904 141.917 51.8485 141.751C51.9222 141.733 52.0236 141.714 52.1527 141.696C52.2817 141.659 52.3831 141.64 52.4568 141.64C53.0835 141.64 53.5997 141.696 54.0052 141.806C54.4292 141.917 54.678 142.055 54.7518 142.221C54.4753 143.309 54.0882 144.931 53.5905 147.087C53.1112 149.226 52.761 150.922 52.5398 152.175C51.5259 157.779 48.4844 160.581 43.4153 160.581C42.1249 160.581 40.9728 160.323 39.959 159.806C38.9452 159.29 38.1433 158.581 37.5535 157.677C36.982 156.756 36.6963 155.714 36.6963 154.553C36.6963 153.963 36.7793 153.355 36.9452 152.728L39.2401 143.659ZM57.9898 158.783C57.9714 158.894 57.7225 159.899 57.2433 161.797C56.7824 163.714 56.4599 164.922 56.2755 165.419C56.2018 165.622 55.9806 165.77 55.6119 165.862C55.2433 165.972 54.976 166.028 54.8101 166.028C54.4045 166.028 54.0727 165.899 53.8147 165.641C53.5382 165.383 53.3907 164.995 53.3723 164.479L55.3078 156.544C56.0451 153.65 56.6534 151.18 57.1327 149.134C57.1327 149.023 57.0682 148.728 56.9391 148.249C56.8838 147.954 56.8285 147.677 56.7732 147.419C56.7179 147.161 56.6811 146.968 56.6626 146.839C56.6995 146.599 56.8838 146.405 57.2156 146.258C57.5659 146.11 57.8884 146.037 58.1834 146.037C58.6258 146.037 59.059 146.193 59.4829 146.507C59.9253 146.82 60.1742 147.198 60.2295 147.64L60.1465 148.359C60.976 147.327 62.0359 146.811 63.3263 146.811C64.377 146.811 65.2802 147.069 66.036 147.585C66.8102 148.083 67.4 148.765 67.8056 149.631C68.2111 150.479 68.4139 151.419 68.4139 152.452C68.4139 153.834 68.1466 155.134 67.612 156.35C67.0775 157.567 66.2756 158.553 65.2065 159.309C64.1373 160.046 62.847 160.415 61.3355 160.415C60.8562 160.415 60.2387 160.258 59.4829 159.945C58.7272 159.613 58.2295 159.226 57.9898 158.783ZM58.847 155.272C58.8101 155.493 58.7917 155.65 58.7917 155.742C58.8101 156.203 58.9576 156.608 59.2341 156.958C59.529 157.309 59.87 157.585 60.2571 157.788C60.6442 157.972 60.9668 158.065 61.2249 158.065C62.0359 158.065 62.7456 157.76 63.3539 157.152C63.9807 156.525 64.4599 155.76 64.7917 154.857C65.1235 153.935 65.2894 153.06 65.2894 152.23C65.2894 151.456 65.0774 150.774 64.6535 150.184C64.2479 149.576 63.7318 149.272 63.1051 149.272C62.4046 149.272 61.824 149.428 61.3631 149.742C60.9207 150.037 60.4138 150.498 59.8424 151.124L58.847 155.272ZM76.8283 159.088C75.4458 160.009 74.1278 160.47 72.8744 160.47C72.3951 160.47 71.8513 160.313 71.243 160C70.6532 159.687 70.1462 159.263 69.7223 158.728C69.2983 158.194 69.0863 157.604 69.0863 156.958C69.0863 155.926 69.4273 154.608 70.1094 153.005C70.7914 151.401 71.7499 150 72.985 148.802C74.2384 147.604 75.6947 147.004 77.3537 147.004C78.7546 147.004 79.9251 147.235 80.8652 147.696C81.8053 148.157 82.2754 148.82 82.2754 149.687C82.2754 149.742 82.2385 149.935 82.1648 150.267C81.2247 154.341 80.386 157.733 79.6486 160.442C79.2247 162.028 78.6348 163.244 77.879 164.092C77.1417 164.959 76.303 165.539 75.3629 165.834C74.4412 166.129 73.3536 166.277 72.1002 166.277C71.1969 166.277 70.3767 166.037 69.6393 165.558C68.9204 165.078 68.561 164.396 68.561 163.512C68.561 162.885 68.9573 162.571 69.7499 162.571C69.9343 162.571 70.1462 162.71 70.3859 162.986C70.6808 163.3 70.985 163.539 71.2983 163.705C71.6301 163.889 72.1094 163.982 72.7361 163.982C73.75 163.982 74.6255 163.558 75.3629 162.71C76.1002 161.862 76.5887 160.654 76.8283 159.088ZM77.409 156.488C77.5564 155.677 77.8053 154.719 78.1555 153.613C78.5242 152.488 79.0127 151.364 79.621 150.24C79.5288 149.871 79.2339 149.631 78.7362 149.521C78.2569 149.392 77.8237 149.327 77.4366 149.327C76.7546 149.327 76.0173 149.788 75.2246 150.71C74.432 151.631 73.75 152.71 73.1785 153.945C72.6255 155.161 72.349 156.147 72.349 156.903C72.349 157.272 72.4504 157.539 72.6532 157.705C72.8559 157.853 73.114 157.926 73.4274 157.926C73.8513 157.926 74.5242 157.77 75.4458 157.456C76.3859 157.124 77.0403 156.802 77.409 156.488ZM87.0003 158.949C86.9819 159.078 86.945 159.3 86.8897 159.613C86.8528 159.926 86.7146 160.147 86.4749 160.277C86.2537 160.406 85.8759 160.47 85.3413 160.47C84.733 160.47 84.2814 160.406 83.9864 160.277C83.6915 160.147 83.5348 159.871 83.5164 159.447C83.6639 158.71 83.9035 157.401 84.2353 155.521C84.3459 154.894 84.521 153.954 84.7606 152.7C85.0003 151.429 85.1846 150.507 85.3136 149.935C85.498 148.627 85.756 147.769 86.0878 147.364C86.4196 146.94 86.8252 146.728 87.3044 146.728C87.9496 146.728 88.3736 146.82 88.5763 147.004C88.7975 147.189 88.9174 147.428 88.9358 147.723L88.7146 149.355C89.2676 148.636 89.922 148.046 90.6777 147.585C91.4335 147.106 92.1155 146.866 92.7238 146.866C93.5349 146.866 94.1709 147.014 94.6317 147.309C95.0925 147.585 95.3229 147.945 95.3229 148.387C95.3229 148.719 95.1202 148.977 94.7146 149.161C94.3275 149.346 93.8114 149.465 93.1662 149.521C92.1524 149.613 91.1478 150.046 90.1524 150.82C89.157 151.594 88.4381 152.507 87.9957 153.558L87.0003 158.949ZM105.392 158.562C105.429 159.041 105.493 159.475 105.585 159.862C105.549 159.972 105.383 160.083 105.088 160.194C104.811 160.304 104.572 160.359 104.369 160.359C103.705 160.359 103.226 160.258 102.931 160.055C102.655 159.871 102.516 159.585 102.516 159.198C102.516 158.829 102.553 158.461 102.627 158.092C102.221 158.645 101.622 159.106 100.83 159.475C100.055 159.825 99.4287 160 98.9494 160C97.7144 160 96.6821 159.641 95.8526 158.922C95.0415 158.203 94.636 157.051 94.636 155.465C94.636 153.972 94.9862 152.571 95.6867 151.263C96.4056 149.935 97.3918 148.875 98.6453 148.083C99.8987 147.272 101.29 146.866 102.82 146.866C103.115 146.866 103.502 146.949 103.982 147.115C104.461 147.263 104.94 147.53 105.42 147.917C105.917 148.286 106.332 148.765 106.664 149.355C106.811 149.355 106.986 149.428 107.189 149.576C107.392 149.723 107.493 149.871 107.493 150.018C107.493 150.184 107.466 150.35 107.41 150.516L105.392 158.562ZM104.148 150.82C104.037 150.415 103.816 150.074 103.484 149.797C103.171 149.521 102.885 149.382 102.627 149.382C101.779 149.382 100.977 149.687 100.221 150.295C99.484 150.885 98.8849 151.622 98.4241 152.507C97.9632 153.392 97.7328 154.23 97.7328 155.023C97.7328 155.797 97.825 156.433 98.0093 156.931C98.1936 157.429 98.5531 157.677 99.0877 157.677C99.5485 157.677 100.074 157.539 100.664 157.263C101.272 156.986 101.807 156.617 102.267 156.157C102.747 155.677 103.06 155.18 103.208 154.664L104.148 150.82ZM120.93 139.511C121.004 139.235 121.216 139.014 121.566 138.848C121.934 138.663 122.322 138.571 122.727 138.571C123.059 138.571 123.418 138.645 123.805 138.792C124.193 138.94 124.386 139.152 124.386 139.428L122.644 146.23C121.114 152.184 120.22 155.816 119.962 157.124C119.852 157.677 119.796 158.101 119.796 158.396C119.796 158.894 119.852 159.382 119.962 159.862C119.925 159.972 119.778 160.083 119.52 160.194C119.28 160.304 119.059 160.359 118.856 160.359C118.487 160.359 118.082 160.313 117.64 160.221C117.197 160.129 116.921 160.028 116.81 159.917C116.644 159.77 116.561 159.475 116.561 159.032C116.561 158.7 116.598 158.387 116.672 158.092C116.285 158.645 115.695 159.106 114.902 159.475C114.128 159.825 113.501 160 113.022 160C110.202 160 108.792 158.479 108.792 155.438C108.792 154.111 109.086 152.783 109.676 151.456C110.285 150.129 111.142 149.032 112.248 148.166C113.372 147.299 114.672 146.866 116.146 146.866C116.552 146.866 117.004 147.032 117.501 147.364C117.999 147.677 118.404 148.037 118.718 148.442C119.123 146.728 119.483 145.299 119.796 144.157C119.944 143.548 120.11 142.857 120.294 142.083C120.497 141.29 120.709 140.433 120.93 139.511ZM118.11 151.014C117.999 150.608 117.732 150.24 117.308 149.908C116.902 149.558 116.57 149.382 116.312 149.382C115.464 149.382 114.672 149.659 113.934 150.212C113.197 150.765 112.607 151.484 112.165 152.369C111.741 153.253 111.529 154.166 111.529 155.106C111.529 155.806 111.658 156.433 111.916 156.986C112.174 157.539 112.57 157.816 113.105 157.816C113.566 157.816 114.1 157.668 114.709 157.373C115.335 157.06 115.888 156.664 116.368 156.184C116.847 155.687 117.142 155.18 117.252 154.664L118.11 151.014ZM128.322 160.581C126.515 160.581 125.197 160.221 124.368 159.502C123.538 158.783 123.124 157.825 123.124 156.627C123.124 154.876 123.557 153.253 124.423 151.76C125.308 150.267 126.479 149.087 127.935 148.221C129.409 147.336 130.995 146.894 132.691 146.894C133.723 146.894 134.589 147.189 135.29 147.779C135.99 148.35 136.34 149.198 136.34 150.322C136.34 151.576 135.87 152.571 134.93 153.309C134.009 154.028 132.838 154.562 131.419 154.912C130.018 155.244 128.331 155.502 126.359 155.687C126.285 155.963 126.248 156.249 126.248 156.544C126.248 157.06 126.46 157.456 126.884 157.733C127.327 158.009 127.944 158.147 128.737 158.147C129.327 158.147 129.999 158.028 130.755 157.788C131.529 157.548 132.119 157.152 132.525 156.599C132.746 156.286 133.022 156.037 133.354 155.852C133.704 155.668 134.036 155.576 134.35 155.576C134.645 155.576 134.884 155.677 135.069 155.88C135.253 156.064 135.345 156.35 135.345 156.737C135.124 157.327 134.691 157.926 134.045 158.535C133.4 159.124 132.58 159.613 131.585 160C130.589 160.387 129.502 160.581 128.322 160.581ZM127.133 153.143C127.778 153.124 128.589 153.023 129.566 152.839C130.543 152.654 131.428 152.332 132.221 151.871C133.013 151.392 133.41 150.765 133.41 149.991C133.41 149.769 133.29 149.594 133.05 149.465C132.81 149.318 132.552 149.244 132.276 149.244C131.723 149.244 131.087 149.456 130.368 149.88C129.668 150.304 129.013 150.82 128.405 151.429C127.797 152.037 127.373 152.608 127.133 153.143Z" fill="#EDEAE5"/>
<path d="M180.1 143.659C180.303 142.848 180.515 142.313 180.736 142.055C180.976 141.779 181.399 141.64 182.008 141.64C182.505 141.64 182.929 141.696 183.28 141.806C183.648 141.917 183.842 142.083 183.86 142.304C183.953 142.359 183.999 142.507 183.999 142.746C183.999 143.133 183.897 143.723 183.694 144.516C183.492 145.309 183.197 146.341 182.81 147.613C182.367 149.143 182.008 150.442 181.731 151.511C181.455 152.581 181.28 153.493 181.206 154.249L181.178 154.636C181.178 155.373 181.363 155.982 181.731 156.461C182.1 156.922 182.552 157.263 183.086 157.484C183.621 157.687 184.146 157.788 184.662 157.788C185.842 157.788 186.773 157.521 187.455 156.986C188.137 156.433 188.653 155.687 189.003 154.746C189.372 153.788 189.713 152.488 190.026 150.848C190.192 150.018 190.45 148.82 190.8 147.253C191.151 145.687 191.381 144.737 191.492 144.405C191.658 143.926 191.759 143.557 191.796 143.299C191.906 142.875 192.017 142.553 192.128 142.332C192.257 142.11 192.45 141.917 192.708 141.751C192.782 141.733 192.883 141.714 193.012 141.696C193.142 141.659 193.243 141.64 193.317 141.64C193.943 141.64 194.46 141.696 194.865 141.806C195.289 141.917 195.538 142.055 195.612 142.221C195.335 143.309 194.948 144.931 194.45 147.087C193.971 149.226 193.621 150.922 193.4 152.175C192.386 157.779 189.344 160.581 184.275 160.581C182.985 160.581 181.833 160.323 180.819 159.806C179.805 159.29 179.003 158.581 178.413 157.677C177.842 156.756 177.556 155.714 177.556 154.553C177.556 153.963 177.639 153.355 177.805 152.728L180.1 143.659ZM198.85 158.783C198.831 158.894 198.582 159.899 198.103 161.797C197.642 163.714 197.32 164.922 197.135 165.419C197.062 165.622 196.84 165.77 196.472 165.862C196.103 165.972 195.836 166.028 195.67 166.028C195.264 166.028 194.933 165.899 194.675 165.641C194.398 165.383 194.251 164.995 194.232 164.479L196.168 156.544C196.905 153.65 197.513 151.18 197.993 149.134C197.993 149.023 197.928 148.728 197.799 148.249C197.744 147.954 197.688 147.677 197.633 147.419C197.578 147.161 197.541 146.968 197.522 146.839C197.559 146.599 197.744 146.405 198.075 146.258C198.426 146.11 198.748 146.037 199.043 146.037C199.486 146.037 199.919 146.193 200.343 146.507C200.785 146.82 201.034 147.198 201.089 147.64L201.006 148.359C201.836 147.327 202.896 146.811 204.186 146.811C205.237 146.811 206.14 147.069 206.896 147.585C207.67 148.083 208.26 148.765 208.665 149.631C209.071 150.479 209.274 151.419 209.274 152.452C209.274 153.834 209.006 155.134 208.472 156.35C207.937 157.567 207.135 158.553 206.066 159.309C204.997 160.046 203.707 160.415 202.195 160.415C201.716 160.415 201.099 160.258 200.343 159.945C199.587 159.613 199.089 159.226 198.85 158.783ZM199.707 155.272C199.67 155.493 199.652 155.65 199.652 155.742C199.67 156.203 199.817 156.608 200.094 156.958C200.389 157.309 200.73 157.585 201.117 157.788C201.504 157.972 201.827 158.065 202.085 158.065C202.896 158.065 203.605 157.76 204.214 157.152C204.841 156.525 205.32 155.76 205.652 154.857C205.983 153.935 206.149 153.06 206.149 152.23C206.149 151.456 205.937 150.774 205.513 150.184C205.108 149.576 204.592 149.272 203.965 149.272C203.264 149.272 202.684 149.428 202.223 149.742C201.781 150.037 201.274 150.498 200.702 151.124L199.707 155.272ZM221.476 157.484C221.144 158.424 220.49 159.18 219.513 159.751C218.536 160.304 217.172 160.581 215.421 160.581C214.204 160.581 213.2 160.369 212.407 159.945C211.614 159.521 211.034 158.968 210.665 158.286C210.296 157.604 210.112 156.866 210.112 156.074C210.112 154.304 210.462 152.728 211.163 151.346C211.863 149.945 212.849 148.857 214.121 148.083C215.412 147.29 216.905 146.894 218.601 146.894C219.67 146.894 220.591 147.207 221.366 147.834C222.14 148.461 222.527 149.29 222.527 150.322C222.527 150.728 222.379 151.069 222.085 151.346C221.808 151.604 221.402 151.733 220.868 151.733C220.426 151.733 220.112 151.622 219.928 151.401C219.743 151.161 219.651 150.885 219.651 150.571C219.651 150.166 219.513 149.843 219.237 149.604C218.96 149.364 218.61 149.244 218.186 149.244C217.633 149.244 216.969 149.539 216.195 150.129C215.439 150.719 214.785 151.539 214.232 152.59C213.697 153.622 213.43 154.783 213.43 156.074C213.43 156.645 213.642 157.134 214.066 157.539C214.49 157.945 215.08 158.147 215.836 158.147C216.462 158.147 216.969 158.028 217.356 157.788C217.743 157.548 218.158 157.207 218.601 156.765C218.877 156.488 219.108 156.286 219.292 156.157C219.476 156.028 219.67 155.963 219.873 155.963C220.315 155.963 220.674 156.092 220.951 156.35C221.227 156.59 221.402 156.968 221.476 157.484ZM232.343 168.986C232.159 169.152 231.975 169.3 231.79 169.429C231.606 169.576 231.449 169.65 231.32 169.65C230.859 169.65 230.491 169.456 230.214 169.069C229.956 168.682 229.818 168.166 229.8 167.521L232.343 157.816C231.864 158.719 231.247 159.41 230.491 159.889C229.735 160.35 228.952 160.581 228.141 160.581C227.385 160.581 226.684 160.35 226.039 159.889C225.412 159.41 224.915 158.802 224.546 158.065C224.177 157.327 223.993 156.59 223.993 155.852C223.993 154.912 224.14 153.733 224.435 152.313C224.73 150.875 225.21 149.604 225.873 148.498C226.537 147.373 227.403 146.811 228.472 146.811C228.915 146.811 229.274 146.866 229.551 146.977C229.846 147.087 229.993 147.235 229.993 147.419C229.993 147.475 229.975 147.539 229.938 147.613C229.127 148.94 228.509 150.359 228.085 151.871C227.68 153.382 227.477 154.719 227.477 155.88C227.477 156.23 227.486 156.479 227.505 156.627C227.541 157.032 227.67 157.373 227.892 157.65C228.113 157.908 228.445 158.037 228.887 158.037C229.975 158.037 231.016 156.885 232.012 154.581C233.025 152.276 233.818 150.074 234.389 147.972C234.5 147.585 234.592 147.327 234.666 147.198C234.758 147.051 234.915 146.958 235.136 146.922C235.357 146.866 235.744 146.839 236.297 146.839C237.293 146.839 237.79 147.134 237.79 147.723C237.79 147.852 237.735 148.083 237.624 148.415C237.459 149.134 237.173 150.461 236.767 152.396C235.956 156.175 235.385 158.682 235.053 159.917C234.279 162.793 233.753 164.866 233.477 166.138L232.869 168.544L232.343 168.986ZM250.391 156.737C250.17 157.327 249.737 157.926 249.091 158.535C248.446 159.124 247.626 159.613 246.631 160C245.635 160.387 244.548 160.581 243.368 160.581C241.561 160.581 240.225 160.212 239.359 159.475C238.492 158.719 238.059 157.742 238.059 156.544C238.059 154.811 238.501 153.207 239.386 151.733C240.271 150.24 241.46 149.06 242.953 148.193C244.446 147.327 246.041 146.894 247.737 146.894C248.787 146.894 249.654 147.207 250.336 147.834C251.036 148.442 251.386 149.272 251.386 150.322C251.386 150.728 251.22 151.069 250.889 151.346C250.557 151.604 250.114 151.733 249.561 151.733C249.119 151.733 248.815 151.631 248.649 151.429C248.502 151.226 248.428 150.958 248.428 150.627L248.455 149.991C248.455 149.769 248.336 149.594 248.096 149.465C247.856 149.318 247.598 149.244 247.322 149.244C246.75 149.244 245.976 149.585 244.999 150.267C244.041 150.949 243.193 151.852 242.455 152.977C241.737 154.083 241.377 155.272 241.377 156.544C241.377 157.06 241.58 157.456 241.985 157.733C242.391 158.009 242.99 158.147 243.783 158.147C244.28 158.147 244.852 158.046 245.497 157.843C246.142 157.641 246.548 157.382 246.714 157.069C247.34 155.926 247.912 155.355 248.428 155.355C249.184 155.355 249.691 155.502 249.949 155.797C250.225 156.074 250.373 156.387 250.391 156.737ZM258.548 146.009C256.631 154.083 255.516 158.645 255.203 159.696C255.166 159.806 254.972 159.945 254.622 160.111C254.29 160.295 254.06 160.387 253.931 160.387C253.452 160.387 253.018 160.267 252.631 160.028C252.244 159.806 252.032 159.41 251.995 158.839C252.014 158.747 252.06 158.488 252.134 158.065C252.207 157.641 252.309 157.18 252.438 156.682C253.138 154.046 253.949 150.82 254.871 147.004L256.198 141.668C256.18 141.557 256.17 141.401 256.17 141.198C256.17 140.479 256.373 139.862 256.779 139.345C257.203 138.829 257.682 138.571 258.217 138.571C258.567 138.571 258.899 138.709 259.212 138.986C259.525 139.244 259.774 139.64 259.959 140.175L258.548 146.009ZM263.198 143.576C263.198 143.004 263.373 142.498 263.723 142.055C264.092 141.613 264.599 141.392 265.244 141.392C265.926 141.392 266.516 141.604 267.014 142.027C267.53 142.451 267.788 142.931 267.788 143.465C267.788 144 267.53 144.461 267.014 144.848C266.497 145.235 265.898 145.428 265.216 145.428C264.553 145.428 264.046 145.263 263.696 144.931C263.364 144.581 263.198 144.129 263.198 143.576ZM266.101 148.47C265.124 152.452 264.378 155.447 263.862 157.456C263.788 157.751 263.751 158.074 263.751 158.424L263.779 159.198C263.779 159.512 263.677 159.733 263.474 159.862C263.29 159.991 262.885 160.065 262.258 160.083C261.65 160.083 261.189 160.018 260.875 159.889C260.562 159.76 260.405 159.484 260.405 159.06C260.405 158.857 260.636 157.779 261.097 155.825C261.576 153.871 262.221 151.327 263.032 148.193L262.396 147.364C262.341 147.309 262.313 147.244 262.313 147.17C262.313 146.986 262.516 146.839 262.921 146.728C263.327 146.599 263.889 146.534 264.608 146.534C265.235 146.534 265.631 146.719 265.797 147.087C265.981 147.438 266.083 147.899 266.101 148.47ZM270.397 146.59C271.263 146.129 271.982 145.898 272.554 145.898C273.181 145.898 273.531 146.221 273.604 146.866L272.498 150.986C273.715 149.235 274.849 148.028 275.899 147.364C276.95 146.682 277.89 146.341 278.72 146.341C279.697 146.341 280.406 146.525 280.849 146.894C281.31 147.244 281.549 147.806 281.568 148.581C280.941 150.276 280.416 151.889 279.992 153.419C279.586 154.949 279.383 156.359 279.383 157.65V158.286C279.383 158.802 279.236 159.143 278.941 159.309C278.664 159.456 278.102 159.53 277.254 159.53C276.922 159.53 276.609 159.475 276.314 159.364C276.038 159.253 275.899 159.069 275.899 158.811C275.899 158.074 276.065 156.995 276.397 155.576C276.729 154.157 277.098 152.756 277.503 151.373C277.927 149.991 278.139 149.336 278.139 149.41C278.139 149.152 277.992 149.023 277.697 149.023C277.31 149.023 276.683 149.364 275.816 150.046C274.95 150.728 274.065 151.797 273.162 153.253C272.259 154.691 271.54 156.498 271.005 158.673C270.987 158.783 270.95 158.986 270.895 159.281C270.839 159.576 270.692 159.788 270.452 159.917C270.213 160.028 269.826 160.083 269.291 160.083C268.683 160.083 268.231 160.018 267.936 159.889C267.641 159.76 267.494 159.484 267.494 159.06L268.323 155.521C268.545 154.562 268.83 153.346 269.18 151.871C269.531 150.378 269.936 148.617 270.397 146.59ZM285.687 166.277C284.839 166.277 284.037 166.092 283.281 165.724C282.544 165.355 281.926 164.876 281.429 164.286C280.912 163.714 280.544 163.134 280.323 162.544C280.341 162.212 280.507 161.88 280.82 161.548C281.115 161.235 281.641 161.078 282.396 161.078C282.636 161.078 282.839 161.171 283.005 161.355C283.189 161.539 283.392 161.834 283.613 162.24C283.908 162.793 284.212 163.217 284.525 163.512C284.857 163.825 285.309 163.982 285.88 163.982C286.525 163.982 287.143 163.724 287.733 163.207C288.341 162.71 288.857 162.028 289.281 161.161C289.724 160.295 290.028 159.336 290.194 158.286C289.788 158.839 289.318 159.263 288.783 159.558C288.267 159.853 287.779 160 287.318 160C285.843 160 284.673 159.677 283.806 159.032C282.959 158.369 282.535 157.198 282.535 155.521C282.535 154.009 282.949 152.599 283.779 151.29C284.627 149.981 285.751 148.94 287.152 148.166C288.553 147.392 290.055 147.004 291.659 147.004C292.71 147.004 293.484 147.216 293.982 147.64C294.498 148.064 294.811 148.599 294.922 149.244C295.235 149.392 295.401 149.539 295.419 149.687C295.419 149.742 295.383 149.935 295.309 150.267C294.959 151.779 294.221 154.765 293.097 159.226L292.793 160.442C292.332 162.23 291.447 163.65 290.138 164.7C288.848 165.751 287.364 166.277 285.687 166.277ZM291.936 149.852C291.788 149.594 291.641 149.428 291.493 149.355C291.364 149.281 291.161 149.244 290.885 149.244C290.018 149.244 289.18 149.53 288.369 150.101C287.558 150.654 286.903 151.382 286.406 152.286C285.908 153.17 285.659 154.083 285.659 155.023C285.659 155.705 285.779 156.295 286.018 156.793C286.277 157.29 286.682 157.576 287.235 157.65C287.972 157.521 288.664 157.189 289.309 156.654C289.972 156.12 290.424 155.429 290.664 154.581L291.936 149.852Z" fill="white"/>
<path d="M353.921 157.816C354.142 157.853 354.4 158.055 354.695 158.424C354.99 158.793 355.138 159.134 355.138 159.447C355.138 159.65 354.981 159.806 354.668 159.917C354.557 159.954 354.373 160.018 354.115 160.111C353.875 160.221 353.654 160.295 353.451 160.332C353.248 160.369 353.018 160.387 352.76 160.387C352.373 160.387 352.078 160.341 351.875 160.249C351.359 160.028 350.686 159.512 349.857 158.7C349.027 157.889 348.225 156.968 347.451 155.935C346.677 154.885 346.105 153.908 345.737 153.005H345.571C345.055 153.005 344.677 152.995 344.437 152.977C343.884 155.023 343.423 156.811 343.055 158.341C342.907 158.986 342.677 159.484 342.363 159.834C342.068 160.184 341.58 160.359 340.898 160.359C340.326 160.359 339.903 160.258 339.626 160.055C339.368 159.871 339.239 159.548 339.239 159.088C339.239 158.885 339.267 158.691 339.322 158.507L342.668 145.594C341.709 145.871 340.981 146.249 340.483 146.728C340.28 146.507 340.114 146.221 339.985 145.871C339.875 145.502 339.82 145.143 339.82 144.792C339.82 144.534 339.893 144.332 340.041 144.184C340.207 144.018 340.428 143.871 340.704 143.742C340.797 143.686 341.128 143.521 341.7 143.244C342.29 142.968 342.852 142.756 343.386 142.608C343.552 142.239 343.801 141.935 344.133 141.696C344.483 141.456 344.926 141.336 345.46 141.336C345.774 141.336 346.032 141.401 346.234 141.53C346.437 141.64 346.575 141.788 346.649 141.972C347.331 141.751 348.151 141.64 349.11 141.64C350.29 141.64 351.313 141.88 352.179 142.359C353.064 142.82 353.737 143.419 354.198 144.157C354.658 144.894 354.889 145.64 354.889 146.396C354.889 148.074 354.345 149.419 353.257 150.433C352.188 151.428 350.806 152.138 349.11 152.562C349.497 153.226 350.013 153.972 350.658 154.802C351.304 155.631 351.912 156.341 352.483 156.931C353.073 157.502 353.46 157.788 353.645 157.788L353.921 157.816ZM346.345 144.848C345.81 146.986 345.368 148.839 345.018 150.405C345.239 150.424 345.552 150.433 345.958 150.433C346.843 150.433 347.727 150.304 348.612 150.046C349.497 149.769 350.234 149.364 350.824 148.829C351.433 148.295 351.737 147.631 351.737 146.839C351.737 146.12 351.442 145.548 350.852 145.124C350.262 144.682 349.469 144.461 348.474 144.461C347.921 144.461 347.211 144.59 346.345 144.848ZM361.371 160.581C359.564 160.581 358.246 160.221 357.417 159.502C356.587 158.783 356.172 157.825 356.172 156.627C356.172 154.876 356.606 153.253 357.472 151.76C358.357 150.267 359.527 149.087 360.983 148.221C362.458 147.336 364.043 146.894 365.739 146.894C366.772 146.894 367.638 147.189 368.338 147.779C369.039 148.35 369.389 149.198 369.389 150.322C369.389 150.968 369.177 151.502 368.753 151.926C368.348 152.332 367.758 152.7 366.984 153.032C366.209 153.346 364.956 153.797 363.223 154.387C361.656 154.903 360.384 155.336 359.407 155.687C359.334 155.963 359.297 156.249 359.297 156.544C359.297 157.06 359.509 157.456 359.933 157.733C360.375 158.009 360.993 158.147 361.785 158.147C362.283 158.147 362.854 158.046 363.5 157.843C364.145 157.641 364.55 157.382 364.716 157.069C365.343 155.926 365.914 155.355 366.431 155.355C367.186 155.355 367.693 155.502 367.951 155.797C368.228 156.074 368.375 156.387 368.394 156.737C368.172 157.327 367.739 157.926 367.094 158.535C366.449 159.124 365.629 159.613 364.633 160C363.638 160.387 362.55 160.581 361.371 160.581ZM360.182 153.143C362.007 152.553 363.509 152.009 364.689 151.511C365.868 150.995 366.458 150.488 366.458 149.991C366.458 149.769 366.338 149.594 366.099 149.465C365.859 149.318 365.601 149.244 365.325 149.244C364.772 149.244 364.136 149.456 363.417 149.88C362.716 150.304 362.062 150.82 361.454 151.429C360.845 152.037 360.421 152.608 360.182 153.143ZM382.597 156.737C382.376 157.327 381.942 157.926 381.297 158.535C380.652 159.124 379.832 159.613 378.836 160C377.841 160.387 376.753 160.581 375.574 160.581C373.767 160.581 372.431 160.212 371.564 159.475C370.698 158.719 370.265 157.742 370.265 156.544C370.265 154.811 370.707 153.207 371.592 151.733C372.477 150.24 373.666 149.06 375.159 148.193C376.652 147.327 378.246 146.894 379.942 146.894C380.993 146.894 381.859 147.207 382.541 147.834C383.242 148.442 383.592 149.272 383.592 150.322C383.592 150.728 383.426 151.069 383.094 151.346C382.763 151.604 382.32 151.733 381.767 151.733C381.325 151.733 381.021 151.631 380.855 151.429C380.707 151.226 380.634 150.958 380.634 150.627L380.661 149.991C380.661 149.769 380.541 149.594 380.302 149.465C380.062 149.318 379.804 149.244 379.528 149.244C378.956 149.244 378.182 149.585 377.205 150.267C376.246 150.949 375.398 151.852 374.661 152.977C373.942 154.083 373.583 155.272 373.583 156.544C373.583 157.06 373.786 157.456 374.191 157.733C374.597 158.009 375.196 158.147 375.988 158.147C376.486 158.147 377.057 158.046 377.703 157.843C378.348 157.641 378.753 157.382 378.919 157.069C379.546 155.926 380.117 155.355 380.634 155.355C381.389 155.355 381.896 155.502 382.154 155.797C382.431 156.074 382.578 156.387 382.597 156.737ZM387.879 156.074C387.823 156.295 387.796 156.516 387.796 156.737C387.796 157.124 387.897 157.438 388.1 157.677C388.302 157.917 388.625 158.037 389.067 158.037C389.639 158.037 390.256 157.871 390.92 157.539C391.584 157.207 392.146 156.802 392.607 156.323L393.132 154.138C393.482 152.664 393.888 151.069 394.349 149.355C394.551 148.617 394.809 148.018 395.123 147.557C395.455 147.078 395.971 146.839 396.671 146.839C397.648 146.839 398.137 147.134 398.137 147.723C398.137 147.816 398.109 147.935 398.054 148.083C398.017 148.212 397.989 148.322 397.971 148.415C397.326 151.143 396.966 152.664 396.892 152.977C396.026 156.848 395.372 159.539 394.929 161.051C394.284 163.281 393.362 164.866 392.164 165.807C390.966 166.747 389.298 167.217 387.16 167.217C385.869 167.217 385.003 167.023 384.561 166.636C384.118 166.267 383.897 165.807 383.897 165.254C383.897 164.922 384.026 164.636 384.284 164.396C384.561 164.157 384.865 164.037 385.196 164.037C385.473 164.037 385.685 164.065 385.832 164.12C385.998 164.194 386.173 164.295 386.358 164.424C386.579 164.59 386.8 164.71 387.021 164.783C387.243 164.876 387.565 164.922 387.989 164.922C388.302 164.922 388.68 164.793 389.123 164.535C389.565 164.277 389.989 163.862 390.395 163.29C390.819 162.737 391.15 162.055 391.39 161.244L392.081 158.839C391.455 159.429 390.846 159.862 390.256 160.138C389.667 160.433 389.003 160.581 388.266 160.581C387.049 160.581 386.109 160.203 385.445 159.447C384.8 158.691 384.478 157.687 384.478 156.433C384.478 156.064 384.533 155.659 384.643 155.217L386.413 148.193L385.694 147.364C385.639 147.309 385.611 147.244 385.611 147.17C385.611 146.986 385.814 146.839 386.22 146.728C386.625 146.599 387.187 146.534 387.906 146.534C389.086 146.534 389.731 147.097 389.842 148.221L387.879 156.074ZM411.618 155.88C411.415 156.488 410.936 157.161 410.18 157.899C409.442 158.636 408.539 159.272 407.47 159.806C406.401 160.323 405.286 160.581 404.124 160.581C403.184 160.581 402.299 160.406 401.47 160.055C400.659 159.705 400.005 159.17 399.507 158.452C399.009 157.733 398.76 156.857 398.76 155.825C398.76 154.092 399.101 152.553 399.783 151.207C400.465 149.862 401.433 148.811 402.687 148.055C403.958 147.281 405.424 146.894 407.083 146.894C408.152 146.894 409.074 147.207 409.848 147.834C410.641 148.461 411.046 149.29 411.065 150.322C411.065 150.728 410.926 151.069 410.65 151.346C410.373 151.604 409.968 151.733 409.433 151.733C409.009 151.733 408.696 151.64 408.493 151.456C408.309 151.253 408.124 150.949 407.94 150.544C407.756 150.12 407.553 149.797 407.332 149.576C407.111 149.355 406.76 149.244 406.281 149.244C405.728 149.244 405.12 149.539 404.456 150.129C403.793 150.7 403.23 151.511 402.77 152.562C402.309 153.594 402.078 154.765 402.078 156.074C402.078 156.627 402.29 157.115 402.714 157.539C403.157 157.945 403.756 158.147 404.511 158.147C405.138 158.147 405.728 157.945 406.281 157.539C406.834 157.115 407.47 156.516 408.189 155.742C408.65 155.263 409.009 154.912 409.267 154.691C409.544 154.47 409.783 154.359 409.986 154.359C410.908 154.359 411.452 154.866 411.618 155.88ZM419.139 144.958C417.056 153.714 415.83 158.719 415.462 159.972C415.425 160.083 415.231 160.221 414.881 160.387C414.549 160.571 414.319 160.664 414.19 160.664C413.674 160.664 413.176 160.535 412.697 160.277C412.217 160.018 411.959 159.604 411.922 159.032C411.941 158.995 412.033 158.802 412.199 158.452C412.365 158.101 412.531 157.604 412.697 156.958C413.121 155.373 413.6 153.493 414.134 151.318C414.687 149.143 415.056 147.687 415.24 146.949L416.54 141.668C416.521 141.521 416.512 140.756 416.512 139.373C416.568 139.133 416.77 138.94 417.121 138.792C417.489 138.645 417.821 138.571 418.116 138.571C418.577 138.571 419.047 138.728 419.526 139.041C420.024 139.355 420.282 139.733 420.3 140.175L419.139 144.958ZM425.392 160.581C423.586 160.581 422.268 160.221 421.438 159.502C420.609 158.783 420.194 157.825 420.194 156.627C420.194 154.876 420.627 153.253 421.494 151.76C422.378 150.267 423.549 149.087 425.005 148.221C426.48 147.336 428.065 146.894 429.761 146.894C430.793 146.894 431.66 147.189 432.36 147.779C433.06 148.35 433.411 149.198 433.411 150.322C433.411 151.576 432.941 152.571 432.001 153.309C431.079 154.028 429.908 154.562 428.489 154.912C427.088 155.244 425.401 155.502 423.429 155.687C423.355 155.963 423.318 156.249 423.318 156.544C423.318 157.06 423.53 157.456 423.954 157.733C424.397 158.009 425.014 158.147 425.807 158.147C426.397 158.147 427.07 158.028 427.825 157.788C428.6 157.548 429.189 157.152 429.595 156.599C429.816 156.286 430.093 156.037 430.425 155.852C430.775 155.668 431.107 155.576 431.42 155.576C431.715 155.576 431.954 155.677 432.139 155.88C432.323 156.064 432.415 156.35 432.415 156.737C432.194 157.327 431.761 157.926 431.116 158.535C430.471 159.124 429.65 159.613 428.655 160C427.66 160.387 426.572 160.581 425.392 160.581ZM424.203 153.143C424.848 153.124 425.659 153.023 426.636 152.839C427.613 152.654 428.498 152.332 429.291 151.871C430.083 151.392 430.48 150.765 430.48 149.991C430.48 149.769 430.36 149.594 430.12 149.465C429.881 149.318 429.623 149.244 429.346 149.244C428.793 149.244 428.157 149.456 427.438 149.88C426.738 150.304 426.083 150.82 425.475 151.429C424.867 152.037 424.443 152.608 424.203 153.143Z" fill="#EDEAE5"/>
</svg>
