<svg width="894" height="531" viewBox="0 0 894 531" fill="none" xmlns="http://www.w3.org/2000/svg">
<path d="M203.885 203.514L1.99693 193.929L131.582 267.604L12.64 319.646L169.413 338.93L113.142 456.3L249.623 402.558L249.623 501L356 430.678L424 525.803L504.234 430.678L585.5 501L607.897 403.097L728.5 465L728.5 376.389L850.851 376.389L783.362 284L889.765 212.632L743.895 186.082L783.362 94.1896L649.692 129.754L655.793 19.9766L540.102 109.196L459.616 4.63557L390.468 116.419L314.493 8.3907L277.961 146.353L112.456 97.0074L203.885 203.514Z" fill="black"/>
</svg>
