<svg width="1280" height="25" viewBox="0 0 1280 25" fill="none" xmlns="http://www.w3.org/2000/svg">
<path d="M557.401 19V1.1934H565.337C566.701 1.1934 567.825 1.45147 568.71 1.9676C569.595 2.48373 570.249 3.19342 570.673 4.09665C571.097 4.98145 571.309 5.99528 571.309 7.13815C571.309 8.90775 570.756 10.3271 569.65 11.3962C568.563 12.4654 567.088 12.9999 565.226 12.9999H560.415V19H557.401ZM560.415 10.6221H564.673C565.871 10.6221 566.775 10.3087 567.383 9.68195C567.991 9.05522 568.295 8.20728 568.295 7.13815C568.295 5.99528 568.001 5.11048 567.411 4.48375C566.839 3.85702 565.973 3.54365 564.812 3.54365H560.415V10.6221ZM581.314 19.2765C578.863 19.2765 576.955 18.6866 575.591 17.5069C574.245 16.3272 573.572 14.6221 573.572 12.3916V1.1934H576.586V12.281C576.586 13.7741 576.992 14.8894 577.803 15.6267C578.632 16.364 579.803 16.7327 581.314 16.7327C582.807 16.7327 583.959 16.364 584.771 15.6267C585.6 14.8894 586.015 13.7741 586.015 12.281V1.1934H589.001V12.3916C589.001 14.6221 588.328 16.3272 586.983 17.5069C585.637 18.6866 583.747 19.2765 581.314 19.2765ZM599.82 3.15655V0.668049H603.111V3.15655H599.82ZM600.069 19V8.18885H598.078L598.355 5.8939H603.083V19H600.069ZM606.599 19V5.8939H609.364L609.502 7.2764C610.092 6.81557 610.792 6.42847 611.604 6.1151C612.433 5.7833 613.346 5.6174 614.341 5.6174C616.037 5.6174 617.272 6.01372 618.046 6.80635C618.82 7.59898 619.207 8.83402 619.207 10.5114V19H616.221V10.6497C616.221 9.63587 616.009 8.92618 615.585 8.52065C615.18 8.11512 614.405 7.91235 613.263 7.91235C612.581 7.91235 611.908 8.0506 611.244 8.3271C610.599 8.6036 610.055 8.96305 609.613 9.40545V19H606.599ZM627.589 19.2765C626.188 19.2765 625.137 18.9078 624.437 18.1705C623.755 17.4147 623.414 16.3917 623.414 15.1013V8.24415H621.478V5.8939H623.414V2.88005L626.4 1.9676V5.8939H629.884L629.69 8.24415H626.4V14.9355C626.4 15.6912 626.575 16.2258 626.925 16.5391C627.275 16.8341 627.847 16.9815 628.639 16.9815C629.137 16.9815 629.662 16.8894 630.215 16.705V18.8341C629.497 19.129 628.621 19.2765 627.589 19.2765ZM639.157 19.2765C636.871 19.2765 635.101 18.7143 633.848 17.5898C632.595 16.4654 631.968 14.7419 631.968 12.4193C631.968 10.3179 632.502 8.6589 633.571 7.4423C634.641 6.2257 636.263 5.6174 638.438 5.6174C640.429 5.6174 641.922 6.14275 642.917 7.19345C643.931 8.22572 644.438 9.56213 644.438 11.2027V13.6359H634.843C634.991 14.9078 635.452 15.7834 636.226 16.2626C637 16.7419 638.18 16.9815 639.765 16.9815C640.429 16.9815 641.111 16.917 641.811 16.788C642.512 16.659 643.12 16.4931 643.636 16.2903V18.5023C643.046 18.7604 642.364 18.9539 641.59 19.0829C640.834 19.212 640.023 19.2765 639.157 19.2765ZM634.843 11.6727H641.784V10.7603C641.784 9.85707 641.535 9.1566 641.037 8.6589C640.539 8.14277 639.701 7.8847 638.521 7.8847C637.12 7.8847 636.152 8.18885 635.618 8.79715C635.101 9.40545 634.843 10.364 634.843 11.6727ZM647.372 19V5.8939H650.137L650.303 7.41465C650.929 7.00912 651.676 6.64045 652.542 6.30865C653.409 5.97685 654.266 5.74643 655.114 5.6174V7.91235C654.598 8.00452 654.036 8.14277 653.427 8.3271C652.837 8.493 652.275 8.68655 651.741 8.90775C651.206 9.11052 650.754 9.3225 650.386 9.5437V19H647.372ZM657.309 19V5.8939H660.074L660.212 7.2764C660.802 6.81557 661.502 6.42847 662.313 6.1151C663.143 5.7833 664.055 5.6174 665.051 5.6174C666.746 5.6174 667.981 6.01372 668.756 6.80635C669.53 7.59898 669.917 8.83402 669.917 10.5114V19H666.931V10.6497C666.931 9.63587 666.719 8.92618 666.295 8.52065C665.889 8.11512 665.115 7.91235 663.972 7.91235C663.29 7.91235 662.617 8.0506 661.954 8.3271C661.309 8.6036 660.765 8.96305 660.322 9.40545V19H657.309ZM677.662 19.2765C676.759 19.2765 675.893 19.212 675.063 19.0829C674.252 18.9539 673.579 18.7972 673.045 18.6129V16.0691C673.672 16.3087 674.363 16.4931 675.119 16.6221C675.874 16.7511 676.593 16.8156 677.275 16.8156C678.308 16.8156 679.045 16.7235 679.487 16.5391C679.93 16.3548 680.151 15.9954 680.151 15.4608C680.151 15.0737 680.013 14.7695 679.736 14.5483C679.478 14.3271 679.082 14.1244 678.547 13.94C678.031 13.7557 677.368 13.5345 676.556 13.2764C675.782 13.0184 675.109 12.7419 674.538 12.4469C673.967 12.1336 673.524 11.7373 673.211 11.258C672.897 10.7787 672.741 10.152 672.741 9.3778C672.741 8.17963 673.174 7.25797 674.04 6.6128C674.907 5.9492 676.298 5.6174 678.215 5.6174C678.971 5.6174 679.69 5.6727 680.372 5.7833C681.054 5.8939 681.635 6.03215 682.114 6.19805V8.7142C681.598 8.51143 681.027 8.35475 680.4 8.24415C679.791 8.13355 679.22 8.07825 678.685 8.07825C677.727 8.07825 676.999 8.1612 676.501 8.3271C676.022 8.493 675.782 8.8248 675.782 9.3225C675.782 9.83863 676.031 10.2073 676.529 10.4285C677.045 10.6313 677.865 10.917 678.99 11.2856C680.022 11.599 680.842 11.9308 681.45 12.281C682.059 12.6313 682.492 13.0552 682.75 13.5529C683.027 14.0322 683.165 14.6589 683.165 15.4331C683.165 16.7235 682.695 17.6912 681.755 18.3364C680.815 18.9631 679.45 19.2765 677.662 19.2765ZM686.12 19V0.3639H689.134V7.1658C689.705 6.70497 690.387 6.3363 691.18 6.0598C691.972 5.76487 692.866 5.6174 693.862 5.6174C695.521 5.6174 696.746 6.01372 697.539 6.80635C698.332 7.59898 698.728 8.83402 698.728 10.5114V19H695.742V10.6497C695.742 9.63587 695.521 8.92618 695.078 8.52065C694.654 8.11512 693.908 7.91235 692.839 7.91235C692.175 7.91235 691.502 8.05982 690.82 8.35475C690.138 8.63125 689.576 8.99992 689.134 9.46075V19H686.12ZM703.211 3.15655V0.668049H706.501V3.15655H703.211ZM703.46 19V8.18885H701.469L701.745 5.8939H706.474V19H703.46ZM709.989 24.9724V5.8939H712.588L712.754 7.19345C713.344 6.65888 713.989 6.26257 714.69 6.0045C715.39 5.74643 716.22 5.6174 717.178 5.6174C719.059 5.6174 720.524 6.13353 721.575 7.1658C722.625 8.17963 723.151 9.86628 723.151 12.2257C723.151 14.5852 722.607 16.3548 721.519 17.5345C720.432 18.6958 718.948 19.2765 717.068 19.2765C715.483 19.2765 714.128 18.9078 713.003 18.1705V24.9724H709.989ZM716.294 17.0092C718.837 17.0092 720.109 15.4055 720.109 12.1981C720.109 10.6497 719.824 9.55292 719.252 8.90775C718.681 8.24415 717.722 7.91235 716.377 7.91235C715.031 7.91235 713.906 8.37318 713.003 9.29485V15.8479C713.427 16.1981 713.897 16.4838 714.413 16.705C714.948 16.9078 715.575 17.0092 716.294 17.0092Z" fill="#EDEAE5"/>
<path d="M0 7H521" stroke="#7E7E7E" stroke-width="2"/>
<path d="M759 7H1280" stroke="#7E7E7E" stroke-width="2"/>
</svg>
