<svg width="868" height="209" viewBox="0 0 868 209" fill="none" xmlns="http://www.w3.org/2000/svg">
<path d="M2.97239 172.017C28.0201 144.668 18.0912 144.22 16.479 112.261C32.5224 142.491 39.9953 152.073 63.103 145.968C40.0087 162.739 46.6745 182.592 54.2736 206.476C32.1142 180.143 39.2541 176.695 2.97239 172.017Z" fill="#FB1CAB"/>
<path d="M842.153 62.0169C817.105 34.6676 827.034 34.2199 828.646 2.26054C812.603 32.4907 805.13 42.0735 782.022 35.9676C805.116 52.739 798.451 72.5921 790.851 96.4761C813.011 70.1428 805.871 66.695 842.153 62.0169Z" fill="#FB1CAB"/>
<path d="M67.369 104.562C78.905 91.9665 74.3321 91.7603 73.5896 77.041C80.9786 90.9638 84.4203 95.3773 95.0629 92.5652C84.4265 100.289 87.4965 109.433 90.9963 120.433C80.7906 108.305 84.079 106.717 67.369 104.562Z" fill="#FB1CAB"/>
<path d="M865.756 119.562C854.22 106.966 858.793 106.76 859.535 92.041C852.146 105.964 848.705 110.377 838.062 107.565C848.699 115.289 845.629 124.433 842.129 135.433C852.334 123.305 849.046 121.717 865.756 119.562Z" fill="#FB1CAB"/>
</svg>
