<svg width="200" height="88" viewBox="0 0 200 88" fill="none" xmlns="http://www.w3.org/2000/svg">
<g filter="url(#filter0_d)">
<path d="M4 25C4 11.1929 15.1929 0 29 0H171C184.807 0 196 11.1929 196 25V55C196 68.8071 184.807 80 171 80H29C15.1929 80 4 68.8071 4 55V25Z" fill="#FC3F4D"/>
<path d="M67.1759 54.3981C63.8584 54.3981 61.1911 53.9735 59.1741 53.1242V49.3024C60.3153 49.7271 61.5361 50.0721 62.8366 50.3375C64.1636 50.6029 65.4773 50.7356 66.7778 50.7356C68.8214 50.7356 70.3474 50.4967 71.3559 50.019C72.391 49.5413 72.9085 48.5858 72.9085 47.1527C72.9085 46.2769 72.6962 45.5735 72.2716 45.0427C71.8469 44.5119 71.1436 44.0608 70.1616 43.6892C69.1796 43.2911 67.8261 42.8797 66.101 42.4551C63.3408 41.7385 61.4034 40.8362 60.2887 39.748C59.1741 38.6333 58.6167 37.1073 58.6167 35.1699C58.6167 32.914 59.4395 31.1491 61.0849 29.8751C62.7304 28.6012 65.1854 27.9643 68.4498 27.9643C69.936 27.9643 71.3294 28.0704 72.6298 28.2827C73.9568 28.4951 74.9919 28.7339 75.735 28.9993V32.8211C73.718 32.0514 71.4886 31.6666 69.0469 31.6666C67.1361 31.6666 65.6498 31.9187 64.5882 32.423C63.5266 32.9272 62.9958 33.8429 62.9958 35.1699C62.9958 35.9395 63.1816 36.5632 63.5532 37.0409C63.9247 37.5187 64.5617 37.93 65.464 38.275C66.3929 38.6201 67.6669 39.0049 69.2858 39.4295C71.3825 39.9603 73.0014 40.5973 74.1426 41.3404C75.3104 42.057 76.1199 42.9063 76.571 43.8883C77.0488 44.8437 77.2876 45.9318 77.2876 47.1527C77.2876 49.4086 76.4516 51.1868 74.7796 52.4872C73.1076 53.7611 70.573 54.3981 67.1759 54.3981ZM88.1175 54.3981C86.1005 54.3981 84.5877 53.8673 83.5792 52.8057C82.5972 51.7176 82.1062 50.2446 82.1062 48.3868V38.5139H79.3195V35.1301H82.1062V30.7908L86.4057 29.477V35.1301H91.4217L91.1431 38.5139H86.4057V48.1479C86.4057 49.2361 86.6578 50.0057 87.1621 50.4569C87.6663 50.8815 88.4891 51.0939 89.6303 51.0939C90.3469 51.0939 91.1032 50.9612 91.8994 50.6958V53.7611C90.8644 54.1858 89.6037 54.3981 88.1175 54.3981ZM101.11 54.3981C99.9162 54.3981 98.8015 54.1858 97.7664 53.7611C96.7579 53.3365 95.9485 52.6995 95.338 51.8503C94.7276 50.9744 94.4224 49.8996 94.4224 48.6256C94.4224 46.8209 95.0328 45.3745 96.2537 44.2864C97.501 43.1717 99.4119 42.6143 101.986 42.6143H108.037V41.7783C108.037 40.876 107.891 40.1594 107.6 39.6286C107.334 39.0978 106.83 38.713 106.087 38.4741C105.37 38.2352 104.309 38.1158 102.902 38.1158C100.673 38.1158 98.5892 38.4476 96.6518 39.1111V35.8864C97.501 35.5414 98.5361 35.2628 99.7569 35.0504C100.978 34.8381 102.292 34.732 103.698 34.732C106.458 34.732 108.555 35.2893 109.988 36.404C111.448 37.5187 112.178 39.3366 112.178 41.8579V54H108.475L108.197 52.0891C107.427 52.8322 106.472 53.4028 105.33 53.8009C104.216 54.1991 102.809 54.3981 101.11 54.3981ZM102.265 51.2929C103.565 51.2929 104.693 51.0806 105.649 50.656C106.631 50.2048 107.427 49.6076 108.037 48.8645V45.5603H102.066C100.792 45.5603 99.8631 45.8124 99.2792 46.3167C98.7219 46.7944 98.4432 47.5375 98.4432 48.546C98.4432 49.528 98.775 50.2313 99.4385 50.656C100.102 51.0806 101.044 51.2929 102.265 51.2929ZM116.99 54V35.1301H120.971L121.21 37.3196C122.112 36.7357 123.187 36.2049 124.434 35.7272C125.682 35.2495 126.916 34.9177 128.136 34.732V38.0362C127.393 38.1689 126.584 38.3679 125.708 38.6333C124.859 38.8722 124.049 39.1509 123.28 39.4693C122.51 39.7613 121.86 40.0665 121.329 40.385V54H116.99ZM138.502 54.3981C136.485 54.3981 134.972 53.8673 133.964 52.8057C132.982 51.7176 132.491 50.2446 132.491 48.3868V38.5139H129.704V35.1301H132.491V30.7908L136.79 29.477V35.1301H141.806L141.528 38.5139H136.79V48.1479C136.79 49.2361 137.042 50.0057 137.547 50.4569C138.051 50.8815 138.874 51.0939 140.015 51.0939C140.731 51.0939 141.488 50.9612 142.284 50.6958V53.7611C141.249 54.1858 139.988 54.3981 138.502 54.3981Z" fill="white"/>
</g>
<defs>
<filter id="filter0_d" x="0" y="0" width="200" height="88" filterUnits="userSpaceOnUse" color-interpolation-filters="sRGB">
<feFlood flood-opacity="0" result="BackgroundImageFix"/>
<feColorMatrix in="SourceAlpha" type="matrix" values="0 0 0 0 0 0 0 0 0 0 0 0 0 0 0 0 0 0 127 0" result="hardAlpha"/>
<feOffset dy="4"/>
<feGaussianBlur stdDeviation="2"/>
<feColorMatrix type="matrix" values="0 0 0 0 0 0 0 0 0 0 0 0 0 0 0 0 0 0 0.25 0"/>
<feBlend mode="normal" in2="BackgroundImageFix" result="effect1_dropShadow"/>
<feBlend mode="normal" in="SourceGraphic" in2="effect1_dropShadow" result="shape"/>
</filter>
</defs>
</svg>
