<svg width="880" height="412" viewBox="0 0 880 412" fill="none" xmlns="http://www.w3.org/2000/svg">
<path d="M795.035 340.503C832 343.5 826.261 335.385 850.508 314.502C836.482 345.719 833.5 357.5 852.5 372C825.086 364.055 813.5 381.5 799.303 402.155C806.5 368.5 813.603 372.022 795.035 340.503Z" fill="#FB1CAB"/>
<path d="M718.178 343.218C739.508 344.947 736.197 340.265 750.188 328.214C742.094 346.228 740.374 353.026 751.338 361.393C735.519 356.808 728.833 366.875 720.641 378.794C724.794 359.373 728.893 361.406 718.178 343.218Z" fill="#FB1CAB"/>
<path d="M30.9724 62.0169C56.0201 34.6676 46.0912 34.2199 44.479 2.26054C60.5224 32.4907 67.9953 42.0735 91.103 35.9676C68.0087 52.739 74.6745 72.5921 82.2736 96.4761C60.1142 70.1428 67.2541 66.695 30.9724 62.0169Z" fill="#FB1CAB"/>
<path d="M1.36897 126.562C12.905 113.966 8.33212 113.76 7.58962 99.041C14.9786 112.964 18.4203 117.377 29.0629 114.565C18.4265 122.289 21.4965 131.433 24.9963 142.433C14.7906 130.305 18.079 128.717 1.36897 126.562Z" fill="#FB1CAB"/>
</svg>
