<svg width="915" height="531" viewBox="0 0 915 531" fill="none" xmlns="http://www.w3.org/2000/svg">
<path d="M203.885 203.746L1.99693 194.161L131.582 267.837L12.64 319.878L169.413 339.163L113.142 456.533L249.623 402.79L249.623 501.232L356 430.911L424 526.035L504.234 430.911L585.5 501.232L607.897 403.33L766 489.732L728.5 376.621L913 376.621L783.362 284.232L889.765 212.865L743.895 186.314L783.362 94.422L649.692 129.987L655.793 20.209L540.102 109.428L459.616 4.86799L390.468 116.651L314.493 8.62312L277.961 146.585L112.456 97.2399L203.885 203.746Z" fill="black"/>
</svg>
