<svg width="349" height="63" viewBox="0 0 349 63" fill="none" xmlns="http://www.w3.org/2000/svg">
<path d="M116.959 21.6992C116.754 21.9808 116.415 22.3712 115.941 22.8704C115.468 23.3568 114.994 23.792 114.521 24.176C114.047 24.56 113.676 24.752 113.407 24.752C113.125 24.752 112.844 24.6112 112.562 24.3296C112.281 24.0352 112.05 23.6832 111.871 23.2736C111.692 22.864 111.602 22.4928 111.602 22.16C111.602 21.4816 111.737 20.9696 112.005 20.624C112.261 20.2784 112.729 20.1056 113.407 20.1056C113.458 20.144 113.522 20.2208 113.599 20.336C113.676 20.4384 113.733 20.5152 113.772 20.5664C113.529 21.104 113.407 21.6224 113.407 22.1216C113.407 22.2752 113.439 22.4416 113.503 22.6208C113.567 22.7872 113.637 22.9152 113.714 23.0048C113.97 22.7744 114.175 22.5824 114.329 22.4288C114.956 21.8144 115.519 21.3216 116.018 20.9504C116.517 20.5664 117.049 20.304 117.612 20.1632C117.957 20.1632 118.277 20.3488 118.572 20.72C118.866 21.0784 119.013 21.4496 119.013 21.8336L118.361 24.2912C116.453 31.5488 115.455 35.3952 115.365 35.8304C115.34 35.9328 115.327 36.0544 115.327 36.1952C115.327 36.3232 115.346 36.4064 115.385 36.4448C115.423 36.4704 115.468 36.4832 115.519 36.4832C115.685 36.4832 115.865 36.4 116.057 36.2336C116.249 36.0672 116.396 35.8816 116.498 35.6768C116.844 35.792 117.074 35.952 117.189 36.1568C117.305 36.3616 117.362 36.592 117.362 36.848C117.362 37.296 117.087 37.6608 116.537 37.9424C115.986 38.2112 115.359 38.3456 114.655 38.3456C114.271 38.3456 113.925 38.1664 113.618 37.808C113.324 37.4368 113.177 36.9952 113.177 36.4832C113.177 36.2144 113.721 33.9808 114.809 29.7824C115.897 25.5712 116.613 22.8768 116.959 21.6992ZM123.428 29.9168C123.428 30.4416 123.344 31.1136 123.178 31.9328C123.024 32.752 122.813 33.5456 122.544 34.3136C123.543 34.6336 124.695 35.2544 126 36.176C126.576 33.5776 127.114 31.44 127.613 29.7632C128.125 28.0864 128.637 27.248 129.149 27.248C129.815 27.248 130.173 27.5296 130.224 28.0928C130.109 28.208 129.879 28.9312 129.533 30.2624C129.2 31.5808 128.868 32.9952 128.535 34.5056C128.215 36.016 128.036 36.9376 127.997 37.2704C127.728 38 127.248 38.3648 126.557 38.3648C126.288 38.3648 125.968 38.2624 125.597 38.0576C125.239 37.8528 124.759 37.5456 124.157 37.136C123.261 36.5088 122.583 36.112 122.122 35.9456C122.096 36.0992 122.045 36.2656 121.968 36.4448C121.764 37.008 121.424 37.4624 120.951 37.808C120.477 38.1536 120.023 38.3264 119.588 38.3264C119.05 38.3264 118.666 38.1792 118.436 37.8848C118.192 37.5904 118.071 37.2192 118.071 36.7712C118.071 36.3488 118.173 35.9456 118.378 35.5616C118.57 35.1648 118.839 34.8384 119.184 34.5824C119.543 34.3136 119.946 34.1664 120.394 34.1408C120.676 33.2192 120.874 32.4896 120.989 31.952C121.117 31.4144 121.207 30.768 121.258 30.0128C120.976 29.8336 120.746 29.5968 120.567 29.3024C120.388 28.9952 120.253 28.6944 120.164 28.4C120.176 28.1184 120.356 27.8944 120.701 27.728C121.06 27.5488 121.444 27.4592 121.853 27.4592C122.442 27.4592 122.852 27.6576 123.082 28.0544C123.312 28.4384 123.428 29.0592 123.428 29.9168ZM131.19 21.8528C131.113 22.1344 131.011 22.4352 130.883 22.7552C130.767 23.0624 130.684 23.2736 130.633 23.3888C130.39 23.952 130.198 24.4768 130.057 24.9632C130.044 25.0016 130.019 25.1104 129.98 25.2896C129.942 25.456 129.846 25.6032 129.692 25.7312C129.539 25.8464 129.321 25.904 129.039 25.904C128.681 25.904 128.502 25.52 128.502 24.752C128.502 24.4448 128.566 23.9584 128.694 23.2928C128.822 22.6272 129.001 22.032 129.231 21.5072C129.462 20.9696 129.737 20.7008 130.057 20.7008C130.339 20.7008 130.607 20.784 130.863 20.9504C131.119 21.104 131.26 21.296 131.286 21.5264C131.286 21.5776 131.273 21.6352 131.247 21.6992C131.222 21.7504 131.203 21.8016 131.19 21.8528ZM133.091 28.208C133.155 27.9392 133.244 27.7344 133.359 27.5936C133.487 27.44 133.673 27.3632 133.916 27.3632C134.198 27.3632 134.505 27.4208 134.838 27.536C135.171 27.6384 135.337 27.76 135.337 27.9008L134.55 30.8384C133.769 33.8208 133.34 35.4848 133.263 35.8304C133.238 35.9328 133.225 36.0544 133.225 36.1952C133.225 36.3232 133.244 36.4064 133.283 36.4448C133.321 36.4704 133.366 36.4832 133.417 36.4832C133.583 36.4832 133.763 36.4 133.955 36.2336C134.147 36.0672 134.294 35.8816 134.396 35.6768C134.742 35.792 134.972 35.952 135.087 36.1568C135.203 36.3616 135.26 36.592 135.26 36.848C135.26 37.296 134.985 37.6608 134.435 37.9424C133.884 38.2112 133.257 38.3456 132.553 38.3456C132.169 38.3456 131.823 38.1664 131.516 37.808C131.222 37.4368 131.075 36.9952 131.075 36.4832C131.075 36.1504 131.587 34.0192 132.611 30.0896L133.091 28.208ZM142.474 32.9504C142.039 33.5136 141.546 34.3456 140.996 35.4464C140.638 36.1504 140.33 36.6944 140.074 37.0784C139.831 37.4624 139.562 37.7504 139.268 37.9424C139.025 38.096 138.66 38.1728 138.174 38.1728C137.418 38.1728 136.913 37.9424 136.657 37.4816C136.401 37.008 136.273 36.3232 136.273 35.4272C136.273 34.6208 136.439 33.5904 136.772 32.336C137.118 31.0816 137.809 29.9168 138.846 28.8416C139.882 27.7664 141.348 27.2288 143.242 27.2288C143.985 27.2288 144.695 27.3824 145.374 27.6896C146.065 27.9968 146.622 28.4512 147.044 29.0528C147.466 29.6416 147.678 30.3392 147.678 31.1456C147.678 31.184 147.633 31.4592 147.543 31.9712L147.486 32.3552L146.103 37.7888C145.937 38.1088 145.751 38.3456 145.546 38.4992C145.342 38.6656 144.996 38.7488 144.51 38.7488C144.292 38.7488 144.119 38.6912 143.991 38.576C143.876 38.4608 143.818 38.32 143.818 38.1536C143.818 38.0768 143.831 37.9616 143.857 37.808L143.991 37.232C144.094 36.7328 144.311 35.9072 144.644 34.7552C144.695 34.5504 144.83 34.0384 145.047 33.2192C145.278 32.3872 145.438 31.728 145.527 31.2416C145.553 31.0624 145.566 30.9472 145.566 30.896C145.566 30.5248 145.444 30.1856 145.201 29.8784C144.97 29.5712 144.663 29.328 144.279 29.1488C143.908 28.9696 143.511 28.88 143.089 28.88C141.911 28.88 140.97 29.3024 140.266 30.1472C139.562 30.9792 139.07 31.9264 138.788 32.9888C138.519 34.0512 138.385 34.9664 138.385 35.7344C138.385 35.824 138.404 35.9072 138.442 35.984C138.481 36.048 138.532 36.08 138.596 36.08C138.711 36.08 138.807 35.9968 138.884 35.8304C139.332 34.8576 139.722 34.0448 140.055 33.392C140.401 32.7392 140.785 32.1696 141.207 31.6832C141.642 31.184 142.078 30.9344 142.513 30.9344C142.871 30.9344 143.217 31.0752 143.55 31.3568C143.882 31.6256 144.055 31.9136 144.068 32.2208C144.042 32.3104 143.953 32.3936 143.799 32.4704C143.658 32.5344 143.441 32.6112 143.146 32.7008C142.814 32.8032 142.59 32.8864 142.474 32.9504ZM156.463 30.9152L157.097 28.3616C157.186 28.0288 157.334 27.76 157.538 27.5552C157.743 27.3504 157.948 27.248 158.153 27.248C158.498 27.248 158.78 27.3184 158.998 27.4592C159.228 27.6 159.356 27.8112 159.382 28.0928C159.33 28.2976 159.068 29.36 158.594 31.28C158.108 33.2256 157.769 34.5504 157.577 35.2544C157.423 35.8176 157.11 36.3296 156.636 36.7904C156.175 37.2512 155.599 37.616 154.908 37.8848C154.217 38.1536 153.474 38.288 152.681 38.288C151.836 38.288 151.106 38.1408 150.492 37.8464C149.878 37.5392 149.404 37.136 149.071 36.6368C148.751 36.1248 148.591 35.568 148.591 34.9664C148.591 34.3008 148.847 33.7056 149.359 33.1808C149.871 32.656 150.614 32.2336 151.586 31.9136C151.151 31.7088 150.761 31.4144 150.415 31.0304C150.082 30.6336 149.916 30.2112 149.916 29.7632C149.916 29.0464 150.134 28.4384 150.569 27.9392C151.004 27.4272 151.554 27.1712 152.22 27.1712C152.63 27.1712 153.014 27.2608 153.372 27.44C153.73 27.6064 153.91 27.8304 153.91 28.112C153.91 28.304 153.814 28.4768 153.622 28.6304C153.442 28.7712 153.174 28.9376 152.815 29.1296C152.508 29.3088 152.278 29.456 152.124 29.5712C151.97 29.6864 151.894 29.8144 151.894 29.9552C151.894 30.2112 151.983 30.4224 152.162 30.5888C152.342 30.7424 152.617 30.9152 152.988 31.1072C153.295 31.2736 153.526 31.4208 153.679 31.5488C153.846 31.6768 153.929 31.8304 153.929 32.0096C153.929 32.1248 153.858 32.2336 153.718 32.336C153.577 32.4256 153.327 32.5664 152.969 32.7584C152.303 33.1168 151.778 33.4688 151.394 33.8144C151.01 34.1472 150.818 34.576 150.818 35.1008C150.818 35.5488 151.01 35.92 151.394 36.2144C151.778 36.5088 152.316 36.656 153.007 36.656C153.545 36.656 154.057 36.4896 154.543 36.1568C155.042 35.824 155.369 35.3312 155.522 34.6784L156.463 30.9152ZM168.888 29.2256C168.875 29.0848 168.837 28.976 168.773 28.8992C168.709 28.8096 168.593 28.7648 168.427 28.7648C167.877 28.9952 167.313 29.4688 166.737 30.1856C166.174 30.9024 165.656 31.6768 165.182 32.5088C164.721 33.3408 164.152 34.416 163.473 35.7344C162.974 36.7584 162.577 37.5136 162.283 38C162.257 38.0896 162.168 38.1856 162.014 38.288C161.873 38.4032 161.758 38.4608 161.669 38.4608C161.31 38.4608 160.965 38.3712 160.632 38.192C160.299 38.0128 160.12 37.7248 160.094 37.328C161.08 34.8448 161.681 32.4064 161.899 30.0128C161.617 29.8336 161.387 29.5968 161.208 29.3024C161.029 28.9952 160.894 28.6944 160.805 28.4C160.817 28.1184 160.997 27.8944 161.342 27.728C161.701 27.5488 162.085 27.4592 162.494 27.4592C163.07 27.4592 163.461 27.6704 163.665 28.0928C163.87 28.5024 163.973 29.1552 163.973 30.0512C163.973 30.4992 163.857 31.2224 163.627 32.2208C163.883 31.632 164.267 30.9536 164.779 30.1856C165.291 29.4176 165.912 28.7264 166.641 28.112C167.371 27.4976 168.133 27.1904 168.926 27.1904C169.413 27.1904 169.79 27.2992 170.059 27.5168C170.341 27.7216 170.539 27.9776 170.654 28.2848C170.782 28.592 170.904 29.008 171.019 29.5328C170.904 29.648 170.693 30.1472 170.385 31.0304C170.091 31.9008 169.822 32.8544 169.579 33.8912C169.336 34.928 169.214 35.7792 169.214 36.4448C169.214 36.7776 169.253 37.0528 169.329 37.2704C169.201 37.6288 168.997 37.8976 168.715 38.0768C168.433 38.2688 168.113 38.3648 167.755 38.3648C167.537 38.3648 167.345 38.2624 167.179 38.0576C167.013 37.8528 166.897 37.6288 166.833 37.3856C166.846 36.592 167.038 35.5104 167.409 34.1408C167.781 32.7712 168.273 31.1328 168.888 29.2256ZM169.659 26.3264C169.083 26.3264 168.629 26.1472 168.296 25.7888C167.95 25.4176 167.777 24.9568 167.777 24.4064C167.777 23.7152 168.046 23.1584 168.584 22.736C169.109 22.3008 169.781 22.0832 170.6 22.0832C171.099 22.0832 171.534 22.2752 171.905 22.6592C172.289 23.0432 172.481 23.5296 172.481 24.1184C172.481 24.5152 172.347 24.8864 172.078 25.232C171.822 25.5648 171.477 25.8336 171.041 26.0384C170.606 26.2304 170.145 26.3264 169.659 26.3264ZM169.909 25.2704C170.229 25.2704 170.504 25.1616 170.734 24.944C170.965 24.7264 171.08 24.4192 171.08 24.0224C171.08 23.792 171.009 23.6064 170.869 23.4656C170.728 23.3248 170.555 23.2544 170.35 23.2544C169.953 23.2544 169.646 23.3568 169.429 23.5616C169.211 23.7664 169.102 24.08 169.102 24.5024C169.102 24.7328 169.192 24.9184 169.371 25.0592C169.537 25.2 169.717 25.2704 169.909 25.2704ZM179.797 30.4928C179.669 31.3248 179.368 32.6752 178.894 34.544C178.843 34.736 178.728 35.1712 178.549 35.8496C178.382 36.528 178.261 37.104 178.184 37.5776C178.03 37.8848 177.832 38.1216 177.589 38.288C177.345 38.4544 176.961 38.5376 176.437 38.5376C176.027 38.5376 175.822 38.3392 175.822 37.9424C175.822 37.8656 175.835 37.7504 175.861 37.5968L176.206 36.1184C176.334 35.5808 176.449 35.1008 176.552 34.6784C176.667 34.2432 176.763 33.8656 176.84 33.5456C177.237 31.9456 177.499 30.8448 177.627 30.2432C177.64 30.192 177.646 30.128 177.646 30.0512C177.646 29.6928 177.473 29.4048 177.128 29.1872C176.795 28.9568 176.443 28.8416 176.072 28.8416C175.291 28.8416 174.709 29.072 174.325 29.5328C173.953 29.9808 173.749 30.576 173.71 31.3184C173.211 31.2672 172.795 31.152 172.462 30.9728C172.142 30.7936 171.982 30.5568 171.982 30.2624C171.982 29.3536 172.347 28.6176 173.077 28.0544C173.819 27.4784 174.869 27.1904 176.225 27.1904C177.057 27.1904 177.742 27.3568 178.28 27.6896C178.817 28.0096 179.208 28.4064 179.451 28.88C179.694 29.3408 179.816 29.7888 179.816 30.224C179.816 30.352 179.809 30.4416 179.797 30.4928ZM185.621 29.9168C185.621 30.4416 185.538 31.1136 185.372 31.9328C185.218 32.752 185.007 33.5456 184.738 34.3136C185.737 34.6336 186.889 35.2544 188.194 36.176C188.77 33.5776 189.308 31.44 189.807 29.7632C190.319 28.0864 190.831 27.248 191.343 27.248C192.009 27.248 192.367 27.5296 192.418 28.0928C192.303 28.208 192.073 28.9312 191.727 30.2624C191.394 31.5808 191.061 32.9952 190.729 34.5056C190.409 36.016 190.229 36.9376 190.191 37.2704C189.922 38 189.442 38.3648 188.751 38.3648C188.482 38.3648 188.162 38.2624 187.791 38.0576C187.433 37.8528 186.953 37.5456 186.351 37.136C185.455 36.5088 184.777 36.112 184.316 35.9456C184.29 36.0992 184.239 36.2656 184.162 36.4448C183.957 37.008 183.618 37.4624 183.145 37.808C182.671 38.1536 182.217 38.3264 181.781 38.3264C181.244 38.3264 180.86 38.1792 180.629 37.8848C180.386 37.5904 180.265 37.2192 180.265 36.7712C180.265 36.3488 180.367 35.9456 180.572 35.5616C180.764 35.1648 181.033 34.8384 181.378 34.5824C181.737 34.3136 182.14 34.1664 182.588 34.1408C182.869 33.2192 183.068 32.4896 183.183 31.952C183.311 31.4144 183.401 30.768 183.452 30.0128C183.17 29.8336 182.94 29.5968 182.761 29.3024C182.581 28.9952 182.447 28.6944 182.357 28.4C182.37 28.1184 182.549 27.8944 182.895 27.728C183.253 27.5488 183.637 27.4592 184.047 27.4592C184.636 27.4592 185.045 27.6576 185.276 28.0544C185.506 28.4384 185.621 29.0592 185.621 29.9168ZM200.872 30.4928C200.744 31.3248 200.443 32.6752 199.969 34.544C199.918 34.736 199.803 35.1712 199.624 35.8496C199.457 36.528 199.336 37.104 199.259 37.5776C199.105 37.8848 198.907 38.1216 198.664 38.288C198.42 38.4544 198.036 38.5376 197.512 38.5376C197.102 38.5376 196.897 38.3392 196.897 37.9424C196.897 37.8656 196.91 37.7504 196.936 37.5968L197.281 36.1184C197.409 35.5808 197.524 35.1008 197.627 34.6784C197.742 34.2432 197.838 33.8656 197.915 33.5456C198.312 31.9456 198.574 30.8448 198.702 30.2432C198.715 30.192 198.721 30.128 198.721 30.0512C198.721 29.6928 198.548 29.4048 198.203 29.1872C197.87 28.9568 197.518 28.8416 197.147 28.8416C196.366 28.8416 195.784 29.072 195.4 29.5328C195.028 29.9808 194.824 30.576 194.785 31.3184C194.286 31.2672 193.87 31.152 193.537 30.9728C193.217 30.7936 193.057 30.5568 193.057 30.2624C193.057 29.3536 193.422 28.6176 194.152 28.0544C194.894 27.4784 195.944 27.1904 197.3 27.1904C198.132 27.1904 198.817 27.3568 199.355 27.6896C199.892 28.0096 200.283 28.4064 200.526 28.88C200.769 29.3408 200.891 29.7888 200.891 30.224C200.891 30.352 200.884 30.4416 200.872 30.4928ZM210.959 37.7888C210.805 38.096 210.607 38.3328 210.364 38.4992C210.12 38.6656 209.736 38.7488 209.212 38.7488C208.802 38.7488 208.597 38.5504 208.597 38.1536C208.597 38.0768 208.61 37.9616 208.636 37.808L208.981 36.3296C209.071 35.984 209.154 35.6576 209.231 35.3504C209.308 35.0432 209.378 34.768 209.442 34.5248C209.724 33.488 209.928 32.656 210.056 32.0288C210.197 31.3888 210.268 30.7936 210.268 30.2432C210.268 29.3088 209.653 28.8416 208.424 28.8416C207.656 28.8416 206.908 28.9696 206.178 29.2256C205.461 29.4688 204.93 29.808 204.584 30.2432C205.032 30.2816 205.429 30.4288 205.775 30.6848C206.12 30.928 206.293 31.2416 206.293 31.6256C206.293 31.7408 206.274 31.8688 206.236 32.0096L205.775 33.6608C205.442 34.8 205.186 35.7152 205.007 36.4064C204.828 37.0976 204.732 37.6672 204.719 38.1152C204.501 38.2688 204.232 38.3456 203.912 38.3456C203.554 38.3456 203.279 38.2688 203.087 38.1152C202.908 37.9744 202.818 37.7824 202.818 37.5392C202.818 36.7712 202.94 35.8624 203.183 34.8128C203.426 33.7632 203.759 32.6752 204.181 31.5488C204.053 31.4592 203.836 31.3504 203.528 31.2224C203.208 31.0816 202.972 30.9536 202.818 30.8384C202.677 30.7104 202.607 30.5376 202.607 30.32C202.607 29.7568 202.876 29.2384 203.413 28.7648C203.964 28.2784 204.693 27.8944 205.602 27.6128C206.511 27.3312 207.477 27.1904 208.501 27.1904C209.18 27.1904 209.813 27.3184 210.402 27.5744C211.004 27.8176 211.484 28.1888 211.842 28.688C212.213 29.1744 212.399 29.776 212.399 30.4928C212.399 31.1584 212.316 31.8816 212.149 32.6624C211.996 33.4304 211.778 34.3648 211.496 35.4656C211.24 36.4384 211.061 37.2128 210.959 37.7888ZM213.99 21.8528C213.913 22.1344 213.811 22.4352 213.683 22.7552C213.568 23.0624 213.484 23.2736 213.433 23.3888C213.19 23.952 212.998 24.4768 212.857 24.9632C212.844 25.0016 212.819 25.1104 212.78 25.2896C212.742 25.456 212.646 25.6032 212.492 25.7312C212.339 25.8464 212.121 25.904 211.84 25.904C211.481 25.904 211.302 25.52 211.302 24.752C211.302 24.4448 211.366 23.9584 211.494 23.2928C211.622 22.6272 211.801 22.032 212.032 21.5072C212.262 20.9696 212.537 20.7008 212.857 20.7008C213.139 20.7008 213.408 20.784 213.664 20.9504C213.92 21.104 214.06 21.296 214.086 21.5264C214.086 21.5776 214.073 21.6352 214.048 21.6992C214.022 21.7504 214.003 21.8016 213.99 21.8528ZM214.585 32.8544C213.497 32.8544 212.953 32.5088 212.953 31.8176C212.953 30.9216 213.273 30.1216 213.913 29.4176C214.566 28.7136 215.456 28.1696 216.582 27.7856C217.708 27.3888 218.963 27.1904 220.345 27.1904C221.088 27.1904 221.766 27.3632 222.38 27.7088C223.008 28.0544 223.5 28.5152 223.859 29.0912C224.23 29.6672 224.416 30.2816 224.416 30.9344C224.416 31.9456 224.166 33.0272 223.667 34.1792C223.18 35.3312 222.502 36.304 221.632 37.0976C220.761 37.8784 219.776 38.2688 218.675 38.2688C217.92 38.2688 217.286 38.096 216.774 37.7504C216.275 37.4048 215.904 36.9504 215.66 36.3872C215.417 35.824 215.296 35.2224 215.296 34.5824C215.296 33.9296 215.424 33.3024 215.68 32.7008C215.936 32.0864 216.307 31.5872 216.793 31.2032C217.292 30.8192 217.881 30.6272 218.56 30.6272C218.726 30.6272 218.918 30.6784 219.136 30.7808C219.353 30.8832 219.539 31.0176 219.692 31.184C219.846 31.3504 219.923 31.5232 219.923 31.7024C219.923 31.8944 219.833 32.0928 219.654 32.2976C219.475 32.4896 219.244 32.6496 218.963 32.7776C218.694 32.9056 218.425 32.9696 218.156 32.9696C217.977 32.9696 217.792 33.136 217.6 33.4688C217.42 33.8016 217.331 34.1536 217.331 34.5248C217.331 34.9728 217.44 35.4144 217.657 35.8496C217.875 36.272 218.131 36.4832 218.425 36.4832C219.257 36.4832 219.948 36.1248 220.499 35.408C221.062 34.6912 221.478 33.8912 221.747 33.008C222.028 32.1248 222.169 31.4784 222.169 31.0688C222.169 30.5312 222.028 30.0256 221.747 29.552C221.478 29.0784 220.94 28.8416 220.134 28.8416C219.212 28.8416 218.348 28.9952 217.542 29.3024C216.748 29.5968 216.083 30.0448 215.545 30.6464C215.02 31.248 214.7 31.984 214.585 32.8544ZM231.334 35.8688C230.873 36.0224 230.061 36.4128 228.896 37.04C228.179 37.4368 227.59 37.744 227.129 37.9616C226.669 38.1792 226.304 38.288 226.035 38.288C225.331 38.288 224.979 37.9232 224.979 37.1936C224.979 37.0656 225.017 36.8992 225.094 36.6944C225.171 36.4768 225.241 36.2912 225.305 36.1376C225.382 35.984 225.433 35.8752 225.459 35.8112C225.869 34.9408 226.208 34.064 226.477 33.1808C226.758 32.2976 226.944 31.2416 227.033 30.0128C226.752 29.8336 226.521 29.5968 226.342 29.3024C226.163 28.9952 226.029 28.6944 225.939 28.4C225.952 28.1184 226.131 27.8944 226.477 27.728C226.835 27.5488 227.219 27.4592 227.629 27.4592C228.23 27.4592 228.653 27.6576 228.896 28.0544C229.152 28.4512 229.28 29.072 229.28 29.9168C229.28 30.6336 229.133 31.5808 228.838 32.7584C228.544 33.936 228.185 34.928 227.763 35.7344C228.301 35.4272 228.979 35.1072 229.798 34.7744C230.63 34.4416 231.424 34.1984 232.179 34.0448C232.499 32.624 232.781 31.4656 233.024 30.5696C233.267 29.6608 233.549 28.88 233.869 28.2272C234.189 27.5744 234.541 27.248 234.925 27.248C235.59 27.248 235.949 27.5296 236 28.0928C235.885 28.208 235.705 28.688 235.462 29.5328C235.232 30.3648 235.008 31.2672 234.79 32.24C234.573 33.2128 234.445 33.8592 234.406 34.1792C234.701 34.2688 234.918 34.4544 235.059 34.736C235.213 35.0048 235.289 35.3248 235.289 35.696C235.289 36.0672 235.206 36.4512 235.04 36.848C234.873 37.2448 234.617 37.5776 234.272 37.8464C233.939 38.1152 233.517 38.2496 233.005 38.2496C232.569 38.2496 232.179 38.0768 231.833 37.7312C231.488 37.3856 231.315 36.9312 231.315 36.368C231.315 36.1632 231.321 35.9968 231.334 35.8688Z" fill="black"/>
<rect x="0.5" y="0.5" width="348" height="62" stroke="black"/>
</svg>
