<svg width="349" height="47" viewBox="0 0 349 47" fill="none" xmlns="http://www.w3.org/2000/svg">
<path d="M153.593 25.4688C153.593 26.4544 153.305 27.312 152.729 28.0416C152.166 28.7712 151.43 29.328 150.521 29.712C149.612 30.096 148.665 30.288 147.68 30.288C147.104 30.288 146.54 30.192 145.99 30C145.44 29.808 144.992 29.5456 144.646 29.2128C144.3 28.8672 144.128 28.4896 144.128 28.08C144.128 27.7856 144.217 27.5616 144.396 27.408C144.576 27.2544 144.825 27.1776 145.145 27.1776C145.324 27.1776 145.491 27.2224 145.644 27.312C145.811 27.4016 146.022 27.5424 146.278 27.7344C146.585 27.9648 146.854 28.144 147.084 28.272C147.328 28.3872 147.596 28.4448 147.891 28.4448C148.544 28.4448 149.126 28.304 149.638 28.0224C150.163 27.7408 150.566 27.3824 150.848 26.9472C151.142 26.4992 151.289 26.0576 151.289 25.6224C151.289 25.1872 151.123 24.816 150.79 24.5088C150.457 24.1888 149.996 23.984 149.408 23.8944C149.216 24.0352 149.043 24.1248 148.889 24.1632C148.748 24.2016 148.576 24.2208 148.371 24.2208C148.051 24.2208 147.756 24.1376 147.488 23.9712C147.219 23.8048 147.084 23.5936 147.084 23.3376C147.084 23.0432 147.238 22.8192 147.545 22.6656C147.852 22.4992 148.352 22.3072 149.043 22.0896C149.913 21.8336 150.592 21.5648 151.078 21.2832C151.564 20.9888 151.827 20.5664 151.865 20.016C151.865 19.7344 151.724 19.5104 151.443 19.344C151.161 19.1648 150.816 19.0752 150.406 19.0752C149.561 19.0752 148.832 19.312 148.217 19.7856C148.038 19.9136 147.91 20.048 147.833 20.1888C147.756 20.3296 147.699 20.4832 147.66 20.6496C147.596 20.8544 147.513 21.0016 147.411 21.0912C147.321 21.1808 147.136 21.2256 146.854 21.2256C146.444 21.2256 146.144 21.136 145.952 20.9568C145.76 20.7776 145.664 20.5024 145.664 20.1312C145.664 19.7088 145.9 19.2736 146.374 18.8256C146.86 18.3776 147.488 18.0064 148.256 17.712C149.036 17.4176 149.856 17.2704 150.713 17.2704C151.788 17.2704 152.627 17.5136 153.228 18C153.83 18.4864 154.131 19.1456 154.131 19.9776C154.131 20.5664 153.875 21.1424 153.363 21.7056C152.864 22.256 152.217 22.672 151.424 22.9536C152.128 23.0816 152.665 23.3824 153.036 23.856C153.408 24.3296 153.593 24.8672 153.593 25.4688ZM159.465 30.4032C158.595 30.4032 157.846 30.192 157.219 29.7696C156.592 29.3472 156.118 28.784 155.798 28.08C155.478 27.3632 155.318 26.576 155.318 25.7184C155.318 25.2576 155.363 24.8096 155.452 24.3744C155.849 22.2624 156.592 20.5728 157.68 19.3056C158.768 18.0384 160.278 17.4048 162.211 17.4048C163.414 17.4048 164.329 17.7888 164.956 18.5568C165.584 19.312 165.897 20.4256 165.897 21.8976C165.897 23.2416 165.667 24.5664 165.206 25.872C164.745 27.1648 164.028 28.2464 163.056 29.1168C162.096 29.9744 160.899 30.4032 159.465 30.4032ZM159.408 28.5792C160.176 28.5792 160.867 28.2272 161.481 27.5232C162.108 26.8192 162.588 25.9296 162.921 24.8544C163.267 23.7792 163.44 22.7104 163.44 21.648C163.44 20.2016 162.838 19.4784 161.635 19.4784C160.931 19.4784 160.278 19.824 159.676 20.5152C159.075 21.1936 158.595 22.0384 158.236 23.0496C157.891 24.048 157.718 24.9824 157.718 25.8528C157.718 26.7616 157.859 27.4464 158.14 27.9072C158.435 28.3552 158.857 28.5792 159.408 28.5792ZM178.197 27.8688C177.736 28.0224 176.923 28.4128 175.758 29.04C175.042 29.4368 174.453 29.744 173.992 29.9616C173.531 30.1792 173.166 30.288 172.898 30.288C172.194 30.288 171.842 29.9232 171.842 29.1936C171.842 29.0656 171.88 28.8992 171.957 28.6944C172.034 28.4768 172.104 28.2912 172.168 28.1376C172.245 27.984 172.296 27.8752 172.322 27.8112C172.731 26.9408 173.07 26.064 173.339 25.1808C173.621 24.2976 173.806 23.2416 173.896 22.0128C173.614 21.8336 173.384 21.5968 173.205 21.3024C173.026 20.9952 172.891 20.6944 172.802 20.4C172.814 20.1184 172.994 19.8944 173.339 19.728C173.698 19.5488 174.082 19.4592 174.491 19.4592C175.093 19.4592 175.515 19.6576 175.758 20.0544C176.014 20.4512 176.142 21.072 176.142 21.9168C176.142 22.6336 175.995 23.5808 175.701 24.7584C175.406 25.936 175.048 26.928 174.626 27.7344C175.163 27.4272 175.842 27.1072 176.661 26.7744C177.493 26.4416 178.286 26.1984 179.042 26.0448C179.362 24.624 179.643 23.4656 179.886 22.5696C180.13 21.6608 180.411 20.88 180.731 20.2272C181.051 19.5744 181.403 19.248 181.787 19.248C182.453 19.248 182.811 19.5296 182.862 20.0928C182.747 20.208 182.568 20.688 182.325 21.5328C182.094 22.3648 181.87 23.2672 181.653 24.24C181.435 25.2128 181.307 25.8592 181.269 26.1792C181.563 26.2688 181.781 26.4544 181.922 26.736C182.075 27.0048 182.152 27.3248 182.152 27.696C182.152 28.0672 182.069 28.4512 181.902 28.848C181.736 29.2448 181.48 29.5776 181.134 29.8464C180.802 30.1152 180.379 30.2496 179.867 30.2496C179.432 30.2496 179.042 30.0768 178.696 29.7312C178.35 29.3856 178.178 28.9312 178.178 28.368C178.178 28.1632 178.184 27.9968 178.197 27.8688ZM192.209 22.4928C192.081 23.3248 191.78 24.6752 191.307 26.544C191.256 26.736 191.14 27.1712 190.961 27.8496C190.795 28.528 190.673 29.104 190.596 29.5776C190.443 29.8848 190.244 30.1216 190.001 30.288C189.758 30.4544 189.374 30.5376 188.849 30.5376C188.44 30.5376 188.235 30.3392 188.235 29.9424C188.235 29.8656 188.248 29.7504 188.273 29.5968L188.619 28.1184C188.747 27.5808 188.862 27.1008 188.964 26.6784C189.08 26.2432 189.176 25.8656 189.252 25.5456C189.649 23.9456 189.912 22.8448 190.04 22.2432C190.052 22.192 190.059 22.128 190.059 22.0512C190.059 21.6928 189.886 21.4048 189.54 21.1872C189.208 20.9568 188.856 20.8416 188.484 20.8416C187.704 20.8416 187.121 21.072 186.737 21.5328C186.366 21.9808 186.161 22.576 186.123 23.3184C185.624 23.2672 185.208 23.152 184.875 22.9728C184.555 22.7936 184.395 22.5568 184.395 22.2624C184.395 21.3536 184.76 20.6176 185.489 20.0544C186.232 19.4784 187.281 19.1904 188.638 19.1904C189.47 19.1904 190.155 19.3568 190.692 19.6896C191.23 20.0096 191.62 20.4064 191.864 20.88C192.107 21.3408 192.228 21.7888 192.228 22.224C192.228 22.352 192.222 22.4416 192.209 22.4928ZM202.469 21.2256C202.456 21.0848 202.418 20.976 202.354 20.8992C202.29 20.8096 202.175 20.7648 202.008 20.7648C201.458 20.9952 200.895 21.4688 200.319 22.1856C199.756 22.9024 199.237 23.6768 198.764 24.5088C198.303 25.3408 197.733 26.416 197.055 27.7344C196.556 28.7584 196.159 29.5136 195.864 30C195.839 30.0896 195.749 30.1856 195.596 30.288C195.455 30.4032 195.34 30.4608 195.25 30.4608C194.892 30.4608 194.546 30.3712 194.213 30.192C193.88 30.0128 193.701 29.7248 193.676 29.328C194.661 26.8448 195.263 24.4064 195.48 22.0128C195.199 21.8336 194.968 21.5968 194.789 21.3024C194.61 20.9952 194.476 20.6944 194.386 20.4C194.399 20.1184 194.578 19.8944 194.924 19.728C195.282 19.5488 195.666 19.4592 196.076 19.4592C196.652 19.4592 197.042 19.6704 197.247 20.0928C197.452 20.5024 197.554 21.1552 197.554 22.0512C197.554 22.4992 197.439 23.2224 197.208 24.2208C197.464 23.632 197.848 22.9536 198.36 22.1856C198.872 21.4176 199.493 20.7264 200.223 20.112C200.952 19.4976 201.714 19.1904 202.508 19.1904C202.994 19.1904 203.372 19.2992 203.64 19.5168C203.922 19.7216 204.12 19.9776 204.236 20.2848C204.364 20.592 204.485 21.008 204.6 21.5328C204.485 21.648 204.274 22.1472 203.967 23.0304C203.672 23.9008 203.404 24.8544 203.16 25.8912C202.917 26.928 202.796 27.7792 202.796 28.4448C202.796 28.7776 202.834 29.0528 202.911 29.2704C202.783 29.6288 202.578 29.8976 202.296 30.0768C202.015 30.2688 201.695 30.3648 201.336 30.3648C201.119 30.3648 200.927 30.2624 200.76 30.0576C200.594 29.8528 200.479 29.6288 200.415 29.3856C200.428 28.592 200.62 27.5104 200.991 26.1408C201.362 24.7712 201.855 23.1328 202.469 21.2256ZM205.276 17.04C205.237 17.232 205.116 17.3728 204.911 17.4624C204.706 17.5392 204.482 17.5776 204.239 17.5776C204.021 17.5776 203.804 17.5072 203.586 17.3664C203.368 17.2128 203.074 16.9696 202.703 16.6368C202.191 16.176 201.736 15.824 201.34 15.5808C200.93 15.3376 200.469 15.216 199.957 15.216C199.548 15.216 199.132 15.2928 198.709 15.4464C198.274 15.5872 198.056 15.792 198.056 16.0608C198.056 16.2656 198.21 16.4448 198.517 16.5984C198.824 16.7392 199.183 16.848 199.592 16.9248C199.989 16.9888 200.322 17.0208 200.591 17.0208L201.512 17.0016C201.679 16.9888 201.89 16.9824 202.146 16.9824C202.428 16.9824 202.568 17.0592 202.568 17.2128C202.568 17.4432 202.453 17.6416 202.223 17.808C201.98 17.9744 201.698 18.1024 201.378 18.192C201.045 18.2816 200.757 18.3264 200.514 18.3264C199.772 18.3264 199.048 18.2432 198.344 18.0768C197.628 17.9104 197.045 17.6672 196.597 17.3472C196.136 17.0272 195.906 16.6432 195.906 16.1952C195.906 15.7088 196.143 15.2736 196.616 14.8896C197.077 14.5056 197.64 14.2112 198.306 14.0064C198.959 13.7888 199.541 13.68 200.053 13.68C200.872 13.68 201.57 13.8208 202.146 14.1024C202.722 14.3712 203.285 14.8192 203.836 15.4464C203.938 15.5616 204.047 15.6704 204.162 15.7728L204.757 12.6624C204.77 12.5344 204.898 12.4256 205.141 12.336C205.384 12.2336 205.608 12.1824 205.813 12.1824C206.056 12.1824 206.255 12.2528 206.408 12.3936C206.562 12.5216 206.722 12.7584 206.888 13.104L205.276 17.04Z" fill="black"/>
<rect x="0.5" y="0.5" width="348" height="46" stroke="black"/>
</svg>
