<svg width="349" height="59" viewBox="0 0 349 59" fill="none" xmlns="http://www.w3.org/2000/svg">
<path d="M126.261 35.2896C126.146 35.6992 125.96 36 125.704 36.192C125.448 36.384 125.058 36.48 124.533 36.48C124.277 36.48 123.963 36.32 123.592 36C123.221 35.6672 122.882 35.2832 122.574 34.848C121.973 35.1936 121.518 35.4432 121.211 35.5968C120.917 35.7376 120.59 35.8464 120.232 35.9232C119.886 35.9872 119.438 36.0192 118.888 36.0192C118.21 36.0192 117.653 35.8464 117.218 35.5008C116.782 35.1552 116.565 34.6176 116.565 33.888C116.565 33.6704 116.597 33.3888 116.661 33.0432C116.891 31.8912 117.109 30.9312 117.314 30.1632C117.57 29.1136 117.768 28.2304 117.909 27.5136C117.294 27.1168 116.923 26.7136 116.795 26.304C116.808 26.0224 116.987 25.8112 117.333 25.6704C117.678 25.5296 118.062 25.4592 118.485 25.4592C119.099 25.4592 119.522 25.6256 119.752 25.9584C119.995 26.2912 120.117 26.8736 120.117 27.7056L118.965 32.4672C118.888 32.8256 118.85 33.1136 118.85 33.3312C118.85 33.6896 118.933 33.9328 119.099 34.0608C119.278 34.1888 119.458 34.2528 119.637 34.2528C119.944 34.2528 120.315 34.1632 120.75 33.984C121.198 33.8048 121.563 33.5744 121.845 33.2928C121.589 32.7808 121.352 32.128 121.134 31.3344C120.917 30.528 120.808 29.7984 120.808 29.1456C120.808 28.48 120.962 27.872 121.269 27.3216C121.589 26.7584 122.037 26.3168 122.613 25.9968C123.202 25.6768 123.893 25.5168 124.686 25.5168C125.045 25.5168 125.41 25.6704 125.781 25.9776C126.165 26.272 126.478 26.6112 126.722 26.9952C126.978 27.3664 127.106 27.6416 127.106 27.8208C127.106 28.7808 126.843 29.8048 126.318 30.8928C125.794 31.968 125.134 32.9152 124.341 33.7344C124.533 34.08 124.808 34.4128 125.166 34.7328C125.525 35.04 125.89 35.2256 126.261 35.2896ZM123.227 31.9872C124.277 30.3872 124.802 29.0624 124.802 28.0128C124.802 27.8464 124.776 27.712 124.725 27.6096C124.674 27.5072 124.616 27.456 124.552 27.456C124.334 27.456 124.072 27.5456 123.765 27.7248C123.47 27.904 123.214 28.1344 122.997 28.416C122.792 28.6976 122.69 28.992 122.69 29.2992C122.69 29.6832 122.741 30.1376 122.843 30.6624C122.946 31.1744 123.074 31.616 123.227 31.9872ZM136.658 35.4624C136.543 35.7056 136.364 35.8976 136.121 36.0384C135.89 36.1792 135.622 36.2496 135.314 36.2496C134.866 36.2496 134.585 36.1408 134.47 35.9232C134.354 35.7056 134.297 35.392 134.297 34.9824C134.591 34.5344 134.738 34.048 134.738 33.5232C134.738 32.832 134.598 32.2432 134.316 31.7568C134.034 31.2576 133.58 31.008 132.953 31.008C132.505 31.008 132.063 31.2256 131.628 31.6608C131.193 32.0832 130.834 32.5952 130.553 33.1968C130.271 33.7856 130.13 34.304 130.13 34.752C130.13 35.0208 130.188 35.2448 130.303 35.424C130.188 35.7184 130.002 35.936 129.746 36.0768C129.49 36.2176 129.241 36.288 128.998 36.288C128.665 36.288 128.402 36.1728 128.21 35.9424C128.031 35.712 127.942 35.36 127.942 34.8864C127.942 33.888 128.185 32.96 128.671 32.1024C129.17 31.2448 129.823 30.5664 130.63 30.0672C131.436 29.5552 132.287 29.2992 133.183 29.2992C133.759 29.2992 134.29 29.4592 134.777 29.7792C135.263 30.0992 135.602 30.624 135.794 31.3536C135.91 30.8928 136.012 30.3488 136.102 29.7216C136.204 29.0816 136.255 28.6208 136.255 28.3392C136.255 27.8528 136.108 27.4816 135.814 27.2256C135.532 26.9696 135.065 26.8416 134.412 26.8416C133.734 26.8416 133.087 26.944 132.473 27.1488C131.858 27.3536 131.353 27.648 130.956 28.032C130.559 28.416 130.348 28.864 130.322 29.376C129.823 29.3248 129.407 29.2096 129.074 29.0304C128.754 28.8512 128.594 28.6144 128.594 28.32C128.594 27.7568 128.863 27.2384 129.401 26.7648C129.951 26.2784 130.681 25.8944 131.59 25.6128C132.498 25.3312 133.465 25.1904 134.489 25.1904C135.167 25.1904 135.801 25.3184 136.39 25.5744C136.991 25.8176 137.471 26.1888 137.83 26.688C138.201 27.1744 138.386 27.776 138.386 28.4928C138.386 29.0944 138.175 30.2528 137.753 31.968C137.33 33.6704 136.966 34.8352 136.658 35.4624ZM140.607 30.8544C139.519 30.8544 138.975 30.5088 138.975 29.8176C138.975 28.9216 139.295 28.1216 139.935 27.4176C140.588 26.7136 141.477 26.1696 142.604 25.7856C143.73 25.3888 144.985 25.1904 146.367 25.1904C147.109 25.1904 147.788 25.3632 148.402 25.7088C149.029 26.0544 149.522 26.5152 149.881 27.0912C150.252 27.6672 150.437 28.2816 150.437 28.9344C150.437 29.9456 150.188 31.0272 149.689 32.1792C149.202 33.3312 148.524 34.304 147.653 35.0976C146.783 35.8784 145.797 36.2688 144.697 36.2688C143.941 36.2688 143.308 36.096 142.796 35.7504C142.297 35.4048 141.925 34.9504 141.682 34.3872C141.439 33.824 141.317 33.2224 141.317 32.5824C141.317 31.9296 141.445 31.3024 141.701 30.7008C141.957 30.0864 142.329 29.5872 142.815 29.2032C143.314 28.8192 143.903 28.6272 144.581 28.6272C144.748 28.6272 144.94 28.6784 145.157 28.7808C145.375 28.8832 145.561 29.0176 145.714 29.184C145.868 29.3504 145.945 29.5232 145.945 29.7024C145.945 29.8944 145.855 30.0928 145.676 30.2976C145.497 30.4896 145.266 30.6496 144.985 30.7776C144.716 30.9056 144.447 30.9696 144.178 30.9696C143.999 30.9696 143.813 31.136 143.621 31.4688C143.442 31.8016 143.353 32.1536 143.353 32.5248C143.353 32.9728 143.461 33.4144 143.679 33.8496C143.897 34.272 144.153 34.4832 144.447 34.4832C145.279 34.4832 145.97 34.1248 146.521 33.408C147.084 32.6912 147.5 31.8912 147.769 31.008C148.05 30.1248 148.191 29.4784 148.191 29.0688C148.191 28.5312 148.05 28.0256 147.769 27.552C147.5 27.0784 146.962 26.8416 146.156 26.8416C145.234 26.8416 144.37 26.9952 143.564 27.3024C142.77 27.5968 142.105 28.0448 141.567 28.6464C141.042 29.248 140.722 29.984 140.607 30.8544ZM153.382 34.4448C153.74 34.4448 154.143 34.2784 154.591 33.9456C155.052 33.6128 155.443 33.2032 155.763 32.7168C156.095 32.2176 156.281 31.744 156.319 31.296C155.948 31.0912 155.692 30.7392 155.551 30.24C155.564 29.9456 155.705 29.7152 155.974 29.5488C156.243 29.3824 156.569 29.2992 156.953 29.2992C156.953 29.2736 157.075 29.2928 157.318 29.3568C157.561 29.4208 157.779 29.536 157.971 29.7024C158.175 29.856 158.278 30.0864 158.278 30.3936C158.278 31.2512 158.047 32.1344 157.587 33.0432C157.139 33.9392 156.518 34.688 155.724 35.2896C154.931 35.8784 154.06 36.1728 153.113 36.1728C152.268 36.1728 151.718 35.9168 151.462 35.4048C151.219 34.8928 151.097 34.2336 151.097 33.4272C151.097 32.6464 151.263 31.6224 151.596 30.3552C151.929 29.0752 152.575 27.8976 153.535 26.8224C154.508 25.7344 155.865 25.1904 157.606 25.1904C158.297 25.1904 158.982 25.3376 159.66 25.632C160.339 25.9136 160.895 26.3424 161.331 26.9184C161.779 27.4816 162.003 28.1664 162.003 28.9728C162.003 29.152 161.996 29.2928 161.983 29.3952C161.894 30.2656 161.747 31.1872 161.542 32.16C161.35 33.1328 161.081 34.3424 160.735 35.7888C160.569 36.1088 160.377 36.3456 160.159 36.4992C159.955 36.6656 159.59 36.7488 159.065 36.7488C158.655 36.7488 158.451 36.5504 158.451 36.1536C158.451 36.0768 158.463 35.9616 158.489 35.808L158.623 35.232L159.007 33.6192C159.558 31.5712 159.859 30.144 159.91 29.3376V29.184C159.91 28.5312 159.699 27.9808 159.276 27.5328C158.854 27.072 158.291 26.8416 157.587 26.8416C156.409 26.8416 155.487 27.2768 154.822 28.1472C154.156 29.0176 153.708 29.9968 153.478 31.0848C153.247 32.16 153.132 33.1136 153.132 33.9456C153.132 34.2784 153.215 34.4448 153.382 34.4448ZM164.677 27.6672C164.434 27.5136 164.255 27.328 164.14 27.1104C164.024 26.8928 163.941 26.6944 163.89 26.5152C163.839 26.3232 163.807 26.1952 163.794 26.1312C163.807 25.8496 164.012 25.6256 164.408 25.4592C164.805 25.28 165.215 25.1904 165.637 25.1904C166.175 25.1904 166.578 25.3376 166.847 25.632C167.116 25.9264 167.25 26.3168 167.25 26.8032C167.16 26.8544 166.968 27.2576 166.674 28.0128C166.38 28.7552 166.111 29.5744 165.868 30.4704C165.624 31.3536 165.503 32.1024 165.503 32.7168C165.503 33.088 165.535 33.408 165.599 33.6768C165.676 33.9328 165.797 34.0608 165.964 34.0608C166.309 34.0608 166.719 33.6 167.192 32.6784C167.666 31.7568 168.114 30.656 168.536 29.376C168.972 28.096 169.298 26.9632 169.516 25.9776C169.554 25.7728 169.682 25.6 169.9 25.4592C170.13 25.3056 170.322 25.2288 170.476 25.2288C170.77 25.2288 170.994 25.2992 171.148 25.44C171.314 25.5808 171.397 25.7984 171.397 26.0928L171.378 26.304C171.378 26.3296 171.365 26.3808 171.34 26.4576C171.314 26.5344 171.288 26.6304 171.263 26.7456C170.572 29.3312 170.226 31.232 170.226 32.448V32.832C170.226 33.216 170.271 33.5168 170.36 33.7344C170.45 33.952 170.578 34.0608 170.744 34.0608C171.308 34.0608 171.896 33.1712 172.511 31.392C173.125 29.6128 173.612 27.7952 173.97 25.9392C174.034 25.5552 174.316 25.3632 174.815 25.3632C175.096 25.3632 175.404 25.4208 175.736 25.536C176.069 25.6384 176.236 25.76 176.236 25.9008L175.967 27.0528C175.941 27.232 175.916 27.3536 175.89 27.4176C175.468 29.248 175.064 30.7648 174.68 31.968C174.296 33.1584 173.778 34.1888 173.125 35.0592C172.485 35.9168 171.685 36.3456 170.725 36.3456C170.188 36.3456 169.746 36.1024 169.4 35.616C169.068 35.1296 168.901 34.528 168.901 33.8112C168.901 32.9792 169.004 32.064 169.208 31.0656H169.151C168.805 32.1536 168.396 33.1008 167.922 33.9072C167.448 34.7008 166.956 35.3088 166.444 35.7312C165.944 36.1408 165.471 36.3456 165.023 36.3456C164.46 36.3456 164.031 36.064 163.736 35.5008C163.442 34.9376 163.295 34.176 163.295 33.216C163.295 32.448 163.346 31.7696 163.448 31.1808C163.551 30.592 163.672 30.1056 163.813 29.7216C163.967 29.3248 164.165 28.8384 164.408 28.2624L164.677 27.6672ZM185.652 35.4624C185.537 35.7056 185.358 35.8976 185.115 36.0384C184.884 36.1792 184.615 36.2496 184.308 36.2496C183.86 36.2496 183.579 36.1408 183.463 35.9232C183.348 35.7056 183.291 35.392 183.291 34.9824C183.585 34.5344 183.732 34.048 183.732 33.5232C183.732 32.832 183.591 32.2432 183.31 31.7568C183.028 31.2576 182.574 31.008 181.947 31.008C181.499 31.008 181.057 31.2256 180.622 31.6608C180.187 32.0832 179.828 32.5952 179.547 33.1968C179.265 33.7856 179.124 34.304 179.124 34.752C179.124 35.0208 179.182 35.2448 179.297 35.424C179.182 35.7184 178.996 35.936 178.74 36.0768C178.484 36.2176 178.235 36.288 177.991 36.288C177.659 36.288 177.396 36.1728 177.204 35.9424C177.025 35.712 176.935 35.36 176.935 34.8864C176.935 33.888 177.179 32.96 177.665 32.1024C178.164 31.2448 178.817 30.5664 179.623 30.0672C180.43 29.5552 181.281 29.2992 182.177 29.2992C182.753 29.2992 183.284 29.4592 183.771 29.7792C184.257 30.0992 184.596 30.624 184.788 31.3536C184.903 30.8928 185.006 30.3488 185.095 29.7216C185.198 29.0816 185.249 28.6208 185.249 28.3392C185.249 27.8528 185.102 27.4816 184.807 27.2256C184.526 26.9696 184.059 26.8416 183.406 26.8416C182.727 26.8416 182.081 26.944 181.467 27.1488C180.852 27.3536 180.347 27.648 179.95 28.032C179.553 28.416 179.342 28.864 179.316 29.376C178.817 29.3248 178.401 29.2096 178.068 29.0304C177.748 28.8512 177.588 28.6144 177.588 28.32C177.588 27.7568 177.857 27.2384 178.395 26.7648C178.945 26.2784 179.675 25.8944 180.583 25.6128C181.492 25.3312 182.459 25.1904 183.483 25.1904C184.161 25.1904 184.795 25.3184 185.383 25.5744C185.985 25.8176 186.465 26.1888 186.823 26.688C187.195 27.1744 187.38 27.776 187.38 28.4928C187.38 29.0944 187.169 30.2528 186.747 31.968C186.324 33.6704 185.959 34.8352 185.652 35.4624ZM196.494 28.4928C196.366 29.3248 196.065 30.6752 195.591 32.544C195.54 32.736 195.425 33.1712 195.246 33.8496C195.079 34.528 194.958 35.104 194.881 35.5776C194.727 35.8848 194.529 36.1216 194.286 36.288C194.042 36.4544 193.658 36.5376 193.134 36.5376C192.724 36.5376 192.519 36.3392 192.519 35.9424C192.519 35.8656 192.532 35.7504 192.558 35.5968L192.903 34.1184C193.031 33.5808 193.146 33.1008 193.249 32.6784C193.364 32.2432 193.46 31.8656 193.537 31.5456C193.934 29.9456 194.196 28.8448 194.324 28.2432C194.337 28.192 194.343 28.128 194.343 28.0512C194.343 27.6928 194.17 27.4048 193.825 27.1872C193.492 26.9568 193.14 26.8416 192.769 26.8416C191.988 26.8416 191.406 27.072 191.022 27.5328C190.65 27.9808 190.446 28.576 190.407 29.3184C189.908 29.2672 189.492 29.152 189.159 28.9728C188.839 28.7936 188.679 28.5568 188.679 28.2624C188.679 27.3536 189.044 26.6176 189.774 26.0544C190.516 25.4784 191.566 25.1904 192.922 25.1904C193.754 25.1904 194.439 25.3568 194.977 25.6896C195.514 26.0096 195.905 26.4064 196.148 26.88C196.391 27.3408 196.513 27.7888 196.513 28.224C196.513 28.352 196.506 28.4416 196.494 28.4928ZM204.853 36.2496C204.354 36.1856 204.027 36.0512 203.874 35.8464C203.72 35.6416 203.643 35.3536 203.643 34.9824C203.95 34.5344 204.104 34.048 204.104 33.5232C204.104 32.8832 203.893 32.3328 203.47 31.872C203.061 31.4112 202.453 31.1808 201.646 31.1808C201.07 31.1808 200.629 31.4496 200.322 31.9872C200.014 32.512 199.81 33.088 199.707 33.7152C199.618 34.3296 199.573 34.8416 199.573 35.2512C199.445 35.5328 199.259 35.744 199.016 35.8848C198.786 36.0128 198.549 36.0768 198.306 36.0768C197.947 36.0768 197.678 35.9872 197.499 35.808C197.32 35.616 197.23 35.36 197.23 35.04C197.23 33.9264 197.435 32.9344 197.845 32.064C198.254 31.1936 198.818 30.5152 199.534 30.0288C200.251 29.5424 201.058 29.2992 201.954 29.2992C202.555 29.2992 203.176 29.4848 203.816 29.856C204.456 30.2272 204.904 30.816 205.16 31.6224C205.173 31.5456 205.218 31.3344 205.294 30.9888C205.384 30.6432 205.454 30.3104 205.506 29.9904C205.557 29.6576 205.582 29.3568 205.582 29.088C205.582 28.768 205.544 28.4736 205.467 28.2048C204.789 28.3072 203.624 28.3584 201.973 28.3584C201.269 28.3584 200.686 28.2752 200.226 28.1088C199.765 27.9296 199.534 27.5968 199.534 27.1104C199.534 26.5472 199.938 26.0992 200.744 25.7664C201.55 25.4208 202.485 25.248 203.547 25.248C204.674 25.248 205.614 25.4464 206.37 25.8432C207.214 25.728 207.995 25.568 208.712 25.3632C209.429 25.1584 210.229 24.8448 211.112 24.4224C211.637 24.4224 212.002 24.4864 212.206 24.6144C212.411 24.7296 212.514 24.9216 212.514 25.1904C212.514 25.6896 212.091 26.112 211.246 26.4576C210.414 26.8032 209.237 27.168 207.714 27.552C207.778 27.744 207.81 28.0576 207.81 28.4928C207.81 29.632 207.656 30.7968 207.349 31.9872C207.054 33.1776 206.638 34.336 206.101 35.4624C205.883 35.8464 205.467 36.1088 204.853 36.2496ZM214.893 30.9312C214.893 30.8544 214.868 30.7712 214.817 30.6816C214.778 30.5792 214.753 30.5152 214.74 30.4896C214.612 30.2592 214.548 30.0736 214.548 29.9328C214.548 29.8816 214.637 29.8048 214.817 29.7024C215.009 29.5872 215.239 29.4912 215.508 29.4144C215.777 29.3248 216.026 29.28 216.257 29.28C216.487 29.28 216.673 29.3696 216.813 29.5488C216.954 29.728 217.025 29.9648 217.025 30.2592C217.025 31.104 216.756 31.9872 216.218 32.9088C215.681 33.8304 214.97 34.6048 214.087 35.232C213.217 35.8464 212.308 36.1536 211.361 36.1536C210.785 36.1536 210.375 35.8784 210.132 35.328C209.901 34.7776 209.786 34.144 209.786 33.4272C209.786 32.7872 209.953 31.8016 210.285 30.4704C210.618 29.1264 211.137 27.9104 211.841 26.8224C212.545 25.7216 213.428 25.1712 214.49 25.1712C214.81 25.1712 215.098 25.2672 215.354 25.4592C215.61 25.6384 215.866 25.8688 216.122 26.1504C216.301 26.3296 216.404 26.4256 216.429 26.4384L217.082 25.9776C217.453 25.7088 217.869 25.4912 218.33 25.3248C218.804 25.1584 219.239 25.0752 219.636 25.0752C220.173 25.0752 220.57 25.408 220.826 26.0736C221.082 26.7264 221.21 27.4688 221.21 28.3008C221.21 28.7232 221.178 29.0752 221.114 29.3568L219.597 35.5776C219.521 35.8848 219.335 36.1536 219.041 36.384C218.746 36.6272 218.33 36.7488 217.793 36.7488C217.575 36.7488 217.428 36.6976 217.351 36.5952C217.274 36.4928 217.236 36.3456 217.236 36.1536C217.236 36.0768 217.249 35.9616 217.274 35.808L218.714 30.0672C218.881 29.3504 218.964 28.7168 218.964 28.1664C218.964 27.7824 218.913 27.3856 218.81 26.976C217.479 27.7056 216.538 28.0704 215.988 28.0704C215.745 28.0704 215.508 27.9872 215.277 27.8208C215.06 27.6544 214.836 27.4624 214.605 27.2448C214.388 27.0144 214.241 26.8608 214.164 26.784C213.818 27.2576 213.46 27.9424 213.089 28.8384C212.717 29.7344 212.41 30.6304 212.167 31.5264C211.924 32.4224 211.802 33.1008 211.802 33.5616C211.802 33.8944 211.885 34.0608 212.052 34.0608C212.359 34.0608 212.737 33.8816 213.185 33.5232C213.645 33.1648 214.042 32.7424 214.375 32.256C214.721 31.7568 214.893 31.3152 214.893 30.9312ZM221.724 22.3488C221.801 22.3872 221.852 22.4704 221.878 22.5984C221.916 22.7136 221.935 22.8224 221.935 22.9248C221.935 23.1552 221.827 23.3216 221.609 23.424C221.391 23.5264 221.148 23.5776 220.879 23.5776C220.662 23.5776 220.444 23.5072 220.227 23.3664C220.009 23.2128 219.715 22.9696 219.343 22.6368C218.831 22.176 218.377 21.824 217.98 21.5808C217.571 21.3376 217.11 21.216 216.598 21.216C216.188 21.216 215.772 21.2928 215.35 21.4464C214.915 21.5872 214.697 21.792 214.697 22.0608C214.697 22.2656 214.851 22.4448 215.158 22.5984C215.465 22.7392 215.823 22.848 216.233 22.9248C216.63 22.9888 216.963 23.0208 217.231 23.0208L218.153 23.0016C218.319 22.9888 218.531 22.9824 218.787 22.9824C219.068 22.9824 219.209 23.0592 219.209 23.2128C219.209 23.4432 219.094 23.6416 218.863 23.808C218.62 23.9744 218.339 24.1024 218.019 24.192C217.686 24.2816 217.398 24.3264 217.155 24.3264C216.412 24.3264 215.689 24.2432 214.985 24.0768C214.268 23.9104 213.686 23.6672 213.238 23.3472C212.777 23.0272 212.547 22.6432 212.547 22.1952C212.547 21.7088 212.783 21.2736 213.257 20.8896C213.718 20.5056 214.281 20.2112 214.947 20.0064C215.599 19.7888 216.182 19.68 216.694 19.68C217.513 19.68 218.211 19.8208 218.787 20.1024C219.363 20.3712 219.926 20.8192 220.476 21.4464C220.681 21.6768 220.899 21.8688 221.129 22.0224C221.359 22.176 221.558 22.2848 221.724 22.3488ZM230.806 35.7888C230.652 36.096 230.454 36.3328 230.211 36.4992C229.967 36.6656 229.583 36.7488 229.059 36.7488C228.649 36.7488 228.444 36.5504 228.444 36.1536C228.444 36.0768 228.457 35.9616 228.483 35.808L228.828 34.3296C228.918 33.984 229.001 33.6576 229.078 33.3504C229.155 33.0432 229.225 32.768 229.289 32.5248C229.571 31.488 229.775 30.656 229.903 30.0288C230.044 29.3888 230.115 28.7936 230.115 28.2432C230.115 27.3088 229.5 26.8416 228.271 26.8416C227.503 26.8416 226.755 26.9696 226.025 27.2256C225.308 27.4688 224.777 27.808 224.431 28.2432C224.879 28.2816 225.276 28.4288 225.622 28.6848C225.967 28.928 226.14 29.2416 226.14 29.6256C226.14 29.7408 226.121 29.8688 226.083 30.0096L225.622 31.6608C225.289 32.8 225.033 33.7152 224.854 34.4064C224.675 35.0976 224.579 35.6672 224.566 36.1152C224.348 36.2688 224.079 36.3456 223.759 36.3456C223.401 36.3456 223.126 36.2688 222.934 36.1152C222.755 35.9744 222.665 35.7824 222.665 35.5392C222.665 34.7712 222.787 33.8624 223.03 32.8128C223.273 31.7632 223.606 30.6752 224.028 29.5488C223.9 29.4592 223.683 29.3504 223.375 29.2224C223.055 29.0816 222.819 28.9536 222.665 28.8384C222.524 28.7104 222.454 28.5376 222.454 28.32C222.454 27.7568 222.723 27.2384 223.26 26.7648C223.811 26.2784 224.54 25.8944 225.449 25.6128C226.358 25.3312 227.324 25.1904 228.348 25.1904C229.027 25.1904 229.66 25.3184 230.249 25.5744C230.851 25.8176 231.331 26.1888 231.689 26.688C232.06 27.1744 232.246 27.776 232.246 28.4928C232.246 29.1584 232.163 29.8816 231.996 30.6624C231.843 31.4304 231.625 32.3648 231.343 33.4656C231.087 34.4384 230.908 35.2128 230.806 35.7888Z" fill="black"/>
<rect x="0.5" y="0.5" width="348" height="58" stroke="black"/>
</svg>
